<?xml version="1.0" encoding="utf-8"?>
<svg version="1.1" xmlns:xlink="http://www.w3.org/1999/xlink" width="36px" height="42px" xmlns="http://www.w3.org/2000/svg">
  <g transform="matrix(1 0 0 1 -1157 -199 )">
    <path d="M 24 4  L 24 0  L 12 0  L 12 4  L 24 4  Z M 16 14  L 16 26  L 20 26  L 20 14  L 16 14  Z M 36 24  C 36 19.75  34.52 15.85  32.05 12.77  L 34.9 9.92  C 34.04 8.89  33.1 7.95  32.07 7.09  L 29.22 9.94  C 26.15 7.48  22.24 6  17.99 6  C 8.04 6  0 14.06  0 24  C 0 33.94  8.04 42  17.99 42  C 27.94 42  36 33.94  36 24  Z M 32 24  C 32 31.73  25.73 38  18 38  C 10.27 38  4 31.73  4 24  C 4 16.27  10.27 10  18 10  C 25.73 10  32 16.27  32 24  Z " fill-rule="nonzero" fill="#ffffff" stroke="none" transform="matrix(1 0 0 1 1157 199 )" />
  </g>
</svg>