<?xml version="1.0" encoding="utf-8"?>
<svg version="1.1" xmlns:xlink="http://www.w3.org/1999/xlink" width="17px" height="13px" xmlns="http://www.w3.org/2000/svg">
  <g transform="matrix(1 0 0 1 -34 -4 )">
    <path d="M 0.85 5.6875  C 0.37984375 5.6875  0 6.0505859375  0 6.5  L 0 9.75  C 0 10.1994140625  0.37984375 10.5625  0.85 10.5625  L 1.7 10.5625  L 1.7 5.6875  L 0.85 5.6875  Z M 14.45 4.46875  C 14.45 3.346484375  13.4990625 2.4375  12.325 2.4375  L 9.35 2.4375  L 9.35 0.8125  C 9.35 0.3630859375  8.97015625 0  8.5 0  C 8.02984375 0  7.65 0.3630859375  7.65 0.8125  L 7.65 2.4375  L 4.675 2.4375  C 3.5009375 2.4375  2.55 3.346484375  2.55 4.46875  L 2.55 11.375  C 2.55 12.2712890625  3.31234375 13  4.25 13  L 12.75 13  C 13.68765625 13  14.45 12.2712890625  14.45 11.375  L 14.45 4.46875  Z M 6.8 9.75  L 6.8 10.5625  L 5.1 10.5625  L 5.1 9.75  L 6.8 9.75  Z M 7.0125 6.5  C 7.0125 7.0611328125  6.53703125 7.515625  5.95 7.515625  C 5.36296875 7.515625  4.8875 7.0611328125  4.8875 6.5  C 4.8875 5.9388671875  5.36296875 5.484375  5.95 5.484375  C 6.53703125 5.484375  7.0125 5.9388671875  7.0125 6.5  Z M 9.35 9.75  L 9.35 10.5625  L 7.65 10.5625  L 7.65 9.75  L 9.35 9.75  Z M 11.9 9.75  L 11.9 10.5625  L 10.2 10.5625  L 10.2 9.75  L 11.9 9.75  Z M 12.1125 6.5  C 12.1125 7.0611328125  11.63703125 7.515625  11.05 7.515625  C 10.46296875 7.515625  9.9875 7.0611328125  9.9875 6.5  C 9.9875 5.9388671875  10.46296875 5.484375  11.05 5.484375  C 11.63703125 5.484375  12.1125 5.9388671875  12.1125 6.5  Z M 17 6.5  C 17 6.0505859375  16.62015625 5.6875  16.15 5.6875  L 15.3 5.6875  L 15.3 10.5625  L 16.15 10.5625  C 16.62015625 10.5625  17 10.1994140625  17 9.75  L 17 6.5  Z " fill-rule="nonzero" fill="#ffffff" stroke="none" transform="matrix(1 0 0 1 34 4 )" />
  </g>
</svg>