<?xml version="1.0" encoding="utf-8"?>
<svg version="1.1" xmlns:xlink="http://www.w3.org/1999/xlink" width="20px" height="22px" xmlns="http://www.w3.org/2000/svg">
  <g transform="matrix(1 0 0 1 -30 -183 )">
    <path d="M 20 1.83333333333333  C 20 0.825  19.1818181818182 0  18.1818181818182 0  L 4.54545454545455 0  C 3.54545454545455 0  2.72727272727273 0.825  2.72727272727273 1.83333333333333  L 2.72727272727273 3.20833333333333  L 1.36363636363636 3.20833333333333  C 0.590909090909091 3.20833333333333  0 3.80416666666667  0 4.58333333333333  C 0 5.3625  0.590909090909091 5.95833333333333  1.36363636363636 5.95833333333333  L 2.72727272727273 5.95833333333333  L 2.72727272727273 9.625  L 1.36363636363636 9.625  C 0.590909090909091 9.625  0 10.2208333333333  0 11  C 0 11.7791666666667  0.590909090909091 12.375  1.36363636363636 12.375  L 2.72727272727273 12.375  L 2.72727272727273 16.0416666666667  L 1.36363636363636 16.0416666666667  C 0.590909090909091 16.0416666666667  0 16.6375  0 17.4166666666667  C 0 18.1958333333333  0.590909090909091 18.7916666666667  1.36363636363636 18.7916666666667  L 2.72727272727273 18.7916666666667  L 2.72727272727273 20.1666666666667  C 2.72727272727273 21.175  3.54545454545455 22  4.54545454545455 22  L 18.1818181818182 22  C 19.1818181818182 22  20 21.175  20 20.1666666666667  L 20 1.83333333333333  Z M 15 14.6666666666667  L 15 15.5833333333333  C 15 15.8583333333333  14.8181818181818 16.0416666666667  14.5454545454545 16.0416666666667  L 8.18181818181818 16.0416666666667  C 7.90909090909091 16.0416666666667  7.72727272727273 15.8583333333333  7.72727272727273 15.5833333333333  L 7.72727272727273 14.6666666666667  C 7.72727272727273 14.3916666666667  7.90909090909091 14.2083333333333  8.18181818181818 14.2083333333333  L 14.5454545454545 14.2083333333333  C 14.8181818181818 14.2083333333333  15 14.3916666666667  15 14.6666666666667  Z M 15.9090909090909 11  L 15.9090909090909 11.9166666666667  C 15.9090909090909 12.1916666666667  15.7272727272727 12.375  15.4545454545455 12.375  L 7.27272727272727 12.375  C 7 12.375  6.81818181818182 12.1916666666667  6.81818181818182 11.9166666666667  L 6.81818181818182 11  C 6.81818181818182 10.725  7 10.5416666666667  7.27272727272727 10.5416666666667  L 15.4545454545455 10.5416666666667  C 15.7272727272727 10.5416666666667  15.9090909090909 10.725  15.9090909090909 11  Z M 16.8181818181818 4.58333333333333  L 16.8181818181818 7.33333333333333  C 16.8181818181818 7.60833333333333  16.6363636363636 7.79166666666667  16.3636363636364 8  L 6.36363636363636 8  C 6.09090909090909 7.79166666666667  5.90909090909091 7.60833333333333  5.90909090909091 7.33333333333333  L 5.90909090909091 4.58333333333333  C 5.90909090909091 4.30833333333333  6.09090909090909 4.125  6.36363636363636 4.125  L 16.3636363636364 4.125  C 16.6363636363636 4.125  16.8181818181818 4.30833333333333  16.8181818181818 4.58333333333333  Z " fill-rule="nonzero" fill="#333333" stroke="none" transform="matrix(1 0 0 1 30 183 )" />
  </g>
</svg>