<?xml version="1.0" encoding="utf-8"?>
<svg version="1.1" xmlns:xlink="http://www.w3.org/1999/xlink" width="27px" height="28px" xmlns="http://www.w3.org/2000/svg">
  <g transform="matrix(1 0 0 1 -414 -12 )">
    <path d="M 26.9999896067542 14.0164385000011  C 26.9999896067542 10.9555258035169  25.919918294539 7.99277793406427  23.95 5.65  L 23.9547 5.6461  C 23.8629 5.5367  23.7577 5.44  23.6622 5.3336  C 23.4781 5.1285  23.295 4.9236  23.0987 4.7306  C 22.9605 4.5948  22.8131 4.4693  22.6687 4.3399  C 22.4856 4.1754  22.303 4.0113  22.1106 3.8575  C 21.9514 3.7296  21.7862 3.6109  21.6211 3.4908  C 21.429 3.3508  21.2356 3.214  21.0357 3.0846  C 20.8614 2.9718  20.6834 2.8658  20.5035 2.7608  C 20.2981 2.64173333333333  20.0896666666667 2.52813333333333  19.8782 2.42  C 19.6936 2.3258  19.5082 2.2354  19.3182 2.15  C 19.0958 2.05  18.8692 1.9586  18.6402 1.8707  C 18.4508 1.7984  18.2625 1.7252  18.0689 1.6617  C 17.8226 1.5802  17.5709 1.5123  17.3182 1.4454  C 17.1334 1.3961  16.9508 1.3429  16.7628 1.3023  C 16.4728 1.2389  16.1763 1.1949  15.8795 1.1515  C 15.7205 1.1285  15.565 1.0963  15.4041 1.0787  C 11.0659343725997 0.597005583725752  6.77746450051554 2.33599419979067  4 5.7031  L 4 2  L 2 2  L 2 10  L 10 10  L 10 8  L 4.8115 8  C 6.83015082732319 4.8850334329953  10.2881329900841 3.00334318825409  14 3  C 14.3972442633368 3.00102989411461  14.7941474902255 3.02336195961406  15.189 3.0669  C 15.3252 3.0815  15.457 3.1089  15.5916 3.1284  C 15.8425 3.165  16.093 3.2026  16.3384 3.2559  C 16.4976 3.2905  16.6528 3.3359  16.8096 3.3774  C 17.0227 3.4336  17.2354 3.4912  17.4431 3.5596  C 17.6074 3.6143  17.7681 3.6763  17.929 3.7378  C 18.1216 3.812  18.3125 3.8887  18.4995 3.9727  C 18.6606 4.0454  18.8188 4.1227  18.9758 4.2027  C 19.1542666666667 4.29356666666667  19.3296666666667 4.38913333333334  19.502 4.4894  C 19.655 4.5787  19.8066 4.6694  19.9551 4.7652  C 20.123 4.8741  20.2859 4.9894  20.4473 5.1065  C 20.5879 5.2091  20.729 5.3102  20.8643 5.419  C 21.0259 5.5484  21.1799 5.6866  21.3343 5.8253  C 21.4568 5.9353  21.5821 6.0421  21.6995 6.1573  C 21.8663 6.3209  22.0218 6.4952  22.178 6.669  C 23.9858259795524 8.68558670326006  24.9855978625683 11.2985610653113  24.9855978625683 14.0068551232212  C 24.9855978625683 20.0780109211611  20.0639536605082 24.9996551232212  13.9927978625683 24.9996551232212  C 7.92164206462833 24.9996551232212  2.99999786256827 20.0780109211611  2.99999786256827 14.0068551232212  C 2.99999786256827 14.0045700819841  2.99999857504555 14.0022850407928  3 14  L 1 14  C 0.99999307117017 14.0054794972639  0.99998960675422 14.0109589983564  0.99998960675422 14.0164385000011  C 0.99998960675422 21.1961402478014  6.8202878589539 27.0164385000011  13.9999896067542 27.0164385000011  C 21.1796913545545 27.0164385000011  26.9999896067542 21.1961402478014  26.9999896067542 14.0164385000011  Z " fill-rule="nonzero" fill="#000000" stroke="none" transform="matrix(1 0 0 1 414 12 )" />
  </g>
</svg>