<?xml version="1.0" encoding="utf-8"?>
<svg version="1.1" xmlns:xlink="http://www.w3.org/1999/xlink" width="34px" height="34px" xmlns="http://www.w3.org/2000/svg">
  <g transform="matrix(1 0 0 1 -34 -149 )">
    <path d="M 32.8786764705882 32.8786764705882  L 0.121323529411765 32.8786764705882  L 0.121323529411765 2.30514705882353  L 6.67279411764706 2.30514705882353  L 6.67279411764706 0.121323529411765  L 8.85661764705882 0.121323529411765  L 8.85661764705882 2.30514705882353  L 24.1433823529412 2.30514705882353  L 24.1433823529412 0.121323529411765  L 26.3272058823529 0.121323529411765  L 26.3272058823529 2.30514705882353  L 32.8786764705882 2.30514705882353  L 32.8786764705882 32.8786764705882  Z M 2.30514705882353 30.6948529411765  L 30.6948529411765 30.6948529411765  L 30.6948529411765 11  L 2.30514705882353 11  L 2.30514705882353 30.6948529411765  Z M 2.30514705882353 4.48897058823529  L 2.30514705882353 9  L 30.6948529411765 9  L 30.6948529411765 4.48897058823529  L 26.3272058823529 4.48897058823529  L 26.3272058823529 6.67279411764706  L 24.1433823529412 6.67279411764706  L 24.1433823529412 5  L 8.85661764705882 5  L 8.85661764705882 6.67279411764706  L 6.67279411764706 6.67279411764706  L 6.67279411764706 4.48897058823529  L 2.30514705882353 4.48897058823529  Z " fill-rule="nonzero" fill="#333333" stroke="none" transform="matrix(1 0 0 1 34 149 )" />
  </g>
</svg>