<?xml version="1.0" encoding="utf-8"?>
<svg version="1.1" xmlns:xlink="http://www.w3.org/1999/xlink" width="4px" height="7px" xmlns="http://www.w3.org/2000/svg">
  <defs>
    <mask fill="white" id="clip136">
      <path d="M 0.500184860676476 2.35520545605068  L 3.66812119935283 6.64310261539083  C 3.66812119935283 6.64310261539083  3.87036264016923 1.94059511535341  3.58836046512018 1.19194648397322  C 3.30635829007112 0.443297852593025  2.30457806481209 -0.247942037342754  1.22550063419789 0.158526591229477  C 0.146423203583679 0.564995219801708  0.500184860676476 2.35520545605068  0.500184860676476 2.35520545605068  Z " fill-rule="evenodd" />
    </mask>
  </defs>
  <g transform="matrix(1 0 0 1 -187 -102 )">
    <path d="M 0.500184860676476 2.35520545605068  L 3.66812119935283 6.64310261539083  C 3.66812119935283 6.64310261539083  3.87036264016923 1.94059511535341  3.58836046512018 1.19194648397322  C 3.30635829007112 0.443297852593025  2.30457806481209 -0.247942037342754  1.22550063419789 0.158526591229477  C 0.146423203583679 0.564995219801708  0.500184860676476 2.35520545605068  0.500184860676476 2.35520545605068  Z " fill-rule="nonzero" fill="#333333" stroke="none" transform="matrix(1 0 0 1 187 102 )" />
    <path d="M 0.500184860676476 2.35520545605068  L 3.66812119935283 6.64310261539083  C 3.66812119935283 6.64310261539083  3.87036264016923 1.94059511535341  3.58836046512018 1.19194648397322  C 3.30635829007112 0.443297852593025  2.30457806481209 -0.247942037342754  1.22550063419789 0.158526591229477  C 0.146423203583679 0.564995219801708  0.500184860676476 2.35520545605068  0.500184860676476 2.35520545605068  Z " stroke-width="2" stroke="#333333" fill="none" transform="matrix(1 0 0 1 187 102 )" mask="url(#clip136)" />
  </g>
</svg>