<?xml version="1.0" encoding="utf-8"?>
<svg version="1.1" xmlns:xlink="http://www.w3.org/1999/xlink" width="19px" height="20px" xmlns="http://www.w3.org/2000/svg">
  <g transform="matrix(1 0 0 1 -349 -15 )">
    <path d="M 18.83078125 19.3125  L 11.0378125 10  L 18.83078125 0.687500000000001  C 18.96140625 0.532738095238096  18.8515625 0.297619047619048  18.6496875 0.297619047619048  L 16.280625 0.297619047619048  C 16.14109375 0.297619047619048  16.0075 0.360119047619048  15.91546875 0.467261904761905  L 9.488125 8.14880952380952  L 3.06078125 0.467261904761904  C 2.97171875 0.360119047619047  2.838125 0.297619047619048  2.695625 0.297619047619048  L 0.3265625 0.297619047619048  C 0.1246875 0.297619047619048  0.01484375 0.532738095238095  0.14546875 0.6875  L 7.9384375 10  L 0.14546875 19.3125  C 0.109177073277499 19.3552842684877  0.0892495144841392 19.4096152115894  0.0892495144841392 19.4657773842351  C 0.0892495144841392 19.5964519009362  0.194917309074856 19.7023845270923  0.325265139484139 19.7023845270923  C 0.325697595439517 19.7023845270923  0.326130050578259 19.7023833355173  0.3265625 19.702380952381  L 2.695625 19.702380952381  C 2.83515625 19.702380952381  2.96875 19.639880952381  3.06078125 19.5327380952381  L 9.488125 11.8511904761905  L 15.91546875 19.5327380952381  C 16.00453125 19.639880952381  16.138125 19.702380952381  16.280625 19.702380952381  L 18.6496875 19.702380952381  C 18.8515625 19.702380952381  18.96140625 19.4672619047619  18.83078125 19.3125  Z " fill-rule="nonzero" fill="#333333" stroke="none" transform="matrix(1 0 0 1 349 15 )" />
  </g>
</svg>