<?xml version="1.0" encoding="utf-8"?>
<svg version="1.1" xmlns:xlink="http://www.w3.org/1999/xlink" width="40px" height="40px" xmlns="http://www.w3.org/2000/svg">
  <defs>
    <filter x="0px" y="-145px" width="40px" height="40px" filterUnits="userSpaceOnUse" id="filter172">
      <feOffset dx="5" dy="5" in="SourceAlpha" result="shadowOffsetInner" />
      <feGaussianBlur stdDeviation="2.5" in="shadowOffsetInner" result="shadowGaussian" />
      <feComposite in2="shadowGaussian" operator="atop" in="SourceAlpha" result="shadowComposite" />
      <feColorMatrix type="matrix" values="0 0 0 0 0  0 0 0 0 0  0 0 0 0 0  0 0 0 0.349019607843137 0  " in="shadowComposite" />
    </filter>
    <g id="widget173">
      <path d="M 15 -144  C 22.84 -144  29 -137.84  29 -130  C 29 -122.16  22.84 -116  15 -116  C 7.16 -116  1 -122.16  1 -130  C 1 -137.84  7.16 -144  15 -144  Z " fill-rule="nonzero" fill="#ff3366" stroke="none" />
      <path d="M 15 -144  C 22.84 -144  29 -137.84  29 -130  C 29 -122.16  22.84 -116  15 -116  C 7.16 -116  1 -122.16  1 -130  C 1 -137.84  7.16 -144  15 -144  Z " stroke-width="2" stroke="#ffffff" fill="none" />
    </g>
  </defs>
  <g transform="matrix(1 0 0 1 0 145 )">
    <use xlink:href="#widget173" filter="url(#filter172)" />
    <use xlink:href="#widget173" />
  </g>
</svg>