<?xml version="1.0" encoding="utf-8"?>
<svg version="1.1" xmlns:xlink="http://www.w3.org/1999/xlink" width="30px" height="30px" xmlns="http://www.w3.org/2000/svg">
  <g transform="matrix(1 0 0 1 -532 -500 )">
    <path d="M 4.14461538461539 29.6030769230769  C 3.8123076923077 29.7138461538462  3.48 29.7692307692308  3.14769230769231 29.7692307692308  C 2.20615384615385 29.7692307692308  1.32 29.3076923076923  0.766153846153846 28.5507692307692  C 0.415384615384615 28.0523076923077  0.23076923076923 27.4615384615385  0.23076923076923 26.8523076923077  C 0.23076923076923 26.52  0.286153846153846 26.1876923076923  0.396923076923077 25.8553846153846  L 2.98153846153846 18.3230769230769  C 3.16615384615385 17.8246153846154  3.36923076923077 17.4923076923077  3.73846153846154 17.1230769230769  L 19.2830769230769 1.57846153846154  C 20.1507692307692 0.710769230769231  21.2953846153846 0.230769230769231  22.5323076923077 0.230769230769231  C 23.7692307692308 0.230769230769231  24.9323076923077 0.710769230769231  25.8184615384615 1.59692307692308  L 28.4030769230769 4.18153846153846  C 29.3076923076923 5.08615384615385  29.7692307692308 6.28615384615385  29.7692307692308 7.46769230769231  C 29.7692307692308 8.64923076923077  29.3076923076923 9.83076923076923  28.4215384615385 10.7169230769231  L 12.8584615384615 26.28  C 12.4892307692308 26.6492307692308  12.1569230769231 26.8523076923077  11.6584615384615 27.0369230769231  L 4.14461538461539 29.6030769230769  Z M 19.4492307692308 5.32615384615385  L 24.6553846153846 10.5507692307692  L 26.4461538461538 8.76  C 26.8153846153846 8.39076923076923  26.9815384615385 7.92923076923077  26.9815384615385 7.44923076923077  C 26.9815384615385 6.96923076923077  26.8153846153846 6.48923076923077  26.4461538461538 6.13846153846154  L 23.8615384615385 3.55384615384616  C 23.4738461538462 3.18461538461539  23.0123076923077 3  22.5323076923077 3  C 22.0523076923077 3  21.5907692307692 3.18461538461539  21.24 3.53538461538462  L 19.4492307692308 5.32615384615385  Z M 7.89230769230769 17.5292307692308  L 12.4523076923077 22.1076923076923  C 12.6553846153846 22.3107692307692  12.8953846153846 22.3107692307692  13.0984615384615 22.1076923076923  L 22.6984615384615 12.5076923076923  L 17.4923076923077 7.28307692307692  L 7.89230769230769 16.8830769230769  C 7.68923076923077 17.0861538461538  7.68923076923077 17.3261538461538  7.89230769230769 17.5292307692308  Z M 3.14769230769231 26.4092307692308  C 3.01846153846154 26.7784615384615  3.22153846153846 26.9815384615385  3.59076923076923 26.8523076923077  L 10.2369230769231 24.5815384615385  C 10.5692307692308 24.4523076923077  10.6246153846154 24.1938461538462  10.3846153846154 23.9538461538462  L 6.04615384615385 19.5969230769231  C 5.80615384615385 19.3569230769231  5.54769230769231 19.4123076923077  5.41846153846154 19.7446153846154  L 3.14769230769231 26.4092307692308  Z " fill-rule="nonzero" fill="#333333" stroke="none" transform="matrix(1 0 0 1 532 500 )" />
  </g>
</svg>