<?xml version="1.0" encoding="utf-8"?>
<svg version="1.1" xmlns:xlink="http://www.w3.org/1999/xlink" width="58px" height="58px" xmlns="http://www.w3.org/2000/svg">
  <g transform="matrix(1 0 0 1 -97 -580 )">
    <path d="M 1.16 29  C 1.16 13.6261333333333  13.6261333333333 1.16  29 1.16  C 44.3738666666667 1.16  56.84 13.6261333333333  56.84 29  C 56.84 44.3738666666667  44.3738666666667 56.84  29 56.84  C 13.6261333333333 56.84  1.16 44.3738666666667  1.16 29  Z M 5.8 29  C 5.8 41.8064  16.1936 52.2  29 52.2  C 41.8064 52.2  52.2 41.8064  52.2 29  C 52.2 16.1936  41.8064 5.8  29 5.8  C 16.1936 5.8  5.8 16.1936  5.8 29  Z M 33.7328 18.8538666666667  C 34.1968 19.2869333333333  34.4133333333333 19.9056  34.4133333333333 20.4933333333333  C 34.4133333333333 21.0810666666667  34.1658666666667 21.6997333333333  33.7328 22.1328  L 26.8656 29  L 33.7328 35.8672  C 34.1968 36.3312  34.4133333333333 36.9189333333333  34.4133333333333 37.5066666666667  C 34.4133333333333 38.0944  34.1658666666667 38.7130666666667  33.7328 39.1461333333333  C 33.2688 39.6101333333333  32.6810666666667 39.8266666666667  32.0933333333333 39.8266666666667  C 31.5056 39.8266666666667  30.8869333333333 39.6101333333333  30.4538666666667 39.1461333333333  L 21.9472 30.6394666666667  C 21.5141333333333 30.1754666666667  21.2666666666667 29.5877333333333  21.2666666666667 29  C 21.2666666666667 28.4122666666667  21.4832 27.8245333333333  21.9472 27.3605333333333  L 30.4538666666667 18.8538666666667  C 30.8869333333333 18.4208  31.5056 18.1733333333333  32.0933333333333 18.1733333333333  C 32.6810666666667 18.1733333333333  33.2688 18.4208  33.7328 18.8538666666667  Z " fill-rule="nonzero" fill="#7f7f7f" stroke="none" transform="matrix(1 0 0 1 97 580 )" />
  </g>
</svg>