<?xml version="1.0" encoding="utf-8"?>
<svg version="1.1" xmlns:xlink="http://www.w3.org/1999/xlink" width="26px" height="26px" xmlns="http://www.w3.org/2000/svg">
  <g transform="matrix(1 0 0 1 -335 -395 )">
    <path d="M 26 13  C 26 5.82098214285714  20.1790178571429 0  13 0  C 5.82098214285714 0  0 5.82098214285714  0 13  C 0 20.1790178571429  5.82098214285714 26  13 26  C 20.1790178571429 26  26 20.1790178571429  26 13  Z M 18.0316964285714 17.7066964285714  C 18.0316964285714 17.834375  17.9272321428571 17.9388392857143  17.7995535714286 17.9388392857143  L 15.884375 17.9301339285714  L 13 14.4915178571429  L 10.1185267857143 17.9272321428571  L 8.20044642857143 17.9359375  C 8.07276785714286 17.9359375  7.96830357142857 17.834375  7.96830357142857 17.7037946428571  C 7.96830357142857 17.6486607142857  7.98861607142857 17.5964285714286  8.0234375 17.5529017857143  L 11.7986607142857 13.0551339285714  L 8.0234375 8.56026785714286  C 7.98837334531348 8.51773872472871  7.96891768275642 8.46449164825674  7.96830357142857 8.409375  C 7.96830357142857 8.28169642857143  8.07276785714286 8.17723214285714  8.20044642857143 8.17723214285714  L 10.1185267857143 8.1859375  L 13 11.6245535714286  L 15.8814732142857 8.18883928571429  L 17.7966517857143 8.18013392857143  C 17.9243303571429 8.18013392857143  18.0287946428571 8.28169642857143  18.0287946428571 8.41227678571429  C 18.0287946428571 8.46741071428572  18.0084821428571 8.51964285714286  17.9736607142857 8.56316964285714  L 14.2042410714286 13.0580357142857  L 17.9765625 17.5558035714286  C 18.0113839285714 17.5993303571429  18.0316964285714 17.6515625  18.0316964285714 17.7066964285714  Z " fill-rule="nonzero" fill="#333333" stroke="none" transform="matrix(1 0 0 1 335 395 )" />
  </g>
</svg>