<?xml version="1.0" encoding="utf-8"?>
<svg version="1.1" xmlns:xlink="http://www.w3.org/1999/xlink" width="176px" height="176px" xmlns="http://www.w3.org/2000/svg">
  <g transform="matrix(1 0 0 1 -281 -746 )">
    <path d="M 369 746  C 418.28 746  457 784.72  457 834  C 457 883.28  418.28 922  369 922  C 319.72 922  281 883.28  281 834  C 281 784.72  319.72 746  369 746  Z " fill-rule="nonzero" fill="#ffffff" stroke="none" />
    <path d="M 369 746.5  C 418 746.5  456.5 785  456.5 834  C 456.5 883  418 921.5  369 921.5  C 320 921.5  281.5 883  281.5 834  C 281.5 785  320 746.5  369 746.5  Z " stroke-width="1" stroke="#797979" fill="none" />
  </g>
</svg>