<?xml version="1.0" encoding="utf-8"?>
<svg version="1.1" xmlns:xlink="http://www.w3.org/1999/xlink" width="152px" height="152px" xmlns="http://www.w3.org/2000/svg">
  <g transform="matrix(1 0 0 1 -725 -736 )">
    <path d="M 801 736  C 843.56 736  877 769.44  877 812  C 877 854.56  843.56 888  801 888  C 758.44 888  725 854.56  725 812  C 725 769.44  758.44 736  801 736  Z " fill-rule="nonzero" fill="#ffffff" stroke="none" />
    <path d="M 801 736.5  C 843.28 736.5  876.5 769.72  876.5 812  C 876.5 854.28  843.28 887.5  801 887.5  C 758.72 887.5  725.5 854.28  725.5 812  C 725.5 769.72  758.72 736.5  801 736.5  Z " stroke-width="1" stroke="#797979" fill="none" />
  </g>
</svg>