<?xml version="1.0" encoding="utf-8"?>
<svg version="1.1" xmlns:xlink="http://www.w3.org/1999/xlink" width="50px" height="44px" xmlns="http://www.w3.org/2000/svg">
  <g transform="matrix(1 0 0 1 -184 -3245 )">
    <path d="M 50 30.4599453125  C 50 27.52096875  48.3539930555556 24.8059453125  45.0904513888889 24.8059453125  C 41.4863715277778 24.8059453125  39.9255208333333 27.52096875  37.9673611111111 27.52096875  C 32.7611979166667 27.52096875  37.5 12.375  37.5 12.375  C 37.5 12.375  20.4611111111111 19.25  20.4611111111111 12.0916640625  C 20.4611111111111 9.01278125  23.6111111111111 8.1170546875  23.6111111111111 4.702328125  C 23.6111111111111 1.651375  21.1705729166667 0  18.2759548611111 0  C 15.2677951388889 0  12.5150173611111 1.6234453125  12.5150173611111 4.842234375  C 12.5150173611111 8.396953125  15.2677083333333 9.9363515625  15.2677083333333 11.867625  C 15.2677951388889 17.8508515625  0 14.330765625  0 14.330765625  L 0 42.9683203125  C 0 42.9683203125  15.5065104166667 46.495796875  15.5065104166667 40.5051796875  C 15.5065104166667 38.57390625  12.0342881944444 37.058484375  12.0342881944444 33.503765625  C 12.0342881944444 30.284890625  14.5733506944444 28.66153125  17.553125 28.66153125  C 20.4761284722222 28.66153125  22.9166666666667 30.31290625  22.9166666666667 33.3637734375  C 22.9166666666667 36.7785  19.7666666666667 37.6742265625  19.7666666666667 40.753109375  C 19.7666666666667 45.9783671875  31.0231770833333 42.96428125  35.4984375 42.96428125  C 35.4984375 42.96428125  32.4841145833333 32.6431015625  37.7403645833333 32.6431015625  C 40.8620659722222 32.6431015625  41.7701388888889 35.7499140625  45.2323784722222 35.7499140625  C 48.3256944444444 35.75  50 33.342890625  50 30.4599453125  Z " fill-rule="nonzero" fill="#ffffff" stroke="none" transform="matrix(1 0 0 1 184 3245 )" />
  </g>
</svg>