<?xml version="1.0" encoding="utf-8"?>
<svg version="1.1" xmlns:xlink="http://www.w3.org/1999/xlink" width="176px" height="176px" xmlns="http://www.w3.org/2000/svg">
  <g transform="matrix(1 0 0 1 -281 -624 )">
    <path d="M 369 624  C 418.28 624  457 662.72  457 712  C 457 761.28  418.28 800  369 800  C 319.72 800  281 761.28  281 712  C 281 662.72  319.72 624  369 624  Z " fill-rule="nonzero" fill="#ffffff" stroke="none" />
    <path d="M 369 624.5  C 418 624.5  456.5 663  456.5 712  C 456.5 761  418 799.5  369 799.5  C 320 799.5  281.5 761  281.5 712  C 281.5 663  320 624.5  369 624.5  Z " stroke-width="1" stroke="#797979" fill="none" />
  </g>
</svg>