<?xml version="1.0" encoding="utf-8"?>
<svg version="1.1" xmlns:xlink="http://www.w3.org/1999/xlink" width="152px" height="152px" xmlns="http://www.w3.org/2000/svg">
  <g transform="matrix(1 0 0 1 -689 -624 )">
    <path d="M 765 624  C 807.56 624  841 657.44  841 700  C 841 742.56  807.56 776  765 776  C 722.44 776  689 742.56  689 700  C 689 657.44  722.44 624  765 624  Z " fill-rule="nonzero" fill="#ffffff" stroke="none" />
    <path d="M 765 624.5  C 807.28 624.5  840.5 657.72  840.5 700  C 840.5 742.28  807.28 775.5  765 775.5  C 722.72 775.5  689.5 742.28  689.5 700  C 689.5 657.72  722.72 624.5  765 624.5  Z " stroke-width="1" stroke="#797979" fill="none" />
  </g>
</svg>