<?xml version="1.0" encoding="utf-8"?>
<svg version="1.1" xmlns:xlink="http://www.w3.org/1999/xlink" width="30px" height="30px" xmlns="http://www.w3.org/2000/svg">
  <g>
    <path d="M 0.599999999999998 15  C 0.599999999999998 7.048  7.048 0.599999999999998  15 0.6  C 22.952 0.6  29.4 7.048  29.4 15  C 29.4 22.952  22.952 29.4  15 29.4  C 7.048 29.4  0.599999999999998 22.952  0.599999999999998 15  Z M 27 15  C 27 8.376  21.624 3  15 3  C 8.376 3  3 8.376  3 15  C 3 21.624  8.376 27  15 27  C 21.624 27  27 21.624  27 15  Z M 11.128 20.408  C 11.448 20.856  11.912 21.112  12.456 21.112  C 12.92 21.112  13.368 20.904  13.672 20.536  L 21.016 11.848  C 21.256 11.576  21.384 11.208  21.384 10.84  C 21.384 10.36  21.192 9.896  20.808 9.592  C 20.504 9.352  20.168 9.24  19.768 9.24  C 19.304 9.24  18.872 9.432  18.568 9.8  L 12.584 16.904  L 11.256 15.032  C 10.952 14.616  10.488 14.36  9.96 14.36  C 9.624 14.36  9.32 14.456  9.048 14.632  C 8.6 14.92  8.36 15.368  8.36 15.928  C 8.36 16.264  8.456 16.584  8.648 16.872  L 11.128 20.408  Z " fill-rule="nonzero" fill="#333333" stroke="none" />
  </g>
</svg>