<?xml version="1.0" encoding="utf-8"?>
<svg version="1.1" xmlns:xlink="http://www.w3.org/1999/xlink" width="22px" height="17px" xmlns="http://www.w3.org/2000/svg">
  <g transform="matrix(1 0 0 1 -644 -169 )">
    <path d="M 0.616000000000003 1.38365217391304  L 10.5424 10.6434782608696  C 10.824 10.8918260869565  11.2112 10.8918260869565  11.4928 10.6434782608696  L 21.4544 1.34817391304348  C 21.6304 0.993391304347826  21.5952 0.425739130434782  20.8912 0.425739130434782  L 1.1792 0.461217391304348  C 0.651200000000003 0.461217391304348  0.228800000000003 0.95791304347826  0.616000000000003 1.38365217391304  Z M 21.5952 14.5460869565217  C 21.56 14.5460869565217  21.56 8.16  21.56 5.32173913043478  C 21.56 4.86052173913044  20.9968 4.61217391304348  20.68 4.93147826086956  L 12.936 12.1690434782609  C 12.408 12.6657391304348  11.7392 12.9140869565217  11.0352 12.9140869565217  C 10.3312 12.9140869565217  9.6624 12.6657391304348  9.1344 12.1690434782609  L 1.3552 4.93147826086956  C 1.0032 4.61217391304348  0.4752 4.86052173913043  0.4752 5.32173913043478  L 0.4752 14.5460869565217  C 0.4752 15.7168695652174  1.4256 16.6747826086957  2.5872 16.6747826086957  L 19.4832 16.6747826086957  C 20.6448 16.6747826086957  21.5952 15.7168695652174  21.5952 14.5460869565217  Z " fill-rule="nonzero" fill="#ffffff" stroke="none" transform="matrix(1 0 0 1 644 169 )" />
  </g>
</svg>