<?xml version="1.0" encoding="utf-8"?>
<svg version="1.1" xmlns:xlink="http://www.w3.org/1999/xlink" width="22px" height="22px" xmlns="http://www.w3.org/2000/svg">
  <g transform="matrix(1 0 0 1 -580 -167 )">
    <path d="M 20.8912 18.9904  C 21.8416 18.1456  21.736 16.6672  20.7504 15.8928  L 18.568 14.1328  C 17.8288 13.5344  16.7728 13.4992  15.9984 14.0624  L 13.9216 15.576  C 13.64 15.7872  13.2528 15.752  13.0064 15.5056  L 9.592 12.408  L 6.4592 8.9584  C 6.2128 8.71199999999999  6.1776 8.3248  6.3888 8.0432  L 7.9024 5.9664  C 8.4656 5.19199999999999  8.4304 4.13599999999999  7.832 3.3968  L 6.072 1.2144  C 5.29759999999999 0.228799999999996  3.8192 0.158399999999996  2.9392 1.0384  L 1.0384 2.9392  C 0.615999999999999 3.36159999999999  0.404799999999998 3.96  0.404799999999998 4.5232  C 0.651199999999997 8.99359999999999  2.6928 13.2528  5.6848 16.2448  C 8.6768 19.2368  12.9008 21.2784  17.4064 21.5248  C 18.0048 21.56  18.568 21.3136  18.9904 20.8912  L 20.8912 18.9904  Z " fill-rule="nonzero" fill="#ffffff" stroke="none" transform="matrix(1 0 0 1 580 167 )" />
  </g>
</svg>