<?xml version="1.0" encoding="utf-8"?>
<svg version="1.1" xmlns:xlink="http://www.w3.org/1999/xlink" width="83px" height="83px" xmlns="http://www.w3.org/2000/svg">
  <g transform="matrix(1 0 0 1 -9 -9 )">
    <path d="M 48.9337746913742 9.52992630854095  C 49.4555963671854 9.50997783783179  49.9777667434198 9.5  50.5 9.5  C 73.1436747430625 9.5  91.5 27.8563252569375  91.5 50.5  C 91.5 73.1187220436008  73.1841087714576 91.4595384744245  50.5748424606242 91.4999331462196  L 50.999973116023 50.5051849063884  A 0.5 0.5 0 0 0 50.9993649599314 50.4748080014144 L 48.9337746913737 9.52992630854097  Z " fill-rule="nonzero" fill="#70b603" stroke="none" />
    <path d="M 48.9337746913742 9.52992630854095  C 49.4555963671854 9.50997783783179  49.9777667434198 9.5  50.5 9.5  C 73.1436747430625 9.5  91.5 27.8563252569375  91.5 50.5  C 91.5 73.1187220436008  73.1841087714576 91.4595384744245  50.5748424606242 91.4999331462196  L 50.999973116023 50.5051849063884  A 0.5 0.5 0 0 0 50.9993649599314 50.4748080014144 L 48.9337746913737 9.52992630854097  Z " stroke-width="1" stroke="#333333" fill="none" />
  </g>
</svg>