<?xml version="1.0" encoding="utf-8"?>
<svg version="1.1" xmlns:xlink="http://www.w3.org/1999/xlink" width="54px" height="54px" xmlns="http://www.w3.org/2000/svg">
  <g transform="matrix(1 0 0 1 -23 -21 )">
    <path d="M 49.6261793380993 21.5026367705626  C 49.7507764032711 21.5008789746273  49.8753863899073 21.5  50 21.5  C 64.635545870516 21.5  76.5 33.364454129484  76.5 48  C 76.5 62.635545870516  64.635545870516 74.5  50 74.5  C 36.340297289194 74.5  24.9486176348498 64.1246990065657  23.6261756684978 50.5836997864812  L 50.03935124271 48.4984490743267  A 0.5 0.5 0 0 0 50.4997281712787 47.9835150119665 L 49.6261793380993 21.5026367705626  Z " fill-rule="nonzero" fill="#0000ff" stroke="none" />
    <path d="M 49.6261793380993 21.5026367705626  C 49.7507764032711 21.5008789746273  49.8753863899073 21.5  50 21.5  C 64.635545870516 21.5  76.5 33.364454129484  76.5 48  C 76.5 62.635545870516  64.635545870516 74.5  50 74.5  C 36.340297289194 74.5  24.9486176348498 64.1246990065657  23.6261756684978 50.5836997864812  L 50.03935124271 48.4984490743267  A 0.5 0.5 0 0 0 50.4997281712787 47.9835150119665 L 49.6261793380993 21.5026367705626  Z " stroke-width="1" stroke="#333333" fill="none" />
  </g>
</svg>