<?xml version="1.0" encoding="utf-8"?>
<svg version="1.1" xmlns:xlink="http://www.w3.org/1999/xlink" width="100px" height="100px" xmlns="http://www.w3.org/2000/svg">
  <g>
    <path d="M 50.0067139521035 0.500000445564099  C 77.3417235133917 0.503628579981685  99.5 22.6641429021031  99.5 50  C 99.5 77.3380951166243  77.3380951166243 99.5  50 99.5  C 22.6619048833757 99.5  0.5 77.3380951166243  0.5 50  C 0.5 23.244947635117  21.7504769656742 1.36509883198491  48.4321730304012 0.524785693983011  L 49.5001163911885 50.010787846939  A 0.5 0.5 0 0 0 50.4999751721456 49.9950173061494 L 50.0067136465997 0.500000445523551  Z " fill-rule="nonzero" fill="#333333" stroke="none" />
    <path d="M 50.0067139521035 0.500000445564099  C 77.3417235133917 0.503628579981685  99.5 22.6641429021031  99.5 50  C 99.5 77.3380951166243  77.3380951166243 99.5  50 99.5  C 22.6619048833757 99.5  0.5 77.3380951166243  0.5 50  C 0.5 23.244947635117  21.7504769656742 1.36509883198491  48.4321730304012 0.524785693983011  L 49.5001163911885 50.010787846939  A 0.5 0.5 0 0 0 50.4999751721456 49.9950173061494 L 50.0067136465997 0.500000445523551  Z " stroke-width="1" stroke="#333333" fill="none" />
  </g>
</svg>