<?xml version="1.0" encoding="utf-8"?>
<svg version="1.1" xmlns:xlink="http://www.w3.org/1999/xlink" width="1366px" height="350px" xmlns="http://www.w3.org/2000/svg">
  <g>
    <path d="M 0 0  L 1366 0  L 1366 350  L 0 350  L 0 0  " fill-rule="nonzero" fill="#cccccc" stroke="none" />
    <path d="M 25 25  L 1341 25  L 1341 325  L 25 325  L 25 25  " fill-rule="nonzero" fill="#ffffff" stroke="none" />
    <path d="M 736.57 105  C 721.87 105  710.32 93.45  710.32 78.75  C 710.32 64.05  721.87 52.5  736.57 52.5  C 751.27 52.5  762.82 64.05  762.82 78.75  C 762.82 93.45  751.27 105  736.57 105  " fill-rule="nonzero" fill="#cccccc" stroke="none" />
    <path d="M 34 316  L 34 160.9  L 358.5 90.4  L 812.8 272.647144948756  L 1072.4 132.7  L 1332 272.647144948756  L 1332 316  L 34 316  " fill-rule="nonzero" fill="#169bd5" stroke="none" />
  </g>
</svg>