<?xml version="1.0" encoding="utf-8"?>
<svg version="1.1" xmlns:xlink="http://www.w3.org/1999/xlink" width="28px" height="28px" xmlns="http://www.w3.org/2000/svg">
  <g transform="matrix(1 0 0 1 -983 -75 )">
    <path d="M 28 0.666666666666667  C 27.9630909090909 0.2985  27.6657707509881 0  27.2990592885376 0  L 24.6755256916996 0  C 24.2963083003953 0  23.9941185770751 0.318277777777778  24.0122687747036 0.698555555555556  L 24.2317312252964 5.29627777777778  C 21.7147193675889 2.32772222222222  17.9660395256917 0.444444444444444  13.7787114624506 0.444444444444444  C 6.21644268774704 0.444444444444444  0.0497470355731225 6.64033333333333  0.0553359683794466 14.2326111111111  C 0.0609249011857708 21.8371111111111  6.20294071146245 28  13.7786561264822 28  C 17.3160632411067 28  20.5408221343874 26.6562777777778  22.9742766798419 24.4495555555556  C 23.257209486166 24.193  23.2705454545455 23.7517222222222  23.0009486166008 23.4810555555556  L 21.1211304347826 21.5937777777778  C 20.874 21.3456666666667  20.4770197628459 21.3317222222222  20.2147272727273 21.5636111111111  C 18.499256916996 23.0804444444444  16.2469723320158 24  13.7786561264822 24  C 8.39629249011858 24  4.0395256916996 19.6268888888889  4.0395256916996 14.2222222222222  C 4.0395256916996 8.8185  8.39535177865613 4.44444444444444  13.7786561264822 4.44444444444444  C 17.1481739130435 4.44444444444444  20.1149565217391 6.15877777777778  21.863185770751 8.76666666666667  L 16.2452015810277 8.49638888888889  C 15.8664268774704 8.47816666666667  15.5494071146245 8.78155555555556  15.5494071146245 9.16227777777778  L 15.5494071146245 11.7962222222222  C 15.5494071146245 12.1643888888889  15.8467272727273 12.4628888888889  16.2134387351779 13  L 27.2990592885375 13  C 27.6657707509881 12.4628888888889  27.9630909090909 12.1643888888889  28 11.7962222222222  L 28 0.666666666666667  Z " fill-rule="nonzero" fill="#333333" stroke="none" transform="matrix(1 0 0 1 983 75 )" />
  </g>
</svg>