<?xml version="1.0" encoding="utf-8"?>
<svg version="1.1" xmlns:xlink="http://www.w3.org/1999/xlink" width="241px" height="202px" xmlns="http://www.w3.org/2000/svg">
  <g transform="matrix(1 0 0 1 -603 -396 )">
    <path d="M 91 39.6535796766744  C 90.6686159844054 43.7588914549654  94.0510721247563 47.1177829099307  98.1851851851852 48  L 233.48343079922 48  C 237.617543859649 47.1177829099307  241 43.7588914549654  241 39.6535796766744  L 241 20.9930715935335  C 241 16.8877598152425  237.617543859649 13.5288683602771  233.48343079922 14  L 98.1851851851852 14  C 94.0510721247563 13.5288683602771  90.6686159844054 16.8877598152425  91 20.9930715935335  L 91 39.6535796766744  Z M 91 114.295612009238  C 90.6686159844054 118.400923787529  94.0510721247563 121.759815242494  98.1851851851852 121  L 233.48343079922 121  C 237.617543859649 121.759815242494  241 118.400923787529  241 114.295612009238  L 241 95.635103926097  C 241 91.529792147806  237.617543859649 88.1709006928406  233.48343079922 89  L 98.1851851851852 89  C 94.0510721247563 88.1709006928406  90.6686159844054 91.529792147806  91 95.635103926097  L 91 114.295612009238  Z M 91 188.937644341801  C 90.6686159844054 193.042956120092  94.0510721247563 196.401847575058  98.1851851851852 196  L 233.48343079922 196  C 237.617543859649 196.401847575058  241 193.042956120092  241 188.937644341801  L 241 170.277136258661  C 241 166.17182448037  237.617543859649 162.812933025404  233.48343079922 162  L 98.1851851851852 162  C 94.0510721247563 162.812933025404  90.6686159844054 166.17182448037  91 170.277136258661  L 91 188.937644341801  Z M 53.0857699805068 179.607390300231  C 53.0857699805068 167.24480369515  42.9853801169591 157.214780600462  30.5360623781676 157.214780600462  C 18.0867446393762 157.214780600462  7.70448343079922 167.24480369515  7.70448343079922 179.607390300231  C 7.70448343079922 191.969976905312  18.0867446393762 202  30.5360623781676 202  C 42.9853801169591 202  53.0857699805068 191.969976905312  53.0857699805068 179.607390300231  Z M 74.0382066276803 9.79676674364897  C 76.1992202729045 11.989376443418  76.1992202729045 15.5348729792148  73.9912280701754 17.7274826789838  L 40.0727095516569 51.4096997690531  L 32.7440545808967 58.687297921478  C 30.5360623781676 60.8799076212471  26.683820662768 60.8799076212471  24.475828460039 58.687297921478  L 2.1140350877193 36.5745958429561  C -0.0939571150097467 34.3819861431871  -0.0939571150097467 30.8364896073903  2.1140350877193 28.6438799076213  L 9.4896686159844 21.3196304849885  C 11.6976608187134 19.1270207852194  15.2680311890838 19.1270207852194  17.4760233918129 21.3196304849885  L 28.1401559454191 31.6295612009238  L 58.0654970760234 2.09930715935336  C 60.2734892787524 -0.0933025404156974  63.8438596491228 -0.0933025404156974  66.0518518518519 2.09930715935336  L 74.0382066276803 9.79676674364897  Z M 74.0382066276803 84.2988452655889  C 76.1992202729045 86.4448036951501  76.1992202729045 89.9903002309469  73.9912280701754 92.1829099307159  L 40.0727095516569 125.865127020785  L 32.6970760233918 133.189376443418  C 30.4890838206628 135.381986143187  26.6368421052632 135.381986143187  24.4288499025341 133.189376443418  L 2.1140350877193 111.030023094688  C -0.0939571150097467 108.837413394919  -0.0939571150097467 105.291916859122  2.1140350877193 103.099307159353  L 9.4896686159844 95.7750577367206  C 11.6976608187134 93.5824480369515  15.2680311890838 93.5824480369515  17.4760233918129 95.7750577367206  L 28.1401559454191 106.084988452656  L 58.0654970760234 76.3681293302541  C 60.2734892787524 74.175519630485  63.8438596491228 74.175519630485  66.0518518518519 76.3681293302541  L 74.0382066276803 84.2988452655889  Z " fill-rule="nonzero" fill="#333333" stroke="none" transform="matrix(1 0 0 1 603 396 )" />
  </g>
</svg>