<?xml version="1.0" encoding="utf-8"?>
<svg version="1.1" xmlns:xlink="http://www.w3.org/1999/xlink" width="25px" height="25px" xmlns="http://www.w3.org/2000/svg">
  <g transform="matrix(1 0 0 1 -968 -42 )">
    <path d="M 24.9940394753929 12  C 24.9940394753929 11.6247570593031  24.7839662172202 11.2810959680953  24.45 11.11  L 2.45 0.109999999999999  C 2.09777681131552 -0.0661492654355902  1.67496546727949 -0.0191702272093646  1.37 0.23  C 1.07918759506021 0.473729904545804  0.951370550057158 0.861054283342927  1.04 1.23  L 3.69 11  L 15 11  L 15 13  L 3.69 13  L 1 22.74  C 0.977065450961188 22.8249668139277  0.965447640065232 22.912589423846  0.965447640065232 23.0005971110593  C 0.965447640065232 23.5528818608901  1.41316289023444 24.0005971110593  1.96544764006523 24.0005971110593  C 1.97696767296814 24.0005971110593  1.98848684583614 24.0003980443233  2 24  C 2.15654225477094 23.9990614173852  2.3106777027621 23.9613838634318  2.45 23.89  L 24.45 12.89  C 24.7839662172202 12.7189040319047  24.9940394753929 12.3752429406969  24.9940394753929 12  Z " fill-rule="nonzero" fill="#000000" stroke="none" transform="matrix(1 0 0 1 968 42 )" />
  </g>
</svg>