<?xml version="1.0" encoding="utf-8"?>
<svg version="1.1" xmlns:xlink="http://www.w3.org/1999/xlink" width="18px" height="18px" xmlns="http://www.w3.org/2000/svg">
  <g transform="matrix(1 0 0 1 -90 -981 )">
    <path d="M 12.186 10.3196842105263  C 12.9135789473684 8.56278947368421  12.0761052631579 6.54157894736842  10.3192105263158 5.814  C 9.89715789473684 5.63921052631579  9.45426315789473 5.55015789473684  9.00047368421053 5.55015789473684  C 7.60026315789474 5.55015789473684  6.34878947368421 6.38621052631579  5.81305263157895 7.67936842105263  C 5.08547368421053 9.43626315789474  5.92247368421053 11.4584210526316  7.67984210526316 12.1864736842105  C 8.10189473684211 12.3607894736842  8.54526315789474 12.4498421052632  8.99857894736842 12.4498421052632  C 10.3987894736842 12.4498421052632  11.6502631578947 11.6133157894737  12.186 10.3196842105263  Z M 9.92036842105263 6.77652631578947  C 11.1462631578947 7.28431578947369  11.7312631578947 8.69494736842105  11.223 9.92084210526316  C 10.8492631578947 10.8236842105263  9.97578947368421 11.4077368421053  8.99857894736842 11.4077368421053  C 8.68263157894737 11.4077368421053  8.37331578947368 11.3456842105263  8.07868421052632 11.2234736842105  C 6.85231578947368 10.7156842105263  6.26826315789474 9.30457894736842  6.77605263157895 8.07821052631579  C 7.14978947368421 7.17584210526316  8.02326315789474 6.59226315789474  9.00047368421053 6.59226315789474  C 9.31642105263158 6.59226315789474  9.62621052631579 6.65431578947369  9.92036842105263 6.77652631578947  Z M 15.7741578947369 9.34815789473685  C 15.786 9.11463157894737  15.7850526315789 8.88205263157895  15.7732105263158 8.65278947368421  L 17.9805789473684 7.03894736842105  L 16.7362105263158 4.03721052631579  L 14.0347894736842 4.4568947368421  C 13.8803684210526 4.28447368421053  13.7155263157895 4.12010526315789  13.5435789473684 3.96426315789474  L 13.9627894736842 1.26284210526316  L 10.9624736842105 0.0203684210526312  L 9.34721052631579 2.22631578947368  C 9.11463157894737 2.21494736842105  8.883 2.21494736842105  8.65231578947369 2.22678947368421  L 7.03942105263158 0.0203684210526312  L 4.03768421052632 1.26378947368421  L 4.45547368421053 3.96521052631579  C 4.28352631578948 4.12010526315789  4.11915789473685 4.28447368421053  3.96426315789474 4.45594736842105  L 1.26331578947369 4.03673684210526  L 0.0203684210526346 7.03894736842105  L 2.22584210526316 8.65231578947368  C 2.214 8.883  2.214 9.11605263157895  2.22584210526316 9.34768421052631  L 0.0203684210526346 10.9610526315789  L 1.26331578947369 13.9632631578947  L 3.96473684210527 13.5445263157895  C 4.12105263157895 13.7178947368421  4.28542105263158 13.8822631578947  4.45547368421053 14.0362105263158  L 4.03768421052632 16.7371578947368  L 7.038 17.9801052631579  L 8.65231578947369 15.7746315789474  C 8.883 15.7864736842105  9.1151052631579 15.786  9.3472105263158 15.7741578947368  L 10.9605789473684 17.9801052631579  L 13.9627894736842 16.7366842105263  L 13.5435789473684 14.0357368421053  C 13.7155263157895 13.8808421052632  13.8803684210526 13.7164736842105  14.0357368421053 13.5445263157895  L 16.7371578947369 13.9632631578947  L 17.9796315789474 10.9615263157895  L 15.7741578947369 9.34815789473685  Z M 16.7035263157895 11.3191578947369  L 16.0877368421053 12.8074736842105  L 13.6165263157895 12.4247368421053  L 13.428 12.6530526315789  C 13.1949473684211 12.9363157894737  12.9348947368421 13.1958947368421  12.6544736842105 13.4261052631579  L 12.4242631578947 13.6146315789474  L 12.8074736842105 16.0867894736842  L 11.3186842105263 16.704  L 9.84126315789474 14.6846842105263  L 9.54521052631579 14.7140526315789  C 9.18521052631579 14.7500526315789  8.81857894736842 14.751  8.4528947368421 14.715  L 8.15731578947368 14.6861052631579  L 6.68084210526316 16.704  L 5.19205263157895 16.0872631578947  L 5.57478947368421 13.6155789473684  L 5.34552631578947 13.4275263157895  C 5.0688947368421 13.2001578947368  4.80836842105263 12.9396315789474  4.57152631578947 12.6530526315789  L 4.383 12.4247368421053  L 1.91273684210526 12.8074736842105  L 1.296 11.3186842105263  L 3.3138947368421 9.84221052631579  L 3.285 9.5471052631579  C 3.24994736842105 9.18236842105263  3.24994736842105 8.81384210526316  3.285 8.45242105263158  L 3.3138947368421 8.15684210526316  L 1.296 6.68084210526316  L 1.91273684210526 5.19157894736842  L 4.38394736842105 5.57526315789474  L 4.57247368421052 5.346  C 4.80315789473684 5.0651052631579  5.06321052631579 4.80505263157895  5.34552631578947 4.57342105263158  L 5.57478947368421 4.38489473684211  L 5.19205263157895 1.91273684210527  L 6.68131578947368 1.296  L 8.15731578947368 3.31484210526316  L 8.4528947368421 3.28594736842106  C 8.81384210526316 3.25136842105264  9.18047368421052 3.24947368421053  9.54805263157895 3.285  L 9.84315789473684 3.31294736842106  L 11.3196315789474 1.29552631578948  L 12.8074736842105 1.91178947368421  L 12.4242631578947 4.38252631578948  L 12.6525789473684 4.57105263157895  C 12.9348947368421 4.80363157894737  13.194947368421 5.06463157894737  13.4270526315789 5.34647368421053  L 13.6155789473684 5.57573684210527  L 16.0867894736842 5.19205263157895  L 16.704 6.68084210526316  L 14.6832631578947 8.15873684210527  L 14.7126315789474 8.45526315789474  C 14.7486315789474 8.81147368421053  14.7495789473684 9.17905263157895  14.7145263157895 9.549  L 14.6865789473684 9.84363157894737  L 16.7035263157895 11.3191578947369  Z " fill-rule="nonzero" fill="#1a1a18" stroke="none" transform="matrix(1 0 0 1 90 981 )" />
  </g>
</svg>