<?xml version="1.0" encoding="utf-8"?>
<svg version="1.1" xmlns:xlink="http://www.w3.org/1999/xlink" width="15px" height="18px" xmlns="http://www.w3.org/2000/svg">
  <g transform="matrix(1 0 0 1 -305 -221 )">
    <path d="M 14.8125 2.25  L 14.8125 3.375  L 13.6875 3.375  L 13.6875 16.3125  C 13.6875 16.547  13.6435 16.7665  13.5555 16.9715  C 13.4675 17.1765  13.3475 17.3555  13.195 17.5075  C 13.0425 17.6595  12.864 17.78  12.659 17.868  C 12.454 17.956  12.2345 18  12 18  L 3 18  C 2.7655 18  2.546 17.956  2.341 17.868  C 2.136 17.78  1.957 17.66  1.805 17.5075  C 1.653 17.355  1.5325 17.1765  1.4445 16.9715  C 1.3565 16.7665  1.3125 16.5465  1.3125 16.3125  L 1.3125 3.375  L 0.1875 3.375  L 0.1875 2.25  L 4.6875 2.25  L 4.6875 1.125  C 4.6875 0.967  4.717 0.8205  4.7755 0.6855  C 4.834 0.5505  4.9145 0.432  5.017 0.3295  C 5.1195 0.227  5.238 0.146500000000001  5.373 0.0880000000000001  C 5.508 0.0294999999999996  5.6545 0  5.8125 0  L 9.1875 0  C 9.3455 0  9.492 0.0294999999999996  9.627 0.0880000000000001  C 9.762 0.146500000000001  9.8805 0.227  9.983 0.3295  C 10.0855 0.432  10.166 0.5505  10.2245 0.6855  C 10.283 0.8205  10.3125 0.9665  10.3125 1.125  L 10.3125 2.25  L 14.8125 2.25  Z M 12.5625 16.3125  L 12.5625 3.375  L 2.4375 3.375  L 2.4375 16.3125  C 2.4375 16.465  2.493 16.5965  2.6045 16.708  C 2.716 16.8195  2.8475 16.875  3 16.875  L 12 16.875  C 12.1525 16.875  12.284 16.8195  12.3955 16.708  C 12.507 16.5965  12.5625 16.465  12.5625 16.3125  Z M 5.8125 5.625  L 5.8125 14.625  L 4.6875 14.625  L 4.6875 5.625  L 5.8125 5.625  Z M 5.8125 1.125  L 5.8125 2.25  L 9.1875 2.25  L 9.1875 1.125  L 5.8125 1.125  Z M 8.0625 5.625  L 8.0625 14.625  L 6.9375 14.625  L 6.9375 5.625  L 8.0625 5.625  Z M 10.3125 5.625  L 10.3125 14.625  L 9.1875 14.625  L 9.1875 5.625  L 10.3125 5.625  Z " fill-rule="nonzero" fill="#333333" stroke="none" transform="matrix(1 0 0 1 305 221 )" />
  </g>
</svg>