<?xml version="1.0" encoding="utf-8"?>
<svg version="1.1" xmlns:xlink="http://www.w3.org/1999/xlink" width="18px" height="18px" xmlns="http://www.w3.org/2000/svg">
  <g transform="matrix(1 0 0 1 -277 -221 )">
    <path d="M 2.48676923076923 17.7618461538462  C 2.28738461538462 17.8283076923077  2.088 17.8615384615385  1.88861538461538 17.8615384615385  C 1.32369230769231 17.8615384615385  0.792 17.5846153846154  0.459692307692308 17.1304615384615  C 0.249230769230769 16.8313846153846  0.138461538461538 16.4769230769231  0.138461538461538 16.1113846153846  C 0.138461538461538 15.912  0.171692307692308 15.7126153846154  0.238153846153846 15.5132307692308  L 1.78892307692308 10.9938461538462  C 1.89969230769231 10.6947692307692  2.02153846153846 10.4953846153846  2.24307692307692 10.2738461538462  L 11.5698461538462 0.947076923076923  C 12.0904615384615 0.426461538461539  12.7772307692308 0.138461538461539  13.5193846153846 0.138461538461539  C 14.2615384615385 0.138461538461539  14.9593846153846 0.426461538461539  15.4910769230769 0.958153846153846  L 17.0418461538462 2.50892307692308  C 17.5846153846154 3.05169230769231  17.8615384615385 3.77169230769231  17.8615384615385 4.48061538461539  C 17.8615384615385 5.18953846153846  17.5846153846154 5.89846153846154  17.0529230769231 6.43015384615385  L 7.71507692307692 15.768  C 7.49353846153846 15.9895384615385  7.29415384615385 16.1113846153846  6.99507692307692 16.2221538461538  L 2.48676923076923 17.7618461538462  Z M 11.6695384615385 3.19569230769231  L 14.7932307692308 6.33046153846154  L 15.8676923076923 5.256  C 16.0892307692308 5.03446153846154  16.1889230769231 4.75753846153846  16.1889230769231 4.46953846153846  C 16.1889230769231 4.18153846153846  16.0892307692308 3.89353846153846  15.8676923076923 3.68307692307692  L 14.3169230769231 2.13230769230769  C 14.0843076923077 1.91076923076923  13.8073846153846 1.8  13.5193846153846 1.8  C 13.2313846153846 1.8  12.9544615384615 1.91076923076923  12.744 2.12123076923077  L 11.6695384615385 3.19569230769231  Z M 4.73538461538462 10.5175384615385  L 7.47138461538461 13.2646153846154  C 7.59323076923077 13.3864615384615  7.73723076923077 13.3864615384615  7.85907692307692 13.2646153846154  L 13.6190769230769 7.50461538461538  L 10.4953846153846 4.36984615384615  L 4.73538461538462 10.1298461538462  C 4.61353846153846 10.2516923076923  4.61353846153846 10.3956923076923  4.73538461538462 10.5175384615385  Z M 1.88861538461538 15.8455384615385  C 1.81107692307692 16.0670769230769  1.93292307692308 16.1889230769231  2.15446153846154 16.1113846153846  L 6.14215384615385 14.7489230769231  C 6.34153846153846 14.6713846153846  6.37476923076923 14.5163076923077  6.23076923076923 14.3723076923077  L 3.62769230769231 11.7581538461538  C 3.48369230769231 11.6141538461538  3.32861538461538 11.6473846153846  3.25107692307692 11.8467692307692  L 1.88861538461538 15.8455384615385  Z " fill-rule="nonzero" fill="#333333" stroke="none" transform="matrix(1 0 0 1 277 221 )" />
  </g>
</svg>