<?xml version="1.0" encoding="utf-8"?>
<svg version="1.1" xmlns:xlink="http://www.w3.org/1999/xlink" width="176px" height="176px" xmlns="http://www.w3.org/2000/svg">
  <g transform="matrix(1 0 0 1 -281 -576 )">
    <path d="M 369 576  C 418.28 576  457 614.72  457 664  C 457 713.28  418.28 752  369 752  C 319.72 752  281 713.28  281 664  C 281 614.72  319.72 576  369 576  Z " fill-rule="nonzero" fill="#ffffff" stroke="none" />
    <path d="M 369 576.5  C 418 576.5  456.5 615  456.5 664  C 456.5 713  418 751.5  369 751.5  C 320 751.5  281.5 713  281.5 664  C 281.5 615  320 576.5  369 576.5  Z " stroke-width="1" stroke="#797979" fill="none" />
  </g>
</svg>