<?xml version="1.0" encoding="utf-8"?>
<svg version="1.1" xmlns:xlink="http://www.w3.org/1999/xlink" width="152px" height="152px" xmlns="http://www.w3.org/2000/svg">
  <g transform="matrix(1 0 0 1 -725 -566 )">
    <path d="M 801 566  C 843.56 566  877 599.44  877 642  C 877 684.56  843.56 718  801 718  C 758.44 718  725 684.56  725 642  C 725 599.44  758.44 566  801 566  Z " fill-rule="nonzero" fill="#ffffff" stroke="none" />
    <path d="M 801 566.5  C 843.28 566.5  876.5 599.72  876.5 642  C 876.5 684.28  843.28 717.5  801 717.5  C 758.72 717.5  725.5 684.28  725.5 642  C 725.5 599.72  758.72 566.5  801 566.5  Z " stroke-width="1" stroke="#797979" fill="none" />
  </g>
</svg>