<?xml version="1.0" encoding="utf-8"?>
<svg version="1.1" xmlns:xlink="http://www.w3.org/1999/xlink" width="152px" height="152px" xmlns="http://www.w3.org/2000/svg">
  <g transform="matrix(1 0 0 1 -725 -523 )">
    <path d="M 801 523  C 843.56 523  877 556.44  877 599  C 877 641.56  843.56 675  801 675  C 758.44 675  725 641.56  725 599  C 725 556.44  758.44 523  801 523  Z " fill-rule="nonzero" fill="#ffffff" stroke="none" />
    <path d="M 801 523.5  C 843.28 523.5  876.5 556.72  876.5 599  C 876.5 641.28  843.28 674.5  801 674.5  C 758.72 674.5  725.5 641.28  725.5 599  C 725.5 556.72  758.72 523.5  801 523.5  Z " stroke-width="1" stroke="#797979" fill="none" />
  </g>
</svg>