<?xml version="1.0" encoding="utf-8"?>
<svg version="1.1" xmlns:xlink="http://www.w3.org/1999/xlink" width="176px" height="176px" xmlns="http://www.w3.org/2000/svg">
  <g transform="matrix(1 0 0 1 -281 -598 )">
    <path d="M 369 598  C 418.28 598  457 636.72  457 686  C 457 735.28  418.28 774  369 774  C 319.72 774  281 735.28  281 686  C 281 636.72  319.72 598  369 598  Z " fill-rule="nonzero" fill="#ffffff" stroke="none" />
    <path d="M 369 598.5  C 418 598.5  456.5 637  456.5 686  C 456.5 735  418 773.5  369 773.5  C 320 773.5  281.5 735  281.5 686  C 281.5 637  320 598.5  369 598.5  Z " stroke-width="1" stroke="#797979" fill="none" />
  </g>
</svg>