<?xml version="1.0" encoding="utf-8"?>
<svg version="1.1" xmlns:xlink="http://www.w3.org/1999/xlink" width="152px" height="152px" xmlns="http://www.w3.org/2000/svg">
  <g transform="matrix(1 0 0 1 -725 -588 )">
    <path d="M 801 588  C 843.56 588  877 621.44  877 664  C 877 706.56  843.56 740  801 740  C 758.44 740  725 706.56  725 664  C 725 621.44  758.44 588  801 588  Z " fill-rule="nonzero" fill="#ffffff" stroke="none" />
    <path d="M 801 588.5  C 843.28 588.5  876.5 621.72  876.5 664  C 876.5 706.28  843.28 739.5  801 739.5  C 758.72 739.5  725.5 706.28  725.5 664  C 725.5 621.72  758.72 588.5  801 588.5  Z " stroke-width="1" stroke="#797979" fill="none" />
  </g>
</svg>