<?xml version="1.0" encoding="utf-8"?>
<svg version="1.1" xmlns:xlink="http://www.w3.org/1999/xlink" width="13px" height="13px" xmlns="http://www.w3.org/2000/svg">
  <g transform="matrix(1 0 0 1 -728 -509 )">
    <path d="M 4.90035292505112 12.998142714494  C 4.87892354802369 13  4.85944229618058 13  4.83801291915315 13  C 4.41429569156537 13  4.01298190359718 12.8114855211433  3.75582937926805 12.4864605575972  L 0.275503737495357 8.10233812073669  C -0.177435367857093 7.53308011315452  -0.0595737942062407 6.72237498979524  0.538500637377425 6.29055610965541  C 1.13754913155324 5.85687994400961  1.98790577450526 5.97110300262724  2.44084487985771 6.5412896529624  L 4.73086603401601 9.42379675823986  L 10.488550016249 0.609119746869501  C 10.8849934912564 0.00364467192075747  11.7226873205104 -0.182083878677018  12.3597242557803 0.195873721789454  C 12.995787128458 0.572902679502935  13.1915737094813 1.37153544707336  12.7941561718818 1.97886780752808  L 5.99130302826562 12.3889530685333  C 5.75557988096392 12.752052384952  5.34744765485064 12.9786412166813  4.90035292505112 12.998142714494  Z " fill-rule="nonzero" fill="#000000" stroke="none" transform="matrix(1 0 0 1 728 509 )" />
  </g>
</svg>