<?xml version="1.0" encoding="utf-8"?>
<svg version="1.1" xmlns:xlink="http://www.w3.org/1999/xlink" width="40px" height="40px" xmlns="http://www.w3.org/2000/svg">
  <defs>
    <filter x="117px" y="665px" width="40px" height="40px" filterUnits="userSpaceOnUse" id="filter82">
      <feOffset dx="5" dy="5" in="SourceAlpha" result="shadowOffsetInner" />
      <feGaussianBlur stdDeviation="2.5" in="shadowOffsetInner" result="shadowGaussian" />
      <feComposite in2="shadowGaussian" operator="atop" in="SourceAlpha" result="shadowComposite" />
      <feColorMatrix type="matrix" values="0 0 0 0 0  0 0 0 0 0  0 0 0 0 0  0 0 0 0.349019607843137 0  " in="shadowComposite" />
    </filter>
    <g id="widget83">
      <path d="M 132 666  C 139.84 666  146 672.16  146 680  C 146 687.84  139.84 694  132 694  C 124.16 694  118 687.84  118 680  C 118 672.16  124.16 666  132 666  Z " fill-rule="nonzero" fill="#ff3366" stroke="none" />
      <path d="M 132 666  C 139.84 666  146 672.16  146 680  C 146 687.84  139.84 694  132 694  C 124.16 694  118 687.84  118 680  C 118 672.16  124.16 666  132 666  Z " stroke-width="2" stroke="#ffffff" fill="none" />
    </g>
  </defs>
  <g transform="matrix(1 0 0 1 -117 -665 )">
    <use xlink:href="#widget83" filter="url(#filter82)" />
    <use xlink:href="#widget83" />
  </g>
</svg>