<?xml version="1.0" encoding="utf-8"?>
<svg version="1.1" xmlns:xlink="http://www.w3.org/1999/xlink" width="200px" height="200px" xmlns="http://www.w3.org/2000/svg">
  <defs>
    <mask fill="white" id="clip84">
      <path d="M 148 547  C 131.35 547  118 533.65  118 517  L 118 377  C 118 360.35  131.35 347  148 347  L 288 347  C 304.65 347  318 360.35  318 377  L 318 517  C 318 533.65  304.65 547  288 547  " fill-rule="evenodd" />
    </mask>
  </defs>
  <g transform="matrix(1 0 0 1 -118 -347 )">
    <path d="M 118 347  L 318 347  L 318 547  L 118 547  L 118 347  " fill-rule="nonzero" fill="#cccccc" stroke="none" mask="url(#clip84)" />
    <path d="M 132 361  L 304 361  L 304 533  L 132 533  L 132 361  " fill-rule="nonzero" fill="#ffffff" stroke="none" mask="url(#clip84)" />
    <path d="M 237 407  C 228.6 407  222 400.4  222 392  C 222 383.6  228.6 377  237 377  C 245.4 377  252 383.6  252 392  C 252 400.4  245.4 407  237 407  " fill-rule="nonzero" fill="#cccccc" stroke="none" mask="url(#clip84)" />
    <path d="M 137 528  L 137 438.9  L 177.5 398.4  L 234.2 430.8  L 266.6 422.7  L 299 430.8  L 299 528  L 137 528  " fill-rule="nonzero" fill="#169bd5" stroke="none" mask="url(#clip84)" />
  </g>
</svg>