<?xml version="1.0" encoding="utf-8"?>
<svg version="1.1" xmlns:xlink="http://www.w3.org/1999/xlink" width="124px" height="124px" xmlns="http://www.w3.org/2000/svg">
  <g transform="matrix(1 0 0 1 -653 -384 )">
    <path d="M 124 62  C 124 27.75  96.25 0  62 0  C 27.75 0  0 27.75  0 62  C 0 96.25  27.75 124  62 124  C 96.25 124  124 96.25  124 62  Z M 112 62  C 112 89.575  89.575 112  62 112  C 34.425 112  12 89.575  12 62  C 12 34.425  34.425 12  62 12  C 89.575 12  112 34.425  112 62  Z M 34 50  C 34 54.425  37.575 58  42 58  C 46.425 58  50 54.425  50 50  C 50 45.575  46.425 42  42 42  C 37.575 42  34 45.575  34 50  Z M 74 50  C 74 54.425  77.575 58  82 58  C 86.425 58  90 54.425  90 50  C 90 45.575  86.425 42  82 42  C 77.575 42  74 45.575  74 50  Z M 91.45 75.375  C 88.925 73.275  85.125 73.6  83 76.15  C 77.8 82.4  70.125 86  62 86  C 53.875 86  46.2 82.425  41 76.15  C 38.875 73.6  35.075 73.275  32.55 75.375  C 30 77.5  29.675 81.275  31.775 83.825  C 39.275 92.825  50.3 97.975  62 97.975  C 73.7 97.975  84.725 92.825  92.225 83.825  C 94.35 81.275  94 77.5  91.45 75.375  Z " fill-rule="nonzero" fill="#333333" stroke="none" transform="matrix(1 0 0 1 653 384 )" />
  </g>
</svg>