<?xml version="1.0" encoding="utf-8"?>
<svg version="1.1" xmlns:xlink="http://www.w3.org/1999/xlink" width="28px" height="28px" viewBox="252 451  28 28" xmlns="http://www.w3.org/2000/svg">
  <path d="M 266 451  C 273.84 451  280 457.16  280 465  C 280 472.84  273.84 479  266 479  C 258.16 479  252 472.84  252 465  C 252 457.16  258.16 451  266 451  Z " fill-rule="nonzero" fill="#ffffff" stroke="none" />
  <path d="M 266 451.5  C 273.56 451.5  279.5 457.44  279.5 465  C 279.5 472.56  273.56 478.5  266 478.5  C 258.44 478.5  252.5 472.56  252.5 465  C 252.5 457.44  258.44 451.5  266 451.5  Z " stroke-width="1" stroke="#797979" fill="none" />
  <path d="M 266 472  C 262.08 472  259 468.92  259 465  C 259 461.08  262.08 458  266 458  C 269.92 458  273 461.08  273 465  C 273 468.92  269.92 472  266 472  " fill-rule="nonzero" fill="#797979" stroke="none" />
</svg>