<?xml version="1.0" encoding="utf-8"?>
<svg version="1.1" xmlns:xlink="http://www.w3.org/1999/xlink" width="28px" height="28px" viewBox="253 451  28 28" xmlns="http://www.w3.org/2000/svg">
  <path d="M 267 451  C 274.84 451  281 457.16  281 465  C 281 472.84  274.84 479  267 479  C 259.16 479  253 472.84  253 465  C 253 457.16  259.16 451  267 451  Z " fill-rule="nonzero" fill="#f0f0f0" stroke="none" />
  <path d="M 267 451.5  C 274.56 451.5  280.5 457.44  280.5 465  C 280.5 472.56  274.56 478.5  267 478.5  C 259.44 478.5  253.5 472.56  253.5 465  C 253.5 457.44  259.44 451.5  267 451.5  Z " stroke-width="1" stroke="#797979" fill="none" />
  <path d="M 267 472  C 263.08 472  260 468.92  260 465  C 260 461.08  263.08 458  267 458  C 270.92 458  274 461.08  274 465  C 274 468.92  270.92 472  267 472  " fill-rule="nonzero" fill="#797979" stroke="none" />
</svg>