<?xml version="1.0" encoding="utf-8"?>
<svg version="1.1" xmlns:xlink="http://www.w3.org/1999/xlink" width="28px" height="28px" viewBox="102 451  28 28" xmlns="http://www.w3.org/2000/svg">
  <path d="M 116 451  C 123.84 451  130 457.16  130 465  C 130 472.84  123.84 479  116 479  C 108.16 479  102 472.84  102 465  C 102 457.16  108.16 451  116 451  Z " fill-rule="nonzero" fill="#f0f0f0" stroke="none" />
  <path d="M 116 451.5  C 123.56 451.5  129.5 457.44  129.5 465  C 129.5 472.56  123.56 478.5  116 478.5  C 108.44 478.5  102.5 472.56  102.5 465  C 102.5 457.44  108.44 451.5  116 451.5  Z " stroke-width="1" stroke="#797979" fill="none" />
  <path d="M 116 472  C 112.08 472  109 468.92  109 465  C 109 461.08  112.08 458  116 458  C 119.92 458  123 461.08  123 465  C 123 468.92  119.92 472  116 472  " fill-rule="nonzero" fill="#797979" stroke="none" />
</svg>