<?xml version="1.0" encoding="utf-8"?>
<svg version="1.1" xmlns:xlink="http://www.w3.org/1999/xlink" width="28px" height="28px" viewBox="402 451  28 28" xmlns="http://www.w3.org/2000/svg">
  <path d="M 416 451  C 423.84 451  430 457.16  430 465  C 430 472.84  423.84 479  416 479  C 408.16 479  402 472.84  402 465  C 402 457.16  408.16 451  416 451  Z " fill-rule="nonzero" fill="#ffffff" stroke="none" />
  <path d="M 416 451.5  C 423.56 451.5  429.5 457.44  429.5 465  C 429.5 472.56  423.56 478.5  416 478.5  C 408.44 478.5  402.5 472.56  402.5 465  C 402.5 457.44  408.44 451.5  416 451.5  Z " stroke-width="1" stroke="#797979" fill="none" />
  <path d="M 416 472  C 412.08 472  409 468.92  409 465  C 409 461.08  412.08 458  416 458  C 419.92 458  423 461.08  423 465  C 423 468.92  419.92 472  416 472  " fill-rule="nonzero" fill="#797979" stroke="none" />
</svg>