<?xml version="1.0" encoding="utf-8"?>
<svg version="1.1" xmlns:xlink="http://www.w3.org/1999/xlink" width="30px" height="30px" xmlns="http://www.w3.org/2000/svg">
  <g transform="matrix(1 0 0 1 -1300 -13 )">
    <path d="M 29.7038079236543 18.945  L 26.4508553974251 16.4625  C 26.5125227438939 15.9825  26.5587732537455 15.495  26.5587732537455 15  C 26.5587732537455 14.505  26.5125227438939 14.0175  26.4508553974251 13.5375  L 29.7115163419629 11.055  C 30.0044362376897 10.83  30.0892288390843 10.425  29.8965183813693 10.095  L 26.8131510579293 4.8975  C 26.6204406002143 4.575  26.2196028481672 4.44  25.8727240242802 4.575  L 22.0339317065974 6.0825  C 21.2399646208116 5.49  20.3689133519398 4.9875  19.4284863182906 4.605  L 18.8503549451456 0.63  C 18.7809791803682 0.2775  18.4649340297157 0  18.0795131142857 0  L 11.9127784674057 0  C 11.5273575519757 0  11.2113124013231 0.2775  11.1496450548544 0.63  L 10.5715136817094 4.605  C 9.63108664806017 4.9875  8.76003537918838 5.4825  7.96606829340259 6.0825  L 4.12727597571984 4.575  C 3.78039715183285 4.4475  3.37955939978565 4.575  3.18684894207065 4.8975  L 0.103481618630694 10.095  C -0.0892288390843036 10.4175  -0.00443623768970443 10.8225  0.288483658037092 11.055  L 3.54143618426625 13.5375  C 3.47976883779745 14.0175  3.43351832794585 14.505  3.43351832794585 15  C 3.43351832794585 15.495  3.47976883779745 15.9825  3.54143618426625 16.4625  L 0.288483658037092 18.945  C -0.00443623768970378 19.17  -0.0892288390843029 19.575  0.103481618630695 19.905  L 3.18684894207065 25.1025  C 3.37955939978565 25.425  3.78039715183284 25.56  4.12727597571984 25.425  L 7.96606829340259 23.9175  C 8.76003537918838 24.51  9.63108664806017 25.0125  10.5715136817094 25.395  L 11.1496450548544 29.37  C 11.2113124013231 29.7225  11.5273575519757 30  11.9127784674057 30  L 18.0795131142857 30  C 18.4649340297157 30  18.7809791803682 29.7225  18.842646526837 29.37  L 19.420777899982 25.395  C 20.3612049336312 25.0125  21.232256202503 24.5175  22.0262232882888 23.9175  L 25.8650156059715 25.425  C 26.2118944298585 25.5525  26.6127321819057 25.425  26.8054426396207 25.1025  L 29.8888099630607 19.905  C 30.0815204207757 19.5825  29.9967278193811 19.1775  29.7038079236543 18.945  Z M 20.3920386068656 15  C 20.3920386068656 17.9025  17.9793036762739 20.25  14.9961457908457 20.25  C 12.0129879054175 20.25  9.60025297482577 17.9025  9.60025297482577 15  C 9.60025297482577 12.0975  12.0129879054175 9.75  14.9961457908457 9.75  C 17.9793036762739 9.75  20.3920386068656 12.0975  20.3920386068656 15  Z " fill-rule="nonzero" fill="#333333" stroke="none" transform="matrix(1 0 0 1 1300 13 )" />
  </g>
</svg>