<?xml version="1.0" encoding="utf-8"?>
<svg version="1.1" xmlns:xlink="http://www.w3.org/1999/xlink" width="50px" height="50px" xmlns="http://www.w3.org/2000/svg">
  <g transform="matrix(1 0 0 1 -364 274 )">
    <path d="M 48.623046875 7.23196881091618  C 50.458984375 9.05458089668616  50.458984375 12.0175438596491  48.623046875 13.8499025341131  L 44.12109375 18.3430799220273  C 43.662109375 18.8011695906433  42.919921875 18.8011695906433  42.4609375 18.3430799220273  L 31.62109375 7.52436647173489  C 31.162109375 7.06627680311891  31.162109375 6.32553606237817  31.62109375 5.86744639376218  L 36.123046875 1.37426900584795  C 37.94921875 -0.448343079922028  40.91796875 -0.448343079922028  42.75390625 1.37426900584795  L 48.623046875 7.23196881091618  Z M 29.423828125 9.7270955165692  C 28.955078125 9.26900584795321  28.212890625 9.26900584795321  27.75390625 9.7270955165692  L 2.109375 35.3216374269006  L 0.0390625 47.1637426900585  C -0.244140625 48.7621832358674  1.15234375 50.1461988304094  2.75390625 49.8732943469786  L 14.619140625 47.7972709551657  L 40.263671875 22.2027290448343  C 40.72265625 21.7446393762183  40.72265625 21.0038986354776  40.263671875 20.5458089668616  L 29.423828125 9.7270955165692  Z M 14.052734375 33.1286549707602  C 13.515625 33.6647173489279  12.65625 33.6647173489279  12.119140625 33.1286549707602  C 11.58203125 32.5925925925926  11.58203125 31.7348927875244  12.119140625 31.1988304093567  L 27.158203125 16.1890838206628  C 27.6953125 15.6530214424951  28.5546875 15.6530214424951  29.091796875 16.1890838206628  C 29.62890625 16.7251461988304  29.62890625 17.5828460038986  29.091796875 18.1189083820663  L 14.052734375 33.1286549707602  Z M 8.59375 36.6471734892788  L 8.59375 41.3255360623782  L 13.28125 41.3255360623782  L 13.28125 44.8635477582846  L 6.982421875 45.9649122807018  L 3.9453125 42.9337231968811  L 5.048828125 36.6471734892788  L 8.59375 36.6471734892788  Z " fill-rule="nonzero" fill="#000000" stroke="none" transform="matrix(1 0 0 1 364 -274 )" />
  </g>
</svg>