<?xml version="1.0" encoding="utf-8"?>
<svg version="1.1" xmlns:xlink="http://www.w3.org/1999/xlink" width="48px" height="50px" xmlns="http://www.w3.org/2000/svg">
  <g transform="matrix(1 0 0 1 -652 264 )">
    <path d="M 14.5 9  L 14.5 4.5  L 14 4.5  C 14.275 4.5  14.5 4.275  14.5 4  L 14.5 5  L 33.5 5  L 33.5 4  C 33.5 4.275  33.725 4.5  34 4.5  L 33.5 4.5  L 33.5 9  L 38 9  L 38 4  C 38 1.79375  36.20625 0  34 0  L 14 0  C 11.79375 0  10 1.79375  10 4  L 10 9  L 14.5 9  Z M 48 11  C 48 9.89375  47.10625 9  46 9  L 2 9  C 0.893750000000001 9  0 9.89375  0 11  L 0 13  C 0 13.275  0.225 13.5  0.5 13.5  L 4.275 13.5  L 5.81875 46.1875  C 5.91875 48.31875  7.68125 50  9.8125 50  L 38.1875 50  C 40.325 50  42.08125 48.325  42.18125 46.1875  L 43.725 13.5  L 47.5 13.5  C 47.775 13.5  48 13.275  48 13  L 48 11  Z M 39.21875 14  L 37.70625 45  L 10.29375 45  L 8.78125 14  L 39.21875 14  Z " fill-rule="nonzero" fill="#000000" stroke="none" transform="matrix(1 0 0 1 652 -264 )" />
  </g>
</svg>