<?xml version="1.0" encoding="utf-8"?>
<svg version="1.1" xmlns:xlink="http://www.w3.org/1999/xlink" width="50px" height="39px" xmlns="http://www.w3.org/2000/svg">
  <g transform="matrix(1 0 0 1 132 -696 )">
    <path d="M 0 1.39285714285711  C 0 0.623564732142881  0.620710571923752 0  1.38648180242635 0  L 26.3431542461005 0  C 27.1089254766031 0  27.7296360485269 0.623564732142881  27.7296360485269 1.39285714285711  L 27.7296360485269 9.75  C 27.7296360485269 10.5192924107142  27.1089254766031 11.1428571428571  26.3431542461005 11.1428571428571  L 23.2672443674177 11.1428571428571  C 22.5014731369151 11.1428571428571  21.8807625649913 10.5192924107142  21.8807625649913 9.75  L 21.8807625649913 5.57142857142856  L 18 5.57142857142856  L 18 33.4285714285714  L 20.103986135182 33.4285714285714  C 20.8697573656846 33.4285714285714  21.4904679376083 34.0521361607143  21.4904679376083 34.8214285714286  L 21.4904679376083 37.6071428571429  C 21.4904679376083 38.3764352678571  20.8697573656846 39  20.103986135182 39  L 7.62564991334489 39  C 6.85987868284229 39  6.23916811091854 38.3764352678571  6.23916811091854 37.6071428571429  L 6.23916811091854 34.8214285714286  C 6.23916811091854 34.0521361607143  6.85987868284229 33.4285714285714  7.62564991334489 33.4285714285714  L 11 33.4285714285714  L 11 5.57142857142856  L 5.84887348353553 5.57142857142856  L 5.84887348353553 9.75  C 5.84887348353553 10.5192924107142  5.22816291161179 11.1428571428571  4.46239168110918 11.1428571428571  L 1.38648180242635 11.1428571428571  C 0.620710571923752 11.1428571428571  0 10.5192924107142  0 9.75  L 0 1.39285714285711  Z M 40.613691507799 0.407845982142817  C 41.1550259965338 -0.136064732142813  42.0331889081456 -0.135803571428596  42.5743500866551 0.407845982142817  L 45.9967225431358 3.84621311485546  L 49.5063258232236 7.37221875  C 50.373396880416 8.24336383928573  49.7657712305026 9.75  48.5259965337955 9.75  L 44 9.75  L 44 20.0425531914894  L 44.367417677643 29.25  L 48.526863084922 29.25  C 49.8820623916811 29.25  50.3149913344887 30.8161808035715  49.5071923743501 31.62778125  L 42.5752166377816 38.5921540178572  C 42.0338821490468 39.1359776785714  41.155719237435 39.1358035714286  40.6145580589255 38.5921540178572  L 33.682582322357 31.62778125  C 32.8155112651646 30.7566361607143  33.423136915078 29.25  34.6629116117851 29.25  L 38.8214904679376 29.25  L 38.8214904679376 20.0425531914894  L 38.8214904679376 17.9148936170213  L 38.8214904679376 13.1276595744681  L 38.8214904679376 10.468085106383  L 38.8214904679376 9.75  L 34.6620450606586 9.75  C 33.3068457538995 9.75  32.8739168110919 8.18381919642854  33.6817157712305 7.37221875  L 40.613691507799 0.407845982142817  Z " fill-rule="nonzero" fill="#000000" stroke="none" transform="matrix(1 0 0 1 -132 696 )" />
  </g>
</svg>