<?xml version="1.0" encoding="utf-8"?>
<svg version="1.1" xmlns:xlink="http://www.w3.org/1999/xlink" width="50px" height="44px" xmlns="http://www.w3.org/2000/svg">
  <g transform="matrix(1 0 0 1 -441 271 )">
    <path d="M 34.783918128655 37  L 48.6297270955166 23.807135857461  C 50.4567251461988 21.9702093541203  50.4567251461988 18.9919287305122  48.6297270955166 17.1550022271715  L 33.0351851851852 1.47571492204899  C 31.2081871345029 -0.361211581291763  28.2461013645224 -0.361309576837419  26.4189083820663 1.47571492204899  L 1.46764132553606 26.562574610245  C -0.3593567251462 28.3995011135857  -0.3593567251462 31.3777817371938  1.46764132553606 33.2147082405345  L 10.8243664717349 42.622280623608  C 11.7017727870633 43.5044006547504  12.8917519339991 43.9999764071427  14.1325536062378 44  L 48.8304093567251 44  C 49.4763157894737 44  50 43.4734699331849  50 42.8240534521158  L 50 38.9042316258352  C 50 38.2548151447661  49.4763157894737 37.728285077951  48.8304093567251 37  L 34.783918128655 37  Z M 6.9812865497076 29.8886414253898  L 19.133918128655 17.6699688195991  L 32.5230994152047 31.1319109131403  L 25.9622807017544 37  L 14.7785575048733 37  L 6.9812865497076 29.8886414253898  Z " fill-rule="nonzero" fill="#000000" stroke="none" transform="matrix(1 0 0 1 441 -271 )" />
  </g>
</svg>