<?xml version="1.0" encoding="utf-8"?>
<svg version="1.1" xmlns:xlink="http://www.w3.org/1999/xlink" width="44px" height="45px" xmlns="http://www.w3.org/2000/svg">
  <g transform="matrix(1 0 0 1 -567 272 )">
    <path d="M 43 10.125  C 43.5625 7.91875  41.76875 6.125  39.5625 7  L 12.875 7  L 12.875 1.5  C 12.875 1.08125  12.39375 0.85  12.06875 1.10625  L 3.19375 8.10625  C 3.07265882213621 8.20101859316683  3.00190732589053 8.34623342493487  3.00190732589053 8.5  C 3.00190732589053 8.65376657506513  3.07265882213621 8.79898140683317  3.19375 8.89375  L 12.06875 15.89375  C 12.39375 16.15  12.875 15.91875  12.875 15.5  L 12.875 11  L 38 11  L 38 40  L 0.9375 40  C 0.6625 40.25  0.4375 40.475  0.4375 40.75  L 0.4375 44.5  C 0.4375 44.775  0.6625 45  0.9375 45  L 39.5625 45  C 41.76875 45  43.5625 43.20625  43 41  L 43 10.125  Z " fill-rule="nonzero" fill="#000000" stroke="none" transform="matrix(1 0 0 1 567 -272 )" />
  </g>
</svg>