<?xml version="1.0" encoding="utf-8"?>
<svg version="1.1" xmlns:xlink="http://www.w3.org/1999/xlink" width="39px" height="39px" xmlns="http://www.w3.org/2000/svg">
  <g transform="matrix(1 0 0 1 -1076 -481 )">
    <path d="M 1095.5 482  C 1105.86 482  1114 490.14  1114 500.5  C 1114 510.86  1105.86 519  1095.5 519  C 1085.14 519  1077 510.86  1077 500.5  C 1077 490.14  1085.14 482  1095.5 482  Z " fill-rule="nonzero" fill="#ffffff" stroke="none" fill-opacity="0" />
    <path d="M 1095.5 482  C 1105.86 482  1114 490.14  1114 500.5  C 1114 510.86  1105.86 519  1095.5 519  C 1085.14 519  1077 510.86  1077 500.5  C 1077 490.14  1085.14 482  1095.5 482  Z " stroke-width="2" stroke="#d9001b" fill="none" />
  </g>
</svg>