<?xml version="1.0" encoding="utf-8"?>
<svg version="1.1" xmlns:xlink="http://www.w3.org/1999/xlink" width="17px" height="10px" xmlns="http://www.w3.org/2000/svg">
  <defs>
    <mask fill="white" id="clip29">
      <path d="M 16.95 8.7  L 8.94999999999999 0.600000000000002  L 0.949999999999989 8.8  L 1.44999999999999 9.4  L 8.94999999999999 1.7  L 16.45 9.2  L 16.95 8.7  Z " fill-rule="evenodd" />
    </mask>
  </defs>
  <g transform="matrix(1 0 0 1 -12 -10 )">
    <path d="M 16.95 8.7  L 8.94999999999999 0.600000000000002  L 0.949999999999989 8.8  L 1.44999999999999 9.4  L 8.94999999999999 1.7  L 16.45 9.2  L 16.95 8.7  Z " fill-rule="nonzero" fill="#ffffff" stroke="none" fill-opacity="0" transform="matrix(1 0 0 1 12 10 )" />
    <path d="M 16.95 8.7  L 8.94999999999999 0.600000000000002  L 0.949999999999989 8.8  L 1.44999999999999 9.4  L 8.94999999999999 1.7  L 16.45 9.2  L 16.95 8.7  Z " stroke-width="2" stroke="#777677" fill="none" transform="matrix(1 0 0 1 12 10 )" mask="url(#clip29)" />
  </g>
</svg>