<?xml version="1.0" encoding="utf-8"?>
<svg version="1.1" xmlns:xlink="http://www.w3.org/1999/xlink" width="17px" height="10px" xmlns="http://www.w3.org/2000/svg">
  <defs>
    <mask fill="white" id="clip24">
      <path d="M 16.95 1.3  L 8.94999999999999 9.4  L 0.949999999999989 1.2  L 1.44999999999999 0.599999999999999  L 8.94999999999999 8.3  L 16.45 0.800000000000001  L 16.95 1.3  Z " fill-rule="evenodd" />
    </mask>
  </defs>
  <g transform="matrix(1 0 0 1 -6 -10 )">
    <path d="M 16.95 1.3  L 8.94999999999999 9.4  L 0.949999999999989 1.2  L 1.44999999999999 0.599999999999999  L 8.94999999999999 8.3  L 16.45 0.800000000000001  L 16.95 1.3  Z " fill-rule="nonzero" fill="#ffffff" stroke="none" fill-opacity="0" transform="matrix(1 0 0 1 6 10 )" />
    <path d="M 16.95 1.3  L 8.94999999999999 9.4  L 0.949999999999989 1.2  L 1.44999999999999 0.599999999999999  L 8.94999999999999 8.3  L 16.45 0.800000000000001  L 16.95 1.3  Z " stroke-width="6" stroke="#333333" fill="none" transform="matrix(1 0 0 1 6 10 )" mask="url(#clip24)" />
  </g>
</svg>