<?xml version="1.0" encoding="utf-8"?>
<svg version="1.1" xmlns:xlink="http://www.w3.org/1999/xlink" width="94px" height="48px" xmlns="http://www.w3.org/2000/svg">
  <defs>
    <mask fill="white" id="clip21">
      <path d="M 0 46.2857142857143  C 0 20.3657142857143  20.68 0  47 0  C 73.32 0  94 20.3657142857143  94 46.2857142857143  C 94 46.3680588803373  0 46.4092547506502  0 46.2857142857143  Z " fill-rule="evenodd" />
    </mask>
  </defs>
  <g transform="matrix(1 0 0 1 -180 -66 )">
    <path d="M 0 46.2857142857143  C 0 20.3657142857143  20.68 0  47 0  C 73.32 0  94 20.3657142857143  94 46.2857142857143  C 94 46.3680588803373  0 46.4092547506502  0 46.2857142857143  Z " fill-rule="nonzero" fill="#d8dffb" stroke="none" transform="matrix(1 0 0 1 180 66 )" />
    <path d="M 0 46.2857142857143  C 0 20.3657142857143  20.68 0  47 0  C 73.32 0  94 20.3657142857143  94 46.2857142857143  C 94 46.3680588803373  0 46.4092547506502  0 46.2857142857143  Z " stroke-width="8" stroke="#333333" fill="none" transform="matrix(1 0 0 1 180 66 )" mask="url(#clip21)" />
  </g>
</svg>