<?xml version="1.0" encoding="utf-8"?>
<svg version="1.1" xmlns:xlink="http://www.w3.org/1999/xlink" width="7px" height="4px" xmlns="http://www.w3.org/2000/svg">
  <defs>
    <mask fill="white" id="clip28">
      <path d="M 4.35079452799507 0.183334979158855  C 2.03096276272203 0.430713628773848  -0.0459815163984039 1.22990279049097  -0.0459815163984039 1.22990279049097  C -0.0459815163984039 1.22990279049097  3.73426261760979 4.83903053158711  5.68674706972556 3.56108346902173  C 6.6077364521329 2.95827422532919  6.8971690284091 2.33645943098437  6.55459504636699 1.40819331297694  C 6.19359702668682 0.430003935198325  5.48999929774353 0.0618542141335718  4.35079452799507 0.183334979158855  Z " fill-rule="evenodd" />
    </mask>
  </defs>
  <g transform="matrix(1 0 0 1 -251 -83 )">
    <path d="M 4.35079452799507 0.183334979158855  C 2.03096276272203 0.430713628773848  -0.0459815163984039 1.22990279049097  -0.0459815163984039 1.22990279049097  C -0.0459815163984039 1.22990279049097  3.73426261760979 4.83903053158711  5.68674706972556 3.56108346902173  C 6.6077364521329 2.95827422532919  6.8971690284091 2.33645943098437  6.55459504636699 1.40819331297694  C 6.19359702668682 0.430003935198325  5.48999929774353 0.0618542141335718  4.35079452799507 0.183334979158855  Z " fill-rule="nonzero" fill="#333333" stroke="none" transform="matrix(1 0 0 1 251 83 )" />
    <path d="M 4.35079452799507 0.183334979158855  C 2.03096276272203 0.430713628773848  -0.0459815163984039 1.22990279049097  -0.0459815163984039 1.22990279049097  C -0.0459815163984039 1.22990279049097  3.73426261760979 4.83903053158711  5.68674706972556 3.56108346902173  C 6.6077364521329 2.95827422532919  6.8971690284091 2.33645943098437  6.55459504636699 1.40819331297694  C 6.19359702668682 0.430003935198325  5.48999929774353 0.0618542141335718  4.35079452799507 0.183334979158855  Z " stroke-width="2" stroke="#333333" fill="none" transform="matrix(1 0 0 1 251 83 )" mask="url(#clip28)" />
  </g>
</svg>