<?xml version="1.0" encoding="utf-8"?>
<svg version="1.1" xmlns:xlink="http://www.w3.org/1999/xlink" width="32px" height="32px" xmlns="http://www.w3.org/2000/svg">
  <g transform="matrix(1 0 0 1 -565 -294 )">
    <path d="M 581 296  C 588.84 296  595 302.16  595 310  C 595 317.84  588.84 324  581 324  C 573.16 324  567 317.84  567 310  C 567 302.16  573.16 296  581 296  Z " fill-rule="nonzero" fill="#c280ff" stroke="none" />
    <path d="M 581 295.5  C 589.12 295.5  595.5 301.88  595.5 310  C 595.5 318.12  589.12 324.5  581 324.5  C 572.88 324.5  566.5 318.12  566.5 310  C 566.5 301.88  572.88 295.5  581 295.5  Z " stroke-width="3" stroke="#c280ff" fill="none" />
  </g>
</svg>