<?xml version="1.0" encoding="utf-8"?>
<svg version="1.1" xmlns:xlink="http://www.w3.org/1999/xlink" width="32px" height="32px" xmlns="http://www.w3.org/2000/svg">
  <g transform="matrix(1 0 0 1 -365 -294 )">
    <path d="M 381 296  C 388.84 296  395 302.16  395 310  C 395 317.84  388.84 324  381 324  C 373.16 324  367 317.84  367 310  C 367 302.16  373.16 296  381 296  Z " fill-rule="nonzero" fill="#ffffff" stroke="none" />
    <path d="M 381 295.5  C 389.12 295.5  395.5 301.88  395.5 310  C 395.5 318.12  389.12 324.5  381 324.5  C 372.88 324.5  366.5 318.12  366.5 310  C 366.5 301.88  372.88 295.5  381 295.5  Z " stroke-width="3" stroke="#c280ff" fill="none" />
  </g>
</svg>