<?xml version="1.0" encoding="utf-8"?>
<svg version="1.1" xmlns:xlink="http://www.w3.org/1999/xlink" width="73px" height="73px" xmlns="http://www.w3.org/2000/svg">
  <g transform="matrix(1 0 0 1 -750 -45 )">
    <path d="M 786.5 45  C 806.94 45  823 61.06  823 81.5  C 823 101.94  806.94 118  786.5 118  C 766.06 118  750 101.94  750 81.5  C 750 61.06  766.06 45  786.5 45  Z " fill-rule="nonzero" fill="#ffffff" stroke="none" />
    <path d="M 786.5 45.5  C 806.66 45.5  822.5 61.34  822.5 81.5  C 822.5 101.66  806.66 117.5  786.5 117.5  C 766.34 117.5  750.5 101.66  750.5 81.5  C 750.5 61.34  766.34 45.5  786.5 45.5  Z " stroke-width="1" stroke="#797979" fill="none" />
  </g>
</svg>