<?xml version="1.0" encoding="utf-8"?>
<svg version="1.1" xmlns:xlink="http://www.w3.org/1999/xlink" width="45px" height="59px" xmlns="http://www.w3.org/2000/svg">
  <g transform="matrix(1 0 0 1 -1006 -1566 )">
    <path d="M 11.25 17.7896959459459  C 11.25 19.1107013610818  12.329313549515 20.1815878378378  13.6607142857143 20.1815878378378  C 14.9921150219136 20.1815878378378  16.0714285714286 19.1107013610818  16.0714285714286 17.7896959459459  C 16.0714285714286 16.4686905308101  14.9921150219136 15.3978040540541  13.6607142857143 15.3978040540541  C 12.329313549515 15.3978040540541  11.25 16.4686905308101  11.25 17.7896959459459  Z M 28.9285714285714 17.7896959459459  C 28.9285714285714 19.1107013610818  30.0078849780864 20.1815878378378  31.3392857142857 20.1815878378378  C 32.670686450485 20.1815878378378  33.75 19.1107013610818  33.75 17.7896959459459  C 33.75 16.4686905308101  32.670686450485 15.3978040540541  31.3392857142857 15.3978040540541  C 30.0078849780864 15.3978040540541  28.9285714285714 16.4686905308101  28.9285714285714 17.7896959459459  Z M 45 22.3243243243243  C 45 9.99611486486479  34.9252232142857 0  22.5 0  C 10.0747767857143 0  0 9.99611486486479  0 22.3243243243243  C 0 34.6525337837839  22.5 58.3071106821108  22.5 58.3071106821108  C 22.5 58.3071106821108  45 34.6525337837839  45 22.3243243243243  Z M 39.7165178571428 29.5398648648648  C 38.7794495133928 31.7431829251323  37.4180748838341 33.7439108934409  35.7087053571429 35.4298986486487  C 33.9910714285714 37.1341216216217  31.9921875 38.4695945945946  29.7672991071429 39.4064189189189  C 27.4720982142857 40.3731418918919  25.0262276785714 40.8614864864865  22.5 40.8614864864865  C 19.9737723214286 40.8614864864865  17.5279017857143 40.3731418918919  15.2276785714286 39.4064189189189  C 13.0061590201681 38.4755344383025  10.988249208025 37.1249687752384  9.28627232142855 35.4298986486487  C 7.56863839285718 33.7256756756756  6.22265624999998 31.7423986486487  5.27845982142859 29.5348817567568  C 4.30915178571425 27.2576013513514  3.81696428571429 24.8308277027027  3.81696428571429 22.3243243243243  C 3.81696428571429 19.817820945946  4.30915178571425 17.3910472972973  5.28348214285718 15.1087837837838  C 6.22169198560913 12.9046094302209  7.58288558669979 10.9024550700644  9.29129464285714 9.21376689189196  C 11.0089285714286 7.50954391891896  13.0078125 6.17407094594602  15.2327008928571 5.23724662162155  C 17.5279017857143 4.27550675675672  19.9737723214286 3.78716216216216  22.5 3.78716216216216  C 25.0262276785714 3.78716216216216  27.4720982142857 4.27550675675672  29.7723214285714 5.24222972972977  C 31.9938409798319 6.17311421034612  34.011750791975 7.52367987341024  35.7137276785714 9.21875  C 37.4313616071428 10.922972972973  38.77734375 12.90625  39.7215401785714 15.1137668918919  C 40.6908482142858 17.3910472972973  41.1830357142857 19.817820945946  41.1830357142857 22.3243243243243  C 41.1830357142857 24.8308277027027  40.6908482142858 27.2576013513514  39.7165178571428 29.5398648648648  Z M 30.1339285714286 23.370777027027  L 27.7181919642857 23.370777027027  C 27.5072544642858 23.370777027027  27.3264508928572 23.5302364864865  27.3113839285714 23.7395270270271  C 27.1205357142857 26.2061655405406  25.0362723214286 28.1545608108108  22.5 28.1545608108108  C 19.9637276785714 28.1545608108108  17.8744419642857 26.2061655405406  17.6886160714286 23.7395270270271  C 17.6735491071428 23.5302364864865  17.4927455357142 23.370777027027  17.2818080357143 23.370777027027  L 14.8660714285714 23.370777027027  C 14.6436687437054 23.3707767151732  14.4637831521196 23.5492577946325  14.4637831521196 23.7694253638219  C 14.4637831521196 23.7760727300804  14.4639507252427 23.7827190565175  14.4642857142857 23.7893581081082  C 14.6852678571428 27.9901182432433  18.2059151785714 31.34375  22.5 31.34375  C 26.7940848214286 31.34375  30.3147321428572 27.9901182432433  30.5357142857143 23.7893581081082  C 30.5360492747573 23.7827190565175  30.5362168478804 23.7760727300804  30.5362168478804 23.7694253638219  C 30.5362168478804 23.5492577946325  30.3563312562946 23.3707767151732  30.1344311335947 23.3707767151732  Z " fill-rule="nonzero" fill="#d9001b" stroke="none" transform="matrix(1 0 0 1 1006 1566 )" />
  </g>
</svg>