<?xml version="1.0" encoding="utf-8"?>
<svg version="1.1" xmlns:xlink="http://www.w3.org/1999/xlink" width="48px" height="50px" xmlns="http://www.w3.org/2000/svg">
  <g transform="matrix(1 0 0 1 -184 -3095 )">
    <path d="M 34.7710163771609 25.0166599897555  C 34.7668844804396 25.0166599897555  34.7627525840117 25.0166622153929  34.7586206896552 25.0166666666667  C 32.2649182049634 25.0190477277806  29.8385241972504 25.8315140227277  27.84 27.3333333333333  L 20.8551724137931 20.3  C 22.3642618909526 18.3022586753812  23.1785551926596 15.8599846432526  23.1724137931034 13.35  C 23.1724379377324 13.3402764536852  23.172450010061 13.3305528807734  23.172450010061 13.320829304064  C 23.172450010061 6.87750722270473  17.9851284908592 1.65416263739733  11.5862431135093 1.65416263739733  C 5.18735773615939 1.65416263739733  3.62169575506622E-05 6.87750722270473  3.62169575506622E-05 13.320829304064  C 3.62169575506622E-05 19.7641513854232  5.18735773615939 24.9874959707307  11.5862431135093 24.9874959707307  C 14.0860647847472 24.9874959707307  16.5188427296392 24.1733717510272  18.5213793103448 22.6666666666667  L 25.4896551724138 29.7  C 23.9933272121479 31.7164484723671  23.1848094806092 34.1661323913038  23.1848094806092 36.6833266564222  C 23.1848094806092 43.1266487377814  28.372130999811 48.3499933230888  34.7710163771609 48.3499933230888  C 41.1699017545108 48.3499933230888  46.3572232737126 43.1266487377814  46.3572232737126 36.6833266564222  C 46.3572232737126 30.2400045750629  41.1699017545108 25.0166599897555  34.7710163771609 25.0166599897555  Z M 3.31034482758621 13.35  C 3.31034482758621 8.74762708474339  7.01557448415895 5.01666666666667  11.5862068965517 5.01666666666667  C 16.1568393089445 5.01666666666667  19.8620689655172 8.74762708474339  19.8620689655172 13.35  C 19.8620689655172 17.9523729152566  16.1568393089445 21.6833333333333  11.5862068965517 21.6833333333333  C 7.01557448415895 21.6833333333333  3.31034482758621 17.9523729152566  3.31034482758621 13.35  Z " fill-rule="nonzero" fill="#ffffff" stroke="none" transform="matrix(1 0 0 1 184 3095 )" />
  </g>
</svg>