<?xml version="1.0" encoding="utf-8"?>
<svg version="1.1" xmlns:xlink="http://www.w3.org/1999/xlink" width="45px" height="57px" xmlns="http://www.w3.org/2000/svg">
  <g transform="matrix(1 0 0 1 -185 -2795 )">
    <path d="M 10.5 2  L 34.5 2  C 39.48 1.14  43.5 5.2136  43 10.26  L 43 46.74  C 43.5 51.7864  39.48 55.86  34.5 55  L 10.5 55  C 5.52 55.86  1.5 51.7864  2 46.74  L 2 10.26  C 1.5 5.2136  5.52 1.14  10.5 2  Z M 6 14  L 39 14  L 39 10.26  C 39 7.7368  36.99 5.7  34.5 6  L 10.5 6  C 8.01 5.7  6 7.7368  6 10.26  L 6 14  Z M 34.5 51  C 36.99 51.3  39 49.2632  39 46.74  L 39 18  L 6 18  L 6 46.74  C 6 49.2632  8.01 51.3  10.5 51  L 34.5 51  Z M 16.5 25.46  C 16.5 27.132  15.15 28.5  13.5 28.5  C 11.85 28.5  10.5 27.132  10.5 25.46  C 10.5 23.788  11.85 22.42  13.5 22.42  C 15.15 22.42  16.5 23.788  16.5 25.46  Z M 25.5 25.46  C 25.5 27.132  24.15 28.5  22.5 28.5  C 20.85 28.5  19.5 27.132  19.5 25.46  C 19.5 23.788  20.85 22.42  22.5 22.42  C 24.15 22.42  25.5 23.788  25.5 25.46  Z M 34.5 25.46  C 34.5 27.132  33.15 28.5  31.5 28.5  C 29.85 28.5  28.5 27.132  28.5 25.46  C 28.5 23.788  29.85 22.42  31.5 22.42  C 33.15 22.42  34.5 23.788  34.5 25.46  Z M 16.5 34.58  C 16.5 36.252  15.15 37.62  13.5 37.62  C 11.85 37.62  10.5 36.252  10.5 34.58  C 10.5 32.908  11.85 31.54  13.5 31.54  C 15.15 31.54  16.5 32.908  16.5 34.58  Z M 25.5 34.58  C 25.5 36.252  24.15 37.62  22.5 37.62  C 20.85 37.62  19.5 36.252  19.5 34.58  C 19.5 32.908  20.85 31.54  22.5 31.54  C 24.15 31.54  25.5 32.908  25.5 34.58  Z M 34.5 43.7  C 34.5 45.372  33.15 46.74  31.5 46.74  C 29.85 46.74  28.5 45.372  28.5 43.7  L 28.5 34.58  C 28.5 32.908  29.85 31.54  31.5 31.54  C 33.15 31.54  34.5 32.908  34.5 34.58  L 34.5 43.7  Z M 16.5 43.7  C 16.5 45.372  15.15 46.74  13.5 46.74  C 11.85 46.74  10.5 45.372  10.5 43.7  C 10.5 42.028  11.85 40.66  13.5 40.66  C 15.15 40.66  16.5 42.028  16.5 43.7  Z M 25.5 43.7  C 25.5 45.372  24.15 46.74  22.5 46.74  C 20.85 46.74  19.5 45.372  19.5 43.7  C 19.5 42.028  20.85 40.66  22.5 40.66  C 24.15 40.66  25.5 42.028  25.5 43.7  Z " fill-rule="nonzero" fill="#ffffff" stroke="none" transform="matrix(1 0 0 1 185 2795 )" />
  </g>
</svg>