<?xml version="1.0" encoding="utf-8"?>
<svg version="1.1" xmlns:xlink="http://www.w3.org/1999/xlink" width="42px" height="42px" xmlns="http://www.w3.org/2000/svg">
  <g transform="matrix(1 0 0 1 -629 -951 )">
    <path d="M 650 955  C 659.52 955  667 962.48  667 972  C 667 981.52  659.52 989  650 989  C 640.48 989  633 981.52  633 972  C 633 962.48  640.48 955  650 955  Z " fill-rule="nonzero" fill="#ffffff" stroke="none" fill-opacity="0" />
    <path d="M 650 953.5  C 660.36 953.5  668.5 961.64  668.5 972  C 668.5 982.36  660.36 990.5  650 990.5  C 639.64 990.5  631.5 982.36  631.5 972  C 631.5 961.64  639.64 953.5  650 953.5  Z " stroke-width="5" stroke="#d9001b" fill="none" />
  </g>
</svg>