<?xml version="1.0" encoding="utf-8"?>
<svg version="1.1" xmlns:xlink="http://www.w3.org/1999/xlink" width="42px" height="42px" xmlns="http://www.w3.org/2000/svg">
  <g transform="matrix(1 0 0 1 -10 -223 )">
    <path d="M 31 227  C 40.52 227  48 234.48  48 244  C 48 253.52  40.52 261  31 261  C 21.48 261  14 253.52  14 244  C 14 234.48  21.48 227  31 227  Z " fill-rule="nonzero" fill="#ffffff" stroke="none" fill-opacity="0" />
    <path d="M 31 225.5  C 41.36 225.5  49.5 233.64  49.5 244  C 49.5 254.36  41.36 262.5  31 262.5  C 20.64 262.5  12.5 254.36  12.5 244  C 12.5 233.64  20.64 225.5  31 225.5  Z " stroke-width="5" stroke="#d9001b" fill="none" />
  </g>
</svg>