<?xml version="1.0" encoding="utf-8"?>
<svg version="1.1" xmlns:xlink="http://www.w3.org/1999/xlink" width="25px" height="25px" xmlns="http://www.w3.org/2000/svg">
  <g>
    <path d="M 0.499999999999998 12.5  C 0.499999999999998 5.87333333333333  5.87333333333333 0.499999999999998  12.5 0.5  C 19.1266666666667 0.5  24.5 5.87333333333333  24.5 12.5  C 24.5 19.1266666666667  19.1266666666667 24.5  12.5 24.5  C 5.87333333333333 24.5  0.499999999999998 19.1266666666667  0.499999999999998 12.5  Z M 22.5 12.5  C 22.5 6.98  18.02 2.5  12.5 2.5  C 6.98 2.5  2.5 6.98  2.5 12.5  C 2.5 18.02  6.98 22.5  12.5 22.5  C 18.02 22.5  22.5 18.02  22.5 12.5  Z M 9.27333333333333 17.0066666666667  C 9.54 17.38  9.92666666666667 17.5933333333333  10.38 17.5933333333333  C 10.7666666666667 17.5933333333333  11.14 17.42  11.3933333333333 17.1133333333333  L 17.5133333333333 9.87333333333333  C 17.7133333333333 9.64666666666666  17.82 9.34  17.82 9.03333333333333  C 17.82 8.63333333333333  17.66 8.24666666666666  17.34 7.99333333333333  C 17.0866666666667 7.79333333333333  16.8066666666667 7.7  16.4733333333333 7.7  C 16.0866666666667 7.7  15.7266666666667 7.86  15.4733333333333 8.16666666666666  L 10.4866666666667 14.0866666666667  L 9.38 12.5266666666667  C 9.12666666666667 12.18  8.74 11.9666666666667  8.3 11.9666666666667  C 8.02 11.9666666666667  7.76666666666666 12.0466666666667  7.54 12.1933333333333  C 7.16666666666666 12.4333333333333  6.96666666666666 12.8066666666667  6.96666666666666 13.2733333333333  C 6.96666666666666 13.5533333333333  7.04666666666667 13.82  7.20666666666667 14.06  L 9.27333333333333 17.0066666666667  Z " fill-rule="nonzero" fill="#333333" stroke="none" />
  </g>
</svg>