<?xml version="1.0" encoding="utf-8"?>
<svg version="1.1" xmlns:xlink="http://www.w3.org/1999/xlink" width="100px" height="100px" xmlns="http://www.w3.org/2000/svg">
  <defs>
    <mask fill="white" id="clip85">
      <path d="M 76 385  C 67.12 385  60 377.88  60 369  L 60 301  C 60 292.12  67.12 285  76 285  L 144 285  C 152.88 285  160 292.12  160 301  L 160 369  C 160 377.88  152.88 385  144 385  " fill-rule="evenodd" />
    </mask>
  </defs>
  <g transform="matrix(1 0 0 1 -60 -285 )">
    <path d="M 60 285  L 160 285  L 160 385  L 60 385  L 60 285  " fill-rule="nonzero" fill="#cccccc" stroke="none" mask="url(#clip85)" />
    <path d="M 67 292  L 153 292  L 153 378  L 67 378  L 67 292  " fill-rule="nonzero" fill="#ffffff" stroke="none" mask="url(#clip85)" />
    <path d="M 119.5 315  C 115.3 315  112 311.7  112 307.5  C 112 303.3  115.3 300  119.5 300  C 123.7 300  127 303.3  127 307.5  C 127 311.7  123.7 315  119.5 315  " fill-rule="nonzero" fill="#cccccc" stroke="none" mask="url(#clip85)" />
    <path d="M 70 376  L 70 331.45  L 90.25 311.2  L 118.6 327.4  L 134.8 323.35  L 151 327.4  L 151 376  L 70 376  " fill-rule="nonzero" fill="#169bd5" stroke="none" mask="url(#clip85)" />
  </g>
</svg>