<?xml version="1.0" encoding="utf-8"?>
<svg version="1.1" xmlns:xlink="http://www.w3.org/1999/xlink" width="38px" height="35px" xmlns="http://www.w3.org/2000/svg">
  <g transform="matrix(1 0 0 1 -282 -13 )">
    <path d="M 13.1466145833333 17.8579545454545  L 18.68828125 24.9076704545455  C 18.7633063862571 25.0039929823917  18.8782681280734 25.060272581678  19 25.060272581678  C 19.1217318719266 25.060272581678  19.2366936137429 25.0039929823917  19.31171875 24.9076704545455  L 24.8533854166667 17.8629261363636  C 25.05625 17.6044034090909  24.8731770833333 17.2215909090909  24.5416666666667 17.2215909090909  L 20.8752604166667 17.2215909090909  L 20.8752604166667 0.397727272727273  C 20.8752604166667 0.178977272727272  20.6971354166667 0  20.4794270833333 0  L 17.5106770833333 0  C 17.29296875 0  17.11484375 0.178977272727272  17.11484375 0.397727272727273  L 17.11484375 17.2166193181818  L 13.4583333333333 17.2166193181818  C 13.1268229166667 17.2166193181818  12.94375 17.5994318181818  13.1466145833333 17.8579545454545  Z M 37.5052083333333 23.5653409090909  C 37.5052083333333 23.3465909090909  37.3270833333333 23.1676136363636  37.109375 23.1676136363636  L 34.140625 23.1676136363636  C 33.9229166666667 23.1676136363636  33.7447916666667 23.3465909090909  33.7447916666667 23.5653409090909  L 33.7447916666667 31  L 4.25520833333333 31  L 4.25520833333333 23.5653409090909  C 4.25520833333333 23.3465909090909  4.07708333333333 23.1676136363636  3.859375 23.1676136363636  L 0.890625 23.1676136363636  C 0.672916666666666 23.1676136363636  0.494791666666667 23.3465909090909  0.494791666666667 23.5653409090909  L 0.494791666666667 33.4090909090909  C 0.494791666666667 34.2890625  1.20234375 35  2.078125 35  L 35.921875 35  C 36.79765625 35  37.5052083333333 34.2890625  37.5052083333333 33.4090909090909  L 37.5052083333333 23.5653409090909  Z " fill-rule="nonzero" fill="#333333" stroke="none" transform="matrix(1 0 0 1 282 13 )" />
  </g>
</svg>