<?xml version="1.0" encoding="utf-8"?>
<svg version="1.1" xmlns:xlink="http://www.w3.org/1999/xlink" width="18px" height="23px" xmlns="http://www.w3.org/2000/svg">
  <g transform="matrix(1 0 0 1 -31 -258 )">
    <path d="M 18 4.10714285714283  C 18 3.19981791099229  17.2673750451777 2.46428571428572  16.3636363636364 2.46428571428572  L 13.9090909090909 2.46428571428572  L 13.9090909090909 2.39999999999998  L 13.9090909090909 1.64285714285717  C 13.9090909090909 0.735532196706572  13.1764659542686 0  12.2727272727273 0  L 5.72727272727273 0  C 4.82353404573143 0  4.09090909090909 0.735532196706572  4.09090909090909 1.64285714285717  L 4.09090909090909 2.46428571428572  L 1.63636363636363 2.46428571428572  C 0.732624954822338 2.46428571428572  0 3.19981791099229  0 4.10714285714283  L 0 21.3571428571428  C 0 22.2644678032934  0.732624954822338 23  1.63636363636363 23  L 16.3636363636364 23  C 17.2673750451777 23  18 22.2644678032934  18 21.3571428571428  L 18 4.10714285714283  Z M 5.72727272727273 4.92857142857144  L 5.72727272727273 1.64285714285717  L 12.2727272727273 1.64285714285717  L 12.2727272727273 4.92857142857144  L 5.72727272727273 4.92857142857144  Z M 16.3636363636364 4.10714285714283  L 16.3636363636364 21  L 1.63636363636363 21  L 1.63636363636363 4.10714285714283  L 4.09090909090909 4.10714285714283  L 4.09090909090909 6.57142857142856  L 13.9090909090909 6.57142857142856  L 13.9090909090909 4.10714285714283  L 16.3636363636364 4.10714285714283  Z " fill-rule="nonzero" fill="#6283ee" stroke="none" transform="matrix(1 0 0 1 31 258 )" />
  </g>
</svg>