<?xml version="1.0" encoding="utf-8"?>
<svg version="1.1" xmlns:xlink="http://www.w3.org/1999/xlink" width="28px" height="24px" xmlns="http://www.w3.org/2000/svg">
  <g transform="matrix(1 0 0 1 -121 -450 )">
    <path d="M 9.4140625 11.6491694352159  C 9.8046875 11.2504983388704  10 10.7694352159468  10 10.2059800664452  C 10 9.64252491694352  9.8046875 9.16146179401993  9.4140625 8.76279069767442  C 9.0234375 8.3641196013289  8.55208333333333 8.16478405315615  8 8.16478405315615  C 7.44791666666667 8.16478405315615  6.9765625 8.3641196013289  6.5859375 8.76279069767442  C 6.1953125 9.16146179401993  6 9.64252491694352  6 10.2059800664452  C 6 10.7694352159468  6.1953125 11.2504983388704  6.5859375 11.6491694352159  C 6.9765625 12.0478405315615  7.44791666666667 12.2471760797342  8 12.2471760797342  C 8.55208333333333 12.2471760797342  9.0234375 12.0478405315615  9.4140625 11.6491694352159  Z M 15.4140625 11.6491694352159  C 15.8046875 11.2504983388704  16 10.7694352159468  16 10.2059800664452  C 16 9.64252491694352  15.8046875 9.16146179401993  15.4140625 8.76279069767442  C 15.0234375 8.3641196013289  14.5520833333333 8.16478405315615  14 8.16478405315615  C 13.4479166666667 8.16478405315615  12.9765625 8.3641196013289  12.5859375 8.76279069767442  C 12.1953125 9.16146179401993  12 9.64252491694352  12 10.2059800664452  C 12 10.7694352159468  12.1953125 11.2504983388704  12.5859375 11.6491694352159  C 12.9765625 12.0478405315615  13.4479166666667 12.2471760797342  14 12.2471760797342  C 14.5520833333333 12.2471760797342  15.0234375 12.0478405315615  15.4140625 11.6491694352159  Z M 21.4140625 11.6491694352159  C 21.8046875 11.2504983388704  22 10.7694352159468  22 10.2059800664452  C 22 9.64252491694352  21.8046875 9.16146179401993  21.4140625 8.76279069767442  C 21.0234375 8.3641196013289  20.5520833333333 8.16478405315615  20 8.16478405315615  C 19.4479166666667 8.16478405315615  18.9765625 8.3641196013289  18.5859375 8.76279069767442  C 18.1953125 9.16146179401993  18 9.64252491694352  18 10.2059800664452  C 18 10.7694352159468  18.1953125 11.2504983388704  18.5859375 11.6491694352159  C 18.9765625 12.0478405315615  19.4479166666667 12.2471760797342  20 12.2471760797342  C 20.5520833333333 12.2471760797342  21.0234375 12.0478405315615  21.4140625 11.6491694352159  Z M 26.125 5.07906976744186  C 27.375 6.64717607973422  28 8.35614617940199  28 10.2059800664452  C 28 12.0558139534884  27.375 13.7647840531561  26.125 15.3328903654485  C 24.875 16.9009966777409  23.1770833333333 18.1395348837209  21.03125 19.0485049833887  C 18.8854166666667 19.9574750830565  16.5416666666667 20.4119601328904  14 20.4119601328904  C 12.8541666666667 20.4119601328904  11.7552083333333 20.3162790697674  10.703125 20.1249169435216  C 8.90104166666667 21.9641196013289  6.63541666666667 23.1813953488372  3.90625 23.7767441860465  C 3.36458333333333 23.8830564784053  2.91666666666667 23.9521594684385  2.5625 23.9840531561462  C 2.4375 23.9946843853821  2.32291666666667 23.9627906976744  2.21875 23.8883720930233  C 2.11458333333333 23.8139534883721  2.046875 23.7182724252492  2.015625 23.6013289036545  C 1.97395833333333 23.4418604651163  2.078125 23.2451827242525  2.328125 23.0112956810631  C 2.38020833333333 22.9581395348837  2.50260416666667 22.843853820598  2.6953125 22.668438538206  C 2.88802083333333 22.493023255814  3.02083333333333 22.3681063122924  3.09375 22.2936877076412  C 3.16666666666667 22.21926910299  3.2890625 22.0837209302326  3.4609375 21.8870431893688  C 3.6328125 21.690365448505  3.7578125 21.5229235880399  3.8359375 21.3847176079734  C 3.9140625 21.246511627907  4.02083333333333 21.0498338870432  4.15625 20.7946843853821  C 4.29166666666667 20.5395348837209  4.39583333333333 20.2843853820598  4.46875 20.0292358803987  C 4.54166666666667 19.7740863787375  4.6171875 19.468438538206  4.6953125 19.112292358804  C 4.7734375 18.756146179402  4.83854166666667 18.3707641196013  4.890625 17.956146179402  C 3.36979166666667 16.9993355481728  2.17447916666667 15.8485049833887  1.3046875 14.5036544850498  C 0.434895833333333 13.158803986711  0 11.7262458471761  0 10.2059800664452  C 0 8.35614617940199  0.625 6.64717607973422  1.875 5.07906976744186  C 3.125 3.5109634551495  4.82291666666667 2.27242524916944  6.96875 1.36345514950166  C 9.11458333333333 0.454485049833888  11.4583333333333 0  14 0  C 16.5416666666667 0  18.8854166666667 0.454485049833888  21.03125 1.36345514950166  C 23.1770833333333 2.27242524916944  24.875 3.5109634551495  26.125 5.07906976744186  Z " fill-rule="nonzero" fill="#6b48f5" stroke="none" transform="matrix(1 0 0 1 121 450 )" />
  </g>
</svg>