<?xml version="1.0" encoding="utf-8"?>
<svg version="1.1" xmlns:xlink="http://www.w3.org/1999/xlink" width="22px" height="23px" xmlns="http://www.w3.org/2000/svg">
  <g transform="matrix(1 0 0 1 -282 -435 )">
    <path d="M 20.9586666666667 15.70828125  C 21.4103083333333 14.8793828125  21.5849333333333 13.895998046875  21.3707083333333 12.87865234375  C 21.7726666666667 12.2115625  22 11.5  22 10.63974609375  C 22 8.662509765625  20.294175 6.79533203125  18.0665833333333 6.79533203125  L 16.3945833333333 6.79533203125  C 16.6200833333333 6.2198828125  16.8002083333333 5.5316796875  16.8002083333333 4.70466796875  C 16.8002083333333 1.434625  15.07275 0  12.4336666666667 0  C 9.6100125 0  9.77107083333333 4.264568359375  9.14466666666667 4.878515625  C 8.10209583333333 5.900353515625  6.87064583333333 7.863439453125  5.99316666666667 8.625  L 1.46666666666667 8.625  C 0.656654166666667 8.625  0 9.268595703125  0 10.0625  L 0 20.84375  C 0 21.637654296875  0.656654166666667 22.28125  1.46666666666667 22.28125  L 4.4 22.28125  C 5.08259583333333 22.28125  5.6562 21.82421484375  5.819825 21.20537109375  C 7.85982083333333 21.250337890625  9.260075 22.99955078125  13.9690833333333 22.99955078125  C 14.3 22.99955078125  14.6666666666667 23  14.9875 23  C 18.5220291666667 23  20.1201916666667 21.229044921875  20.1639166666667 18.71759765625  C 20.7743708333333 17.889912109375  21.0942875 16.7804765625  20.9586666666667 15.70828125  Z M 18.7792916666667 12.3490234375  C 19.3975375 13.002861328125  19.5296291666667 14.381109375  18.5405 15.296796875  C 19.1161666666667 16.24599609375  18.59825 17.51638671875  17.9015833333333 17.88294921875  C 18.2545 20.07423828125  17.09455 20.84330078125  15.4669166666667 20.84330078125  L 13.7335 20.84330078125  C 10.4500458333333 20.84330078125  8.3238375 19.14435546875  5.86666666666667 19.14435546875  L 5.86666666666667 10.78125  L 6.36716666666667 10.78125  C 7.667 10.78125  9.48291666666666 7.59673828125  10.70025 6.4031640625  C 12.0000833333333 5.1291796875  11.5669583333333 3.00572265625  12.4336666666667 2.15625  C 14.6002083333333 2.15625  14.6002083333333 3.6377734375  14.6002083333333 4.70466796875  C 14.6002083333333 6.4642578125  13.300375 7.25263671875  13.300375 8.95158203125  L 18.0665833333333 8.95158203125  C 19.034125 8.95158203125  19.795875 9.8010546875  19.8 10.65052734375  C 19.804125 11.49955078125  19.2124166666667 12.3490234375  18.7792916666667 12.3490234375  Z M 2.93333333333333 18.328125  C 3.54085416666667 18.328125  4.03333333333333 18.810810546875  4.03333333333333 19.40625  C 4.03333333333333 20.001689453125  3.54085416666667 20.484375  2.93333333333333 20.484375  C 2.3258125 20.484375  1.83333333333333 20.001689453125  1.83333333333333 19.40625  C 1.83333333333333 18.810810546875  2.3258125 18.328125  2.93333333333333 18.328125  Z " fill-rule="nonzero" fill="#333333" stroke="none" transform="matrix(1 0 0 1 282 435 )" />
  </g>
</svg>