<?xml version="1.0" encoding="utf-8"?>
<svg version="1.1" xmlns:xlink="http://www.w3.org/1999/xlink" width="20px" height="20px" viewBox="34 478  20 20" xmlns="http://www.w3.org/2000/svg">
  <path d="M 44 478  C 49.6 478  54 482.4  54 488  C 54 493.6  49.6 498  44 498  C 38.4 498  34 493.6  34 488  C 34 482.4  38.4 478  44 478  Z " fill-rule="nonzero" fill="#ffffff" stroke="none" />
  <path d="M 44 478.5  C 49.32 478.5  53.5 482.68  53.5 488  C 53.5 493.32  49.32 497.5  44 497.5  C 38.68 497.5  34.5 493.32  34.5 488  C 34.5 482.68  38.68 478.5  44 478.5  Z " stroke-width="1" stroke="#797979" fill="none" />
  <path d="M 44 493  C 41.2 493  39 490.8  39 488  C 39 485.2  41.2 483  44 483  C 46.8 483  49 485.2  49 488  C 49 490.8  46.8 493  44 493  " fill-rule="nonzero" fill="#797979" stroke="none" />
</svg>