<?xml version="1.0" encoding="utf-8"?>
<svg version="1.1" xmlns:xlink="http://www.w3.org/1999/xlink" width="32px" height="28px" xmlns="http://www.w3.org/2000/svg">
  <g transform="matrix(1 0 0 1 -1206 -25 )">
    <path d="M 32 13.125  C 32 12.64375  31.6 12.25  31.1111111111111 12.25  L 29.4722222222222 12.25  C 28.9833333333333 11.15625  28.2722222222222 10.18828125  27.3944444444444 9.37890625  L 28.4444444444444 5.25  L 26.6666666666667 5.25  C 25.0333333333333 5.25  23.5888888888889 5.98828125  22.6111111111111 7.12578125  C 22.1888888888889 7.065625  21.7722222222222 7  21.3333333333333 7  L 14.2222222222222 7  C 9.92222222222222 7  6.33888888888889 10.0078125  5.51111111111111 14  L 3.11111111111111 14  C 2.28888888888889 14  1.63888888888889 13.26171875  1.80555555555556 12.425  C 1.92777777777778 11.8015625  2.52222222222222 11.375  3.16666666666667 11.375  L 3.22222222222222 11.375  C 3.40555555555556 11.375  3.55555555555556 11.22734375  3.55555555555556 11.046875  L 3.55555555555556 9.953125  C 3.55555555555556 9.77265625  3.40555555555556 9.625  3.22222222222222 9.625  C 1.63888888888889 9.625  0.227777777777778 10.740625  0.0277777777777778 12.2828125  C -0.216666666666667 14.153125  1.26111111111111 15.75  3.11111111111111 15.75  L 5.33333333333333 15.75  C 5.33333333333333 18.6046875  6.74444444444444 21.11484375  8.88888888888889 22.71171875  L 8.88888888888889 27.125  C 8.88888888888889 27.60625  9.28888888888889 28  9.77777777777778 28  L 13.3333333333333 28  C 13.8222222222222 28  14.2222222222222 27.60625  14.2222222222222 27.125  L 14.2222222222222 24.5  L 21.3333333333333 24.5  L 21.3333333333333 27.125  C 21.3333333333333 27.60625  21.7333333333333 28  22.2222222222222 28  L 25.7777777777778 28  C 26.2666666666667 28  26.6666666666667 27.60625  26.6666666666667 27.125  L 26.6666666666667 22.71171875  C 27.3222222222222 22.225  27.9055555555556 21.65078125  28.4055555555556 21  L 31.1111111111111 21  C 31.6 21  32 20.60625  32 20.125  L 32 13.125  Z M 24.8888888888889 14.875  C 24.8888888888889 15.35625  24.4888888888889 15.75  24 15.75  C 23.5111111111111 15.75  23.1111111111111 15.35625  23.1111111111111 14.875  C 23.1111111111111 14.39375  23.5111111111111 14  24 14  C 24.4888888888889 14  24.8888888888889 14.39375  24.8888888888889 14.875  Z M 11.5888888888889 5.5890625  C 12.4333333333333 5.37578125  13.3111111111111 5.25  14.2222222222222 5.25  L 21.3333333333333 5.25  C 21.6333333333333 5.25  21.9277777777778 5.271875  22.2166666666667 5.29375  C 22.2166666666667 5.27734375  22.2222222222222 5.26640625  22.2222222222222 5.25  C 22.2222222222222 2.3515625  19.8333333333333 0  16.8888888888889 0  C 13.9444444444444 0  11.5555555555556 2.3515625  11.5555555555556 5.25  C 11.5555555555556 5.36484375  11.5833333333333 5.47421875  11.5888888888889 5.5890625  Z " fill-rule="nonzero" fill="#333333" stroke="none" transform="matrix(1 0 0 1 1206 25 )" />
  </g>
</svg>