<?xml version="1.0" encoding="utf-8"?>
<svg version="1.1" xmlns:xlink="http://www.w3.org/1999/xlink" width="20px" height="20px" viewBox="304 478  20 20" xmlns="http://www.w3.org/2000/svg">
  <path d="M 314 478  C 319.6 478  324 482.4  324 488  C 324 493.6  319.6 498  314 498  C 308.4 498  304 493.6  304 488  C 304 482.4  308.4 478  314 478  Z " fill-rule="nonzero" fill="#f0f0f0" stroke="none" />
  <path d="M 314 478.5  C 319.32 478.5  323.5 482.68  323.5 488  C 323.5 493.32  319.32 497.5  314 497.5  C 308.68 497.5  304.5 493.32  304.5 488  C 304.5 482.68  308.68 478.5  314 478.5  Z " stroke-width="1" stroke="#797979" fill="none" />
  <path d="M 314 493  C 311.2 493  309 490.8  309 488  C 309 485.2  311.2 483  314 483  C 316.8 483  319 485.2  319 488  C 319 490.8  316.8 493  314 493  " fill-rule="nonzero" fill="#797979" stroke="none" />
</svg>