<?xml version="1.0" encoding="utf-8"?>
<svg version="1.1" xmlns:xlink="http://www.w3.org/1999/xlink" width="28px" height="28px" xmlns="http://www.w3.org/2000/svg">
  <g transform="matrix(1 0 0 1 -922 -75 )">
    <path d="M 12.4382653465347 11.7962777777778  C 12.4382653465347 12.1644444444444  12.1403564356436 12.4629444444444  11.7729188118812 13  L 0.665346534653465 13  C 0.297908910891089 12.4629444444444  0 12.1644444444444  0 11.7962777777778  L 0 0.666666666666667  C 0 0.2985  0.297908910891089 0  0.665346534653465 0  L 3.32673267326733 0  C 3.6941702970297 0  3.99207920792079 0.2985  3.99207920792079 0.666666666666667  L 3.99207920792079 5.00622222222222  C 6.52998811881188 2.18216666666667  10.216396039604 0.415  14.3146534653465 0.444833333333333  C 21.9054811881188 0.500055555555556  27.979097029703 6.64611111111111  27.9629623762376 14.2521666666667  C 27.9468277227723 21.8476666666667  21.7967524752475 28  14.2125227722772 28  C 10.6590732673267 28  7.42066534653466 26.6492777777778  4.98028514851485 24.4325  C 4.69756831683168 24.1757222222222  4.68453861386139 23.7350555555556  4.95439207920792 23.4647222222222  L 6.83771089108911 21.5776666666667  C 7.08577425742574 21.3291111111111  7.48431683168317 21.3156111111111  7.74707326732674 21.5485  C 9.46788118811881 23.0742222222222  11.7311683168317 24  14.2125227722772 24  C 19.6056 24  23.9709386138614 19.6268888888889  23.9709386138614 14.2222222222222  C 23.9709386138614 8.8185  19.6064871287129 4.44444444444444  14.2125227722772 4.44444444444444  C 10.9691801980198 4.44444444444444  8.09798811881188 6.02644444444444  6.32406336633664 8.46294444444444  L 11.7729188118812 8.46294444444444  C 12.1403564356436 8.46294444444444  12.4382653465347 8.76144444444444  12.4382653465347 9.12961111111111  L 12.4382653465347 11.7962777777778  Z " fill-rule="nonzero" fill="#d7d7d7" stroke="none" transform="matrix(1 0 0 1 922 75 )" />
  </g>
</svg>