<?xml version="1.0" encoding="utf-8"?>
<svg version="1.1" xmlns:xlink="http://www.w3.org/1999/xlink" width="174px" height="136px" xmlns="http://www.w3.org/2000/svg">
  <g transform="matrix(1 0 0 1 -628 -474 )">
    <path d="M 174 9.61692650334076  C 174 4.25265033407572  169.36 0.00302895322939914  163.795625 0.318040089086859  C 147.241458333333 1.26004454342984  114.338541666667 4.68881959910913  94.0264583333333 17.155991091314  C 92.6247916666667 18.0162138084633  91.8303125 19.5458351893096  91 21.1451224944321  L 91 131.359643652561  C 91.8303125 134.858084632517  95.645625 137.069220489978  98.8628125 135.44570155902  C 119.7609375 124.898886414254  149.984375 122.021380846325  164.9284375 121.233853006682  C 170.030625 120.964276169265  173.996979166667 116.863073496659  174 111.947082405345  L 174 9.61692650334076  Z M 83 21.0906013363029  C 82.1666666666667 19.488285077951  81.3752083333333 18.0192427616926  79.9705208333333 17.155991091314  C 59.6614583333333 4.68881959910913  26.7585416666667 1.26307349665924  10.204375 0.318040089086859  C 4.64 0.00302895322939914  0 4.25265033407572  0 9.61692650334076  L 0 111.950111358575  C 0 116.869131403118  3.96635416666667 120.970334075724  9.06854166666667 121.236881959911  C 24.0186458333333 122.024409799555  54.2571875 124.904944320713  75.1553125 135.457817371938  C 78.3634375 137.078307349666  82.1666666666667 134.870200445434  83 131.380846325167  L 83 21.0906013363029  Z " fill-rule="nonzero" fill="#333333" stroke="none" transform="matrix(1 0 0 1 628 474 )" />
  </g>
</svg>