<?xml version="1.0" encoding="utf-8"?>
<svg version="1.1" xmlns:xlink="http://www.w3.org/1999/xlink" width="59px" height="59px" xmlns="http://www.w3.org/2000/svg">
  <g transform="matrix(1 0 0 1 -806 -474 )">
    <path d="M 57.3751953125 8.53372319688109  C 59.5416015625 10.6844054580897  59.5416015625 14.180701754386  57.3751953125 16.3428849902534  L 52.062890625 21.6448343079922  C 51.5212890625 22.1853801169591  50.6455078125 22.1853801169591  50.10390625 21.6448343079922  L 37.312890625 8.87875243664717  C 36.7712890625 8.33820662768031  36.7712890625 7.46413255360624  37.312890625 6.92358674463938  L 42.6251953125 1.62163742690058  C 44.780078125 -0.529044834307994  48.283203125 -0.529044834307994  50.449609375 1.62163742690058  L 57.3751953125 8.53372319688109  Z M 34.7201171875 11.4779727095517  C 34.1669921875 10.9374269005848  33.2912109375 10.9374269005848  32.749609375 11.4779727095517  L 2.4890625 41.6795321637427  L 0.04609375 55.653216374269  C -0.2880859375 57.5393762183236  1.359765625 59.172514619883  3.249609375 58.8504873294347  L 17.2505859375 56.4007797270955  L 47.5111328125 26.1992202729045  C 48.052734375 25.6586744639376  48.052734375 24.7846003898635  47.5111328125 24.2440545808967  L 34.7201171875 11.4779727095517  Z M 16.5822265625 39.0918128654971  C 15.9484375 39.7243664717349  14.934375 39.7243664717349  14.3005859375 39.0918128654971  C 13.666796875 38.4592592592593  13.666796875 37.4471734892788  14.3005859375 36.8146198830409  L 32.0466796875 19.1031189083821  C 32.68046875 18.4705653021442  33.69453125 18.4705653021442  34.3283203125 19.1031189083821  C 34.962109375 19.7356725146199  34.962109375 20.7477582846004  34.3283203125 21.3803118908382  L 16.5822265625 39.0918128654971  Z M 10.140625 43.2436647173489  L 10.140625 48.7641325536062  L 15.671875 48.7641325536062  L 15.671875 52.9389863547758  L 8.2392578125 54.2385964912281  L 4.65546875 50.6617933723197  L 5.9576171875 43.2436647173489  L 10.140625 43.2436647173489  Z " fill-rule="nonzero" fill="#333333" stroke="none" transform="matrix(1 0 0 1 806 474 )" />
  </g>
</svg>