<?xml version="1.0" encoding="utf-8"?>
<svg version="1.1" xmlns:xlink="http://www.w3.org/1999/xlink" width="49px" height="42px" xmlns="http://www.w3.org/2000/svg">
  <g transform="matrix(1 0 0 1 276 -1224 )">
    <path d="M 40 35  C 40 34.5  39.8 34.4  39.4 34.7  L 38.5 35.6  C 37.5 36.6  36.2 37.1  34.8 37.1  L 32.2 37.1  C 29.8 37.1  27.2 35.2  27.2 31.9  L 27.2 29.4  C 27.2 27.4  28.1 26.2  28.6 25.5  L 39.4 14.5  C 39.7 14.2  40 13.5  40 13.1  L 40 4.8  C 40 2.2  37.8 0  35.2 0  L 9.6 0  C 7 0  4.8 2.4  4.8 4.8  L 3.2 4.8  C 1.4 4.8  0 6.3  0 8.1  C 0 9.9  1.4 11.3  3.2 11.3  L 4.8 11.3  L 4.8 17.8  L 3.2 17.8  C 1.4 17.8  0 19.2  0 21  C 0 22.8  1.4 24.2  3.2 24.2  L 4.8 24.2  L 4.8 30.7  L 3.2 30.7  C 1.4 30.7  0 32.2  0 33.9  C 0 35.7  1.4 37.1  3.2 37.1  L 4.8 37.1  C 4.8 40.3  7 41.9  9.6 42  L 35.2 42  C 37.8 41.9  40 39.7  40 37.1  L 40 35  Z M 31.2 10.5  L 31.2 12.1  C 31.2 13  30.5 13.7  29.6 14  L 13.6 14  C 12.7 13.7  12 13  12 12.1  L 12 10.5  C 12 9.6  12.7 8.9  13.6 9  L 29.6 9  C 30.5 8.9  31.2 9.6  31.2 10.5  Z M 24 29.9  L 24 31.5  C 24 32.4  23.3 33.1  22.4 33.1  L 13.6 33.1  C 12.7 33.1  12 32.4  12 31.5  L 12 29.9  C 12 29  12.7 28.3  13.6 28.3  L 22.4 28.3  C 23.3 28.3  24 29  24 29.9  Z M 26.4 20.2  L 26.4 21.8  C 26.4 22.7  25.7 23.4  24.8 23  L 13.6 23  C 12.7 23.4  12 22.7  12 21.8  L 12 20.2  C 12 19.3  12.7 18.6  13.6 19  L 24.8 19  C 25.7 18.6  26.4 19.3  26.4 20.2  Z M 47.4 19.8  C 48.2 19.1  48.2 18.1  47.5 17.4  L 46.5 16.4  C 45.9 15.8  44.9 15.8  44.3 16.4  L 32.1 29  C 32 29  32 29.2  32 29.2  L 32 31.9  C 32 32.1  32 32.3  32.2 32.3  L 34.8 32.3  C 34.9 32.3  35 32.2  35.1 32.2  L 47.4 19.8  Z " fill-rule="nonzero" fill="#706e6b" stroke="none" transform="matrix(1 0 0 1 -276 1224 )" />
  </g>
</svg>