<?xml version="1.0" encoding="utf-8"?>
<svg version="1.1" xmlns:xlink="http://www.w3.org/1999/xlink" width="57px" height="57px" xmlns="http://www.w3.org/2000/svg">
  <g transform="matrix(1 0 0 1 -550 -1172 )">
    <path d="M 578.5 1176  C 592.22 1176  603 1186.78  603 1200.5  C 603 1214.22  592.22 1225  578.5 1225  C 564.78 1225  554 1214.22  554 1200.5  C 554 1186.78  564.78 1176  578.5 1176  Z " fill-rule="nonzero" fill="#ffffff" stroke="none" fill-opacity="0" />
    <path d="M 578.5 1174.5  C 593.06 1174.5  604.5 1185.94  604.5 1200.5  C 604.5 1215.06  593.06 1226.5  578.5 1226.5  C 563.94 1226.5  552.5 1215.06  552.5 1200.5  C 552.5 1185.94  563.94 1174.5  578.5 1174.5  Z " stroke-width="5" stroke="#d9001b" fill="none" />
  </g>
</svg>