<?xml version="1.0" encoding="utf-8"?>
<svg version="1.1" xmlns:xlink="http://www.w3.org/1999/xlink" width="61px" height="61px" xmlns="http://www.w3.org/2000/svg">
  <g transform="matrix(1 0 0 1 -655 -939 )">
    <path d="M 685.5 943  C 700.34 943  712 954.66  712 969.5  C 712 984.34  700.34 996  685.5 996  C 670.66 996  659 984.34  659 969.5  C 659 954.66  670.66 943  685.5 943  Z " fill-rule="nonzero" fill="#ffffff" stroke="none" fill-opacity="0" />
    <path d="M 685.5 941.5  C 701.18 941.5  713.5 953.82  713.5 969.5  C 713.5 985.18  701.18 997.5  685.5 997.5  C 669.82 997.5  657.5 985.18  657.5 969.5  C 657.5 953.82  669.82 941.5  685.5 941.5  Z " stroke-width="5" stroke="#d9001b" fill="none" />
  </g>
</svg>