<?xml version="1.0" encoding="utf-8"?>
<svg version="1.1" xmlns:xlink="http://www.w3.org/1999/xlink" width="31px" height="31px" xmlns="http://www.w3.org/2000/svg">
  <g transform="matrix(1 0 0 1 -833 -175 )">
    <path d="M 848.5 177  C 856.06 177  862 182.94  862 190.5  C 862 198.06  856.06 204  848.5 204  C 840.94 204  835 198.06  835 190.5  C 835 182.94  840.94 177  848.5 177  Z " fill-rule="nonzero" fill="#0000ff" stroke="none" />
    <path d="M 848.5 176.5  C 856.34 176.5  862.5 182.66  862.5 190.5  C 862.5 198.34  856.34 204.5  848.5 204.5  C 840.66 204.5  834.5 198.34  834.5 190.5  C 834.5 182.66  840.66 176.5  848.5 176.5  Z " stroke-width="3" stroke="#333333" fill="none" />
  </g>
</svg>