<?xml version="1.0" encoding="utf-8"?>
<svg version="1.1" xmlns:xlink="http://www.w3.org/1999/xlink" width="6px" height="6px" xmlns="http://www.w3.org/2000/svg">
  <g transform="matrix(1 0 0 1 -591 -187 )">
    <path d="M 594 188  C 595.12 188  596 188.88  596 190  C 596 191.12  595.12 192  594 192  C 592.88 192  592 191.12  592 190  C 592 188.88  592.88 188  594 188  Z " fill-rule="nonzero" fill="#ffffff" stroke="none" />
    <path d="M 594 188  C 595.12 188  596 188.88  596 190  C 596 191.12  595.12 192  594 192  C 592.88 192  592 191.12  592 190  C 592 188.88  592.88 188  594 188  Z " stroke-width="2" stroke="#333333" fill="none" />
  </g>
</svg>