<?xml version="1.0" encoding="utf-8"?>
<svg version="1.1" xmlns:xlink="http://www.w3.org/1999/xlink" width="18px" height="18px" xmlns="http://www.w3.org/2000/svg">
  <g transform="matrix(1 0 0 1 -532 -175 )">
    <path d="M 541 177  C 544.92 177  548 180.08  548 184  C 548 187.92  544.92 191  541 191  C 537.08 191  534 187.92  534 184  C 534 180.08  537.08 177  541 177  Z " fill-rule="nonzero" fill="#ffffff" stroke="none" />
    <path d="M 541 176.5  C 545.2 176.5  548.5 179.8  548.5 184  C 548.5 188.2  545.2 191.5  541 191.5  C 536.8 191.5  533.5 188.2  533.5 184  C 533.5 179.8  536.8 176.5  541 176.5  Z " stroke-width="3" stroke="#333333" fill="none" />
  </g>
</svg>