<?xml version="1.0" encoding="utf-8"?>
<svg version="1.1" xmlns:xlink="http://www.w3.org/1999/xlink" width="31px" height="31px" xmlns="http://www.w3.org/2000/svg">
  <g transform="matrix(1 0 0 1 -767 -175 )">
    <path d="M 782.5 177  C 790.06 177  796 182.94  796 190.5  C 796 198.06  790.06 204  782.5 204  C 774.94 204  769 198.06  769 190.5  C 769 182.94  774.94 177  782.5 177  Z " fill-rule="nonzero" fill="#ffffff" stroke="none" />
    <path d="M 782.5 176.5  C 790.34 176.5  796.5 182.66  796.5 190.5  C 796.5 198.34  790.34 204.5  782.5 204.5  C 774.66 204.5  768.5 198.34  768.5 190.5  C 768.5 182.66  774.66 176.5  782.5 176.5  Z " stroke-width="3" stroke="#333333" fill="none" />
  </g>
</svg>