<?xml version="1.0" encoding="utf-8"?>
<svg version="1.1" xmlns:xlink="http://www.w3.org/1999/xlink" width="28px" height="32px" xmlns="http://www.w3.org/2000/svg">
  <g transform="matrix(1 0 0 1 -1208 -236 )">
    <path d="M 18.6666666666667 3.04761904761905  L 18.6666666666667 0  L 9.33333333333333 0  L 9.33333333333333 3.04761904761905  L 18.6666666666667 3.04761904761905  Z M 12.4444444444444 10.6666666666667  L 12.4444444444444 19.8095238095238  L 15.5555555555556 19.8095238095238  L 15.5555555555556 10.6666666666667  L 12.4444444444444 10.6666666666667  Z M 28 18.2857142857143  C 28 15.047619047619  26.8488888888889 12.0761904761905  24.9277777777778 9.72952380952381  L 27.1444444444444 7.55809523809524  C 26.4755555555556 6.77333333333333  25.7444444444444 6.05714285714286  24.9433333333333 5.40190476190476  L 22.7266666666667 7.57333333333333  C 20.3388888888889 5.69904761904762  17.2977777777778 4.57142857142857  13.9922222222222 4.57142857142857  C 6.25333333333333 4.57142857142857  0 10.712380952381  0 18.2857142857143  C 0 25.8590476190476  6.25333333333333 32  13.9922222222222 32  C 21.7311111111111 32  28 25.8590476190476  28 18.2857142857143  Z M 24.8888888888889 18.2857142857143  C 24.8888888888889 24.1752380952381  20.0122222222222 28.952380952381  14 28.952380952381  C 7.98777777777778 28.952380952381  3.11111111111111 24.1752380952381  3.11111111111111 18.2857142857143  C 3.11111111111111 12.3961904761905  7.98777777777778 7.61904761904762  14 7.61904761904762  C 20.0122222222222 7.61904761904762  24.8888888888889 12.3961904761905  24.8888888888889 18.2857142857143  Z " fill-rule="nonzero" fill="#ffffff" stroke="none" transform="matrix(1 0 0 1 1208 236 )" />
  </g>
</svg>