<?xml version="1.0" encoding="utf-8"?>
<svg version="1.1" xmlns:xlink="http://www.w3.org/1999/xlink" width="31px" height="31px" xmlns="http://www.w3.org/2000/svg">
  <g transform="matrix(1 0 0 1 -899 -175 )">
    <path d="M 914.5 177  C 922.06 177  928 182.94  928 190.5  C 928 198.06  922.06 204  914.5 204  C 906.94 204  901 198.06  901 190.5  C 901 182.94  906.94 177  914.5 177  Z " fill-rule="nonzero" fill="#333333" stroke="none" />
    <path d="M 914.5 176.5  C 922.34 176.5  928.5 182.66  928.5 190.5  C 928.5 198.34  922.34 204.5  914.5 204.5  C 906.66 204.5  900.5 198.34  900.5 190.5  C 900.5 182.66  906.66 176.5  914.5 176.5  Z " stroke-width="3" stroke="#333333" fill="none" />
  </g>
</svg>