<?xml version="1.0" encoding="utf-8"?>
<svg version="1.1" xmlns:xlink="http://www.w3.org/1999/xlink" width="6px" height="6px" xmlns="http://www.w3.org/2000/svg">
  <g transform="matrix(1 0 0 1 -538 -1917 )">
    <path d="M 541 1918  C 542.12 1918  543 1918.88  543 1920  C 543 1921.12  542.12 1922  541 1922  C 539.88 1922  539 1921.12  539 1920  C 539 1918.88  539.88 1918  541 1918  Z " fill-rule="nonzero" fill="#ffffff" stroke="none" />
    <path d="M 541 1918  C 542.12 1918  543 1918.88  543 1920  C 543 1921.12  542.12 1922  541 1922  C 539.88 1922  539 1921.12  539 1920  C 539 1918.88  539.88 1918  541 1918  Z " stroke-width="2" stroke="#333333" fill="none" />
  </g>
</svg>