<?xml version="1.0" encoding="utf-8"?>
<svg version="1.1" xmlns:xlink="http://www.w3.org/1999/xlink" width="18px" height="18px" xmlns="http://www.w3.org/2000/svg">
  <g transform="matrix(1 0 0 1 -479 -1905 )">
    <path d="M 488 1907  C 491.92 1907  495 1910.08  495 1914  C 495 1917.92  491.92 1921  488 1921  C 484.08 1921  481 1917.92  481 1914  C 481 1910.08  484.08 1907  488 1907  Z " fill-rule="nonzero" fill="#ffffff" stroke="none" />
    <path d="M 488 1906.5  C 492.2 1906.5  495.5 1909.8  495.5 1914  C 495.5 1918.2  492.2 1921.5  488 1921.5  C 483.8 1921.5  480.5 1918.2  480.5 1914  C 480.5 1909.8  483.8 1906.5  488 1906.5  Z " stroke-width="3" stroke="#333333" fill="none" />
  </g>
</svg>