<?xml version="1.0" encoding="utf-8"?>
<svg version="1.1" xmlns:xlink="http://www.w3.org/1999/xlink" width="31px" height="31px" xmlns="http://www.w3.org/2000/svg">
  <g transform="matrix(1 0 0 1 -846 -1905 )">
    <path d="M 861.5 1907  C 869.06 1907  875 1912.94  875 1920.5  C 875 1928.06  869.06 1934  861.5 1934  C 853.94 1934  848 1928.06  848 1920.5  C 848 1912.94  853.94 1907  861.5 1907  Z " fill-rule="nonzero" fill="#333333" stroke="none" />
    <path d="M 861.5 1906.5  C 869.34 1906.5  875.5 1912.66  875.5 1920.5  C 875.5 1928.34  869.34 1934.5  861.5 1934.5  C 853.66 1934.5  847.5 1928.34  847.5 1920.5  C 847.5 1912.66  853.66 1906.5  861.5 1906.5  Z " stroke-width="3" stroke="#333333" fill="none" />
  </g>
</svg>