<?xml version="1.0" encoding="utf-8"?>
<svg version="1.1" xmlns:xlink="http://www.w3.org/1999/xlink" width="31px" height="31px" xmlns="http://www.w3.org/2000/svg">
  <g transform="matrix(1 0 0 1 -714 -1905 )">
    <path d="M 729.5 1907  C 737.06 1907  743 1912.94  743 1920.5  C 743 1928.06  737.06 1934  729.5 1934  C 721.94 1934  716 1928.06  716 1920.5  C 716 1912.94  721.94 1907  729.5 1907  Z " fill-rule="nonzero" fill="#ffffff" stroke="none" />
    <path d="M 729.5 1906.5  C 737.34 1906.5  743.5 1912.66  743.5 1920.5  C 743.5 1928.34  737.34 1934.5  729.5 1934.5  C 721.66 1934.5  715.5 1928.34  715.5 1920.5  C 715.5 1912.66  721.66 1906.5  729.5 1906.5  Z " stroke-width="3" stroke="#333333" fill="none" />
  </g>
</svg>