<?xml version="1.0" encoding="utf-8"?>
<svg version="1.1" xmlns:xlink="http://www.w3.org/1999/xlink" width="31px" height="31px" xmlns="http://www.w3.org/2000/svg">
  <g transform="matrix(1 0 0 1 -780 -1905 )">
    <path d="M 795.5 1907  C 803.06 1907  809 1912.94  809 1920.5  C 809 1928.06  803.06 1934  795.5 1934  C 787.94 1934  782 1928.06  782 1920.5  C 782 1912.94  787.94 1907  795.5 1907  Z " fill-rule="nonzero" fill="#0000ff" stroke="none" />
    <path d="M 795.5 1906.5  C 803.34 1906.5  809.5 1912.66  809.5 1920.5  C 809.5 1928.34  803.34 1934.5  795.5 1934.5  C 787.66 1934.5  781.5 1928.34  781.5 1920.5  C 781.5 1912.66  787.66 1906.5  795.5 1906.5  Z " stroke-width="3" stroke="#333333" fill="none" />
  </g>
</svg>