<?xml version="1.0" encoding="utf-8"?>
<svg version="1.1" xmlns:xlink="http://www.w3.org/1999/xlink" width="60px" height="60px" xmlns="http://www.w3.org/2000/svg">
  <g transform="matrix(1 0 0 1 -108 -135 )">
    <path d="M 138 139  C 152.56 139  164 150.44  164 165  C 164 179.56  152.56 191  138 191  C 123.44 191  112 179.56  112 165  C 112 150.44  123.44 139  138 139  Z " fill-rule="nonzero" fill="#ffffff" stroke="none" fill-opacity="0" />
    <path d="M 138 137.5  C 153.4 137.5  165.5 149.6  165.5 165  C 165.5 180.4  153.4 192.5  138 192.5  C 122.6 192.5  110.5 180.4  110.5 165  C 110.5 149.6  122.6 137.5  138 137.5  Z " stroke-width="5" stroke="#d9001b" fill="none" />
  </g>
</svg>