<?xml version="1.0" encoding="utf-8"?>
<svg version="1.1" xmlns:xlink="http://www.w3.org/1999/xlink" width="37px" height="28px" xmlns="http://www.w3.org/2000/svg">
  <g transform="matrix(1 0 0 1 -607 -1906 )">
    <path d="M 37 3.5  C 37 1.56697916666667  35.44701171875 0  33.53125 0  L 3.46875 0  C 1.55298828125 0  0 1.56697916666667  0 3.5  L 0 24.5  C 0 26.4330208333333  1.55298828125 28  3.46875 28  L 33.53125 28  C 35.44701171875 28  37 26.4330208333333  37 24.5  L 37 3.5  Z M 33 24.0625  C 33.53125 24.304124578051  33.3371234657469 24.5  33.09765625 24  L 3.90234375 24  C 3.66287653425305 24.5  3.46875 24.304124578051  4 24.0625  L 4 3.9375  C 3.46875 3.69587542194903  3.66287653425305 3.5  3.90234375 4  L 33.09765625 4  C 33.3371234657469 3.5  33.53125 3.69587542194903  33 3.9375  L 33 24.0625  Z M 12.140625 9.33333333333333  C 12.140625 7.72253125  10.846419921875 6.41666666666667  9.25 6.41666666666667  C 7.653580078125 6.41666666666667  6.359375 7.72253125  6.359375 9.33333333333333  C 6.359375 10.9441354166667  7.653580078125 12.25  9.25 12.25  C 10.846419921875 12.25  12.140625 10.9441354166667  12.140625 9.33333333333333  Z M 6.9375 17.5  L 6.9375 21  L 30.0625 21  L 30.0625 15.1666666666667  L 23.738173828125 8.78536458333333  C 23.399537109375 8.44367708333333  22.850462890625 8.44367708333333  22.51175390625 8.78536458333333  L 13.875 17.5  L 11.019423828125 14.6186979166667  C 10.680787109375 14.2770104166667  10.131712890625 14.2770104166667  9.79300390625 14.6186979166667  L 6.9375 17.5  Z " fill-rule="nonzero" fill="#000000" stroke="none" transform="matrix(1 0 0 1 607 1906 )" />
  </g>
</svg>