<?xml version="1.0" encoding="utf-8"?>
<svg version="1.1" xmlns:xlink="http://www.w3.org/1999/xlink" width="61px" height="61px" xmlns="http://www.w3.org/2000/svg">
  <g transform="matrix(1 0 0 1 -753 -2670 )">
    <path d="M 783.5 2674  C 798.34 2674  810 2685.66  810 2700.5  C 810 2715.34  798.34 2727  783.5 2727  C 768.66 2727  757 2715.34  757 2700.5  C 757 2685.66  768.66 2674  783.5 2674  Z " fill-rule="nonzero" fill="#ffffff" stroke="none" fill-opacity="0" />
    <path d="M 783.5 2672.5  C 799.18 2672.5  811.5 2684.82  811.5 2700.5  C 811.5 2716.18  799.18 2728.5  783.5 2728.5  C 767.82 2728.5  755.5 2716.18  755.5 2700.5  C 755.5 2684.82  767.82 2672.5  783.5 2672.5  Z " stroke-width="5" stroke="#d9001b" fill="none" />
  </g>
</svg>