<?xml version="1.0" encoding="utf-8"?>
<svg version="1.1" xmlns:xlink="http://www.w3.org/1999/xlink" width="100px" height="100px" xmlns="http://www.w3.org/2000/svg">
  <g transform="matrix(1 0 0 1 -633 -368 )">
    <path d="M 55 4.57142857142857  C 55.1428571428571 3.2  53.9428571428571 2  52.5714285714286 2  L 47.4285714285714 2  C 46.0571428571429 2  44.8571428571429 3.2  45 4.57142857142857  L 45 26.8571428571429  C 44.8571428571429 28.2285714285714  46.0571428571429 29.4285714285714  47.4285714285714 29.4285714285714  L 52.5714285714286 29.4285714285714  C 53.9428571428571 29.4285714285714  55.1428571428571 28.2285714285714  55 26.8571428571429  L 55 4.57142857142857  Z M 98 47.4285714285714  C 98 46.0571428571429  96.8 44.8571428571429  95.4285714285714 45  L 73.1428571428571 45  C 71.7714285714286 44.8571428571429  70.5714285714286 46.0571428571429  70.5714285714286 47.4285714285714  L 70.5714285714286 52.5714285714286  C 70.5714285714286 53.9428571428571  71.7714285714286 55.1428571428571  73.1428571428571 55  L 95.4285714285714 55  C 96.8 55.1428571428571  98 53.9428571428571  98 52.5714285714286  L 98 47.4285714285714  Z M 55 73.1428571428571  C 55.1428571428571 71.7714285714286  53.9428571428571 70.5714285714286  52.5714285714286 70.5714285714286  L 47.4285714285714 70.5714285714286  C 46.0571428571429 70.5714285714286  44.8571428571429 71.7714285714286  45 73.1428571428571  L 45 95.4285714285714  C 44.8571428571429 96.8  46.0571428571429 98  47.4285714285714 98  L 52.5714285714286 98  C 53.9428571428571 98  55.1428571428571 96.8  55 95.4285714285714  L 55 73.1428571428571  Z M 26.8571428571429 55  C 28.2285714285714 55.1428571428571  29.4285714285714 53.9428571428571  29.4285714285714 52.5714285714286  L 29.4285714285714 47.4285714285714  C 29.4285714285714 46.0571428571429  28.2285714285714 44.8571428571429  26.8571428571429 45  L 4.57142857142857 45  C 3.2 44.8571428571429  2 46.0571428571429  2 47.4285714285714  L 2 52.5714285714286  C 2 53.9428571428571  3.2 55.1428571428571  4.57142857142857 55  L 26.8571428571429 55  Z M 62.6857142857143 33.7142857142857  L 66.2857142857143 37.3142857142857  C 67.3142857142857 38.3428571428571  68.8571428571428 38.3428571428571  69.8857142857143 37.3142857142857  L 85.6571428571428 21.5428571428572  C 86.6857142857143 20.5142857142857  86.6857142857143 18.9714285714286  85.6571428571428 17.9428571428571  L 82.0571428571429 14.3428571428571  C 81.0285714285714 13.3142857142857  79.4857142857143 13.3142857142857  78.4571428571429 14.3428571428571  L 62.6857142857143 30.1142857142857  C 61.6571428571429 31.1428571428571  61.6571428571429 32.6857142857143  62.6857142857143 33.7142857142857  Z M 85.8285714285714 78.4571428571429  L 70.0571428571429 62.6857142857143  C 69.0285714285714 61.6571428571429  67.4857142857143 61.6571428571429  66.4571428571429 62.6857142857143  L 62.8571428571428 66.2857142857143  C 61.8285714285714 67.3142857142857  61.8285714285714 68.8571428571429  62.8571428571428 69.8857142857143  L 78.6285714285714 85.6571428571429  C 79.6571428571428 86.6857142857143  81.2 86.6857142857143  82.2285714285714 85.6571428571429  L 85.8285714285714 82.0571428571429  C 86.8571428571428 81.0285714285715  86.8571428571428 79.4857142857143  85.8285714285714 78.4571428571429  Z M 37.3142857142857 66.2857142857143  L 33.7142857142857 62.6857142857143  C 32.6857142857143 61.6571428571429  31.1428571428571 61.6571428571429  30.1142857142857 62.6857142857143  L 14.3428571428571 78.4571428571429  C 13.3142857142857 79.4857142857143  13.3142857142857 81.0285714285714  14.3428571428571 82.0571428571429  L 17.9428571428571 85.6571428571428  C 18.9714285714286 86.6857142857143  20.5142857142857 86.6857142857143  21.5428571428571 85.6571428571428  L 37.3142857142857 69.8857142857143  C 38.3428571428571 68.8571428571428  38.3428571428571 67.3142857142857  37.3142857142857 66.2857142857143  Z M 37.3142857142857 29.9428571428571  L 21.5428571428571 14.1714285714286  C 20.5142857142857 13.1428571428571  18.9714285714286 13.1428571428571  17.9428571428571 14.1714285714286  L 14.3428571428571 17.7714285714286  C 13.3142857142857 18.8  13.3142857142857 20.3428571428571  14.3428571428571 21.3714285714286  L 30.1142857142857 37.1428571428571  C 31.1428571428571 38.1714285714286  32.6857142857143 38.1714285714286  33.7142857142857 37.1428571428571  L 37.3142857142857 33.5428571428571  C 38.3428571428571 32.5142857142857  38.3428571428571 30.9714285714286  37.3142857142857 29.9428571428571  Z " fill-rule="nonzero" fill="#333333" stroke="none" fill-opacity="0.996078431372549" transform="matrix(1 0 0 1 633 368 )" />
  </g>
</svg>