<?xml version="1.0" encoding="utf-8"?>
<svg version="1.1" xmlns:xlink="http://www.w3.org/1999/xlink" width="230px" height="50px" xmlns="http://www.w3.org/2000/svg">
  <defs>
    <mask fill="white" id="clip25">
      <path d="M 0 45  L 0 5  C 0 2.2  2.2 0  5 0  L 110 0  L 225 0  C 227.8 0  230 2.2  230 5  L 230 45  C 230 47.8  227.8 50  225 50  L 5 50  C 2.2 50  0 47.8  0 45  Z " fill-rule="evenodd" />
    </mask>
  </defs>
  <g transform="matrix(1 0 0 1 -90 -110 )">
    <path d="M 0 45  L 0 5  C 0 2.2  2.2 0  5 0  L 110 0  L 225 0  C 227.8 0  230 2.2  230 5  L 230 45  C 230 47.8  227.8 50  225 50  L 5 50  C 2.2 50  0 47.8  0 45  Z " fill-rule="nonzero" fill="#ffffff" stroke="none" transform="matrix(1 0 0 1 90 110 )" />
    <path d="M 0 45  L 0 5  C 0 2.2  2.2 0  5 0  L 110 0  L 225 0  C 227.8 0  230 2.2  230 5  L 230 45  C 230 47.8  227.8 50  225 50  L 5 50  C 2.2 50  0 47.8  0 45  Z " stroke-width="2" stroke="#5c30d1" fill="none" transform="matrix(1 0 0 1 90 110 )" mask="url(#clip25)" />
  </g>
</svg>