<?xml version="1.0" encoding="utf-8"?>
<svg version="1.1" xmlns:xlink="http://www.w3.org/1999/xlink" width="31px" height="25px" xmlns="http://www.w3.org/2000/svg">
  <g transform="matrix(1 0 0 1 -93 -806 )">
    <path d="M 20.15 14.0625  C 20.15 11.475  18.0668 9.37500000000001  15.5 9.37500000000001  C 12.93165 9.37500000000001  10.85 11.475  10.85 14.0625  C 10.85 16.65  12.93165 18.75  15.5 18.75  C 18.0668 18.75  20.15 16.65  20.15 14.0625  Z M 31 7.81250000000001  C 31 6.09375  29.605 4.6875  27.9 4.6875  L 24.18 4.6875  C 23.6685 4.6875  23.1167 4.2875  22.95705 3.796875  L 21.9945 0.889062500000004  C 21.83175 0.400000000000002  21.28305 0  20.77 0  L 10.23 0  C 9.7185 0  9.1667 0.400000000000002  9.00705 0.887500000000001  L 8.04295 3.796875  C 7.88175 4.2875  7.3315 4.6875  6.82 4.6875  L 3.1 4.6875  C 1.395 4.6875  0 6.09375  0 7.81250000000001  L 0 21.875  C 0 23.59375  1.395 25  3.1 25  L 27.9 25  C 29.605 25  31 23.59375  31 21.875  L 31 7.81250000000001  Z M 23.25 14.0625  C 23.25 18.378125  19.77955 21.875  15.5 21.875  C 11.2189 21.875  7.75 18.378125  7.75 14.0625  C 7.75 9.746875  11.2189 6.25  15.5 6.25  C 19.77955 6.25  23.25 9.746875  23.25 14.0625  Z M 28.21 8.5921875  C 28.21 9.19687500000001  27.72485 9.68750000000001  27.125 9.68750000000001  C 26.52515 9.68750000000001  26.04 9.19687500000001  26.04 8.5921875  C 26.04 7.990625  26.52515 7.49843750000001  27.125 7.49843750000001  C 27.72485 7.49843750000001  28.21 7.9890625  28.21 8.5921875  Z " fill-rule="nonzero" fill="#333333" stroke="none" transform="matrix(1 0 0 1 93 806 )" />
  </g>
</svg>