<?xml version="1.0" encoding="utf-8"?>
<svg version="1.1" xmlns:xlink="http://www.w3.org/1999/xlink" width="18px" height="25px" xmlns="http://www.w3.org/2000/svg">
  <g transform="matrix(1 0 0 1 -408 -850 )">
    <path d="M 5.14285714285714 11.8421052631579  C 5.14285714285714 14.0197368421053  6.87214285714286 15.7894736842105  9 15.7894736842105  C 11.1278571428571 15.7894736842105  12.8442857142857 14.0197368421053  12.8442857142857 11.8421052631579  L 12.8571428571429 3.94736842105263  C 12.8571428571429 1.76315789473684  11.1342857142857 0  9 0  C 6.87214285714286 0  5.14285714285714 1.76315789473684  5.14285714285714 3.94736842105263  L 5.14285714285714 11.8421052631579  Z M 18 11.8421052631579  L 15.8142857142857 11.8421052631579  C 15.8142857142857 15.7894736842105  12.555 18.5526315789474  9 18.5526315789474  C 5.45142857142857 18.5526315789474  2.18571428571429 15.7894736842105  2.18571428571429 11.8421052631579  L 0 11.8421052631579  C 0 16.3355263157895  3.49714285714286 20.046052631579  7.71428571428571 20.6842105263158  L 7.71428571428571 25  L 10.2857142857143 25  L 10.2857142857143 20.6842105263158  C 14.5028571428571 20.0460526315789  18 16.3355263157895  18 11.8421052631579  Z " fill-rule="nonzero" fill="#333333" stroke="none" transform="matrix(1 0 0 1 408 850 )" />
  </g>
</svg>