<?xml version="1.0" encoding="utf-8"?>
<svg version="1.1" xmlns:xlink="http://www.w3.org/1999/xlink" width="84px" height="46px" xmlns="http://www.w3.org/2000/svg">
  <g transform="matrix(1 0 0 1 -458 -976 )">
    <path d="M 0.363674147963522 35.6134663341646  C 0.363674147963522 35.6134663341646  44.5241064006651 20.6508728179552  51.5378221113882 15.4139650872819  C 58.5515378221114 10.1770573566085  66.6043225270158 3.94264339152119  66.6043225270158 3.94264339152119  L 73.9759869583387 1.28884419624506  " stroke-width="1" stroke="#c280ff" fill="none" transform="matrix(1 0 0 1 458 985 )" />
    <path d="M 72.0942122431848 -1.03371690629959  C 70.4373579936924 -1.03371690629959  69.0942122431848 0.309428844208031  69.0942122431848 1.96628309370041  C 69.0942122431848 3.62313734319279  70.4373579936924 4.96628309370041  72.0942122431848 4.96628309370041  C 73.7510664926772 4.96628309370041  75.0942122431848 3.62313734319279  75.0942122431848 1.96628309370041  C 75.0942122431848 0.309428844208031  73.7510664926772 -1.03371690629959  72.0942122431848 -1.03371690629959  Z " fill-rule="nonzero" fill="#c280ff" stroke="none" transform="matrix(1 0 0 1 458 985 )" />
  </g>
</svg>