<?xml version="1.0" encoding="utf-8"?>
<svg version="1.1" xmlns:xlink="http://www.w3.org/1999/xlink" width="8px" height="8px" xmlns="http://www.w3.org/2000/svg">
  <g transform="matrix(1 0 0 1 -36 -864 )">
    <path d="M 6.234375 4.56770833333333  C 6.30034722222222 4.50173611111111  6.33333333333333 4.42361111111111  6.33333333333333 4.33333333333333  L 6.33333333333333 3.66666666666667  C 6.33333333333333 3.57638888888889  6.30034722222222 3.49826388888889  6.234375 3.43229166666667  C 6.16840277777778 3.36631944444444  6.09027777777778 3.33333333333333  6 3.33333333333333  L 4.66666666666667 3.33333333333333  L 4.66666666666667 2  C 4.66666666666667 1.90972222222222  4.63368055555556 1.83159722222222  4.56770833333333 1.765625  C 4.50173611111111 1.69965277777778  4.42361111111111 1.66666666666667  4.33333333333333 1.66666666666667  L 3.66666666666667 1.66666666666667  C 3.57638888888889 1.66666666666667  3.49826388888889 1.69965277777778  3.43229166666667 1.765625  C 3.36631944444444 1.83159722222222  3.33333333333333 1.90972222222222  3.33333333333333 2  L 3.33333333333333 3.33333333333333  L 2 3.33333333333333  C 1.90972222222222 3.33333333333333  1.83159722222222 3.36631944444444  1.765625 3.43229166666667  C 1.69965277777778 3.49826388888889  1.66666666666667 3.57638888888889  1.66666666666667 3.66666666666667  L 1.66666666666667 4.33333333333333  C 1.66666666666667 4.42361111111111  1.69965277777778 4.50173611111111  1.765625 4.56770833333333  C 1.83159722222222 4.63368055555556  1.90972222222222 4.66666666666667  2 4.66666666666667  L 3.33333333333333 4.66666666666667  L 3.33333333333333 6  C 3.33333333333333 6.09027777777778  3.36631944444444 6.16840277777778  3.43229166666667 6.234375  C 3.49826388888889 6.30034722222222  3.57638888888889 6.33333333333333  3.66666666666667 6.33333333333333  L 4.33333333333333 6.33333333333333  C 4.42361111111111 6.33333333333333  4.50173611111111 6.30034722222222  4.56770833333333 6.234375  C 4.63368055555556 6.16840277777778  4.66666666666667 6.09027777777778  4.66666666666667 6  L 4.66666666666667 4.66666666666667  L 6 4.66666666666667  C 6.09027777777778 4.66666666666667  6.16840277777778 4.63368055555556  6.234375 4.56770833333333  Z M 7.46354166666667 1.9921875  C 7.82118055555555 2.60503472222222  8 3.27430555555555  8 4  C 8 4.72569444444444  7.82118055555555 5.39496527777778  7.46354166666667 6.0078125  C 7.10590277777778 6.62065972222222  6.62065972222222 7.10590277777778  6.0078125 7.46354166666667  C 5.39496527777778 7.82118055555556  4.72569444444444 8  4 8  C 3.27430555555556 8  2.60503472222222 7.82118055555556  1.9921875 7.46354166666667  C 1.37934027777778 7.10590277777778  0.894097222222222 6.62065972222222  0.536458333333333 6.0078125  C 0.178819444444444 5.39496527777778  0 4.72569444444444  0 4  C 0 3.27430555555555  0.178819444444444 2.60503472222222  0.536458333333333 1.9921875  C 0.894097222222222 1.37934027777778  1.37934027777778 0.894097222222221  1.9921875 0.536458333333333  C 2.60503472222222 0.178819444444444  3.27430555555556 0  4 0  C 4.72569444444444 0  5.39496527777778 0.178819444444444  6.0078125 0.536458333333333  C 6.62065972222222 0.894097222222221  7.10590277777778 1.37934027777778  7.46354166666667 1.9921875  Z " fill-rule="nonzero" fill="#ffffff" stroke="none" transform="matrix(1 0 0 1 36 864 )" />
  </g>
</svg>