<?xml version="1.0" encoding="utf-8"?>
<svg version="1.1" xmlns:xlink="http://www.w3.org/1999/xlink" width="17px" height="13px" xmlns="http://www.w3.org/2000/svg">
  <g transform="matrix(1 0 0 1 -34 -17 )">
    <path d="M 16.9997048611111 0.919265033407572  C 17 0.406503340757238  16.5466666666667 0.000289532293986682  16.0030208333333 0.0304008908685968  C 14.3856597222222 0.120445434298441  11.1710069444444 0.448195991091314  9.18649305555556 1.63991091314031  C 9.04954861111111 1.72213808463252  8.97192708333333 1.86835189309577  9 2.02122494432071  L 9 12.5564365256125  C 8.97192708333333 12.890846325167  9.3446875 13.1022048997773  9.65901041666667 12.9470155902004  C 11.70078125 11.938864142539  14.6536458333333 11.6638084632517  16.1136979166667 11.5885300668151  C 16.6121875 11.5627616926503  16.9997048611111 11.1707349665924  16.9997048611111 10.7008240534521  L 16.9997048611111 0.919265033407572  Z M 8 2.01601336302895  C 8.02777777777778 1.86285077951002  7.95045138888889 1.7224276169265  7.81321180555556 1.63991091314031  C 5.82899305555556 0.448195991091314  2.61434027777778 0.120734966592428  0.996979166666667 0.0304008908685968  C 0.453333333333333 0.000289532293986682  0 0.406503340757238  0 0.919265033407572  L 0 10.7011135857461  C 0 11.1713140311804  0.387517361111111 11.5633407572383  0.886006944444445 11.5888195991091  C 2.34664930555556 11.6640979955457  5.30098958333333 11.9394432071269  7.34276041666667 12.9481737193764  C 7.65619791666667 13.1030734966592  8.02777777777778 12.892004454343  8 12.5584632516704  L 8 2.01601336302895  Z " fill-rule="nonzero" fill="#ffffff" stroke="none" transform="matrix(1 0 0 1 34 17 )" />
  </g>
</svg>