<?xml version="1.0" encoding="utf-8"?>
<svg version="1.1" xmlns:xlink="http://www.w3.org/1999/xlink" width="27px" height="28px" xmlns="http://www.w3.org/2000/svg">
  <g transform="matrix(1 0 0 1 -1122 -26 )">
    <path d="M 24.5633035714286 3.6601796875  C 22.7237678571429 4.5323359375  20.4675535714286 5.4021953125  18.298125 5.4021953125  C 15.4273928571429 5.4021953125  13.0564821428571 3.5  9.44721428571429 3.5  C 8.11033928571429 3.5  6.91280357142857 3.73975  5.80194642857143 4.1569609375  C 5.95589846603303 3.74651601084781  6.02142070272869 3.30702962798077  5.99405357142857 2.8684140625  C 5.899125 1.3133203125  4.65032142857143 0.065953125  3.12525 0.002625  C 1.41133928571429 -0.068578125  0 1.3286875  0 3.0625  C 0 4.102984375  0.508767857142857 5.0216796875  1.28571428571429 5.5751171875  L 1.28571428571429 26.6875  C 1.28571428571429 27.4123828125  1.86133928571429 28  2.57142857142857 28  L 3.42857142857143 28  C 4.13866071428571 28  4.71428571428571 27.4123828125  4.71428571428571 26.6875  L 4.71428571428571 21.525  C 6.23094642857143 20.86525  8.12046428571428 20.315203125  10.8447321428571 20.315203125  C 13.7155178571429 20.315203125  16.086375 22.2173984375  19.6956428571429 22.2173984375  C 22.276125 22.2173984375  24.3385178571429 21.3263203125  26.2584107142857 19.9829765625  C 26.7235714285714 19.65753125  27 19.1171640625  27 18.5415234375  L 27 5.2469921875  C 27 3.9676875  25.699875 3.1212890625  24.5633035714286 3.6601796875  Z " fill-rule="nonzero" fill="#333333" stroke="none" transform="matrix(1 0 0 1 1122 26 )" />
  </g>
</svg>