<?xml version="1.0" encoding="utf-8"?>
<svg version="1.1" xmlns:xlink="http://www.w3.org/1999/xlink" width="22px" height="23px" xmlns="http://www.w3.org/2000/svg">
  <g transform="matrix(1 0 0 1 -321 -450 )">
    <path d="M 22 12.36025390625  C 22 11.5  21.7726666666667 10.7884375  21.3707083333333 10.12134765625  C 21.5849333333333 9.104001953125  21.4103083333333 8.1206171875  20.9586666666667 7.29171875  C 21.0942416666667 6.2195234375  20.7743708333333 5.110087890625  20.1639166666667 4.28240234375  C 20.1201916666667 1.770955078125  18.5220291666667 0  14.9875 0  C 14.6666666666667 0  14.3 0.000449218750000638  13.9690833333333 0.000449218750000638  C 9.2214375 0.000449218750000638  7.74569583333333 1.796875  5.86666666666667 1.796875  L 5.36960416666667 1.796875  C 5.11110416666667 1.573388671875  4.77184583333333 1.4375  4.4 1.4375  L 1.46666666666667 1.4375  C 0.656654166666667 1.4375  0 2.081095703125  0 2.875  L 0 13.65625  C 0 14.450154296875  0.656654166666667 15.09375  1.46666666666667 15.09375  L 4.4 15.09375  C 4.94275833333333 15.09375  5.41635416666667 14.80454296875  5.66995 14.375  L 5.99316666666667 14.375  C 6.87069166666667 15.136560546875  8.10209583333333 17.099646484375  9.14466666666667 18.121484375  C 9.77107083333333 18.735431640625  9.6100125 23  12.4336666666667 23  C 15.07275 23  16.8002083333333 21.565375  16.8002083333333 18.29533203125  C 16.8002083333333 17.4683203125  16.6200833333333 16.7801171875  16.3945833333333 16.20466796875  L 18.0665833333333 16.20466796875  C 20.294175 16.20466796875  22 14.337490234375  22 12.36025390625  Z M 4.03333333333333 12.21875  C 4.03333333333333 12.814189453125  3.54085416666667 13.296875  2.93333333333333 13.296875  C 2.3258125 13.296875  1.83333333333333 12.814189453125  1.83333333333333 12.21875  C 1.83333333333333 11.623310546875  2.3258125 11.140625  2.93333333333333 11.140625  C 3.54085416666667 11.140625  4.03333333333333 11.623310546875  4.03333333333333 12.21875  Z M 19.8 12.34947265625  C 19.795875 13.1989453125  19.034125 14.04841796875  18.0665833333333 14.04841796875  L 13.300375 14.04841796875  C 13.300375 15.74736328125  14.6002083333333 16.5357421875  14.6002083333333 18.29533203125  C 14.6002083333333 19.3622265625  14.6002083333333 20.84375  12.4336666666667 20.84375  C 11.5669583333333 19.99427734375  12.0000833333333 17.8708203125  10.70025 16.5968359375  C 9.48291666666667 15.40326171875  7.667 12.21875  6.36716666666667 12.21875  L 5.86666666666667 12.21875  L 5.86666666666667 3.85564453125  C 8.3238375 3.85564453125  10.4500458333333 2.15669921875  13.7335 2.15669921875  L 15.4669166666667 2.15669921875  C 17.09455 2.15669921875  18.2545 2.92576171875  17.9015833333333 5.11705078125  C 18.59825 5.48361328125  19.1161666666667 6.75400390625  18.5405 7.703203125  C 19.5296291666667 8.618890625  19.3975375 9.997138671875  18.7792916666667 10.6509765625  C 19.2124166666667 10.6509765625  19.804125 11.50044921875  19.8 12.34947265625  Z " fill-rule="nonzero" fill="#333333" stroke="none" transform="matrix(1 0 0 1 321 450 )" />
  </g>
</svg>