<?xml version="1.0" encoding="utf-8"?>
<svg version="1.1" xmlns:xlink="http://www.w3.org/1999/xlink" width="14px" height="14px" viewBox="34 528  14 14" xmlns="http://www.w3.org/2000/svg">
  <path d="M 34.5 530  A 1.5 1.5 0 0 1 36 528.5 L 46 528.5  A 1.5 1.5 0 0 1 47.5 530 L 47.5 540  A 1.5 1.5 0 0 1 46 541.5 L 36 541.5  A 1.5 1.5 0 0 1 34.5 540 L 34.5 530  Z " fill-rule="nonzero" fill="#f0f0f0" stroke="none" />
  <path d="M 34.5 530  A 1.5 1.5 0 0 1 36 528.5 L 46 528.5  A 1.5 1.5 0 0 1 47.5 530 L 47.5 540  A 1.5 1.5 0 0 1 46 541.5 L 36 541.5  A 1.5 1.5 0 0 1 34.5 540 L 34.5 530  Z " stroke-width="1" stroke="#333333" fill="none" />
  <path d="M 37.5 535.5  L 40.5 538.5  " stroke-width="3" stroke="#333333" fill="none" />
  <path d="M 40.5 538.5  L 45.5 531.5  " stroke-width="3" stroke="#333333" fill="none" />
</svg>