<?xml version="1.0" encoding="utf-8"?>
<svg version="1.1" xmlns:xlink="http://www.w3.org/1999/xlink" width="32px" height="30px" xmlns="http://www.w3.org/2000/svg">
  <g>
    <path d="M 30.9230769230769 10.7561436672968  C 31.6410256410256 10.8695652173913  32 11.1594202898551  32 11.6257088846881  C 32 11.9029615626969  31.8333333333333 12.2054190296156  31.5 12.5330812854442  L 24.5192307692308 19.2249527410208  L 26.1730769230769 28.6767485822306  C 26.1858974358974 28.7649653434153  26.1923076923077 28.8909892879647  26.1923076923077 29.054820415879  C 26.1923076923077 29.3194706994329  26.125 29.5431632010082  25.9903846153846 29.7258979206049  C 25.8557692307692 29.9086326402016  25.6602564102564 30  25.4038461538462 30  C 25.1602564102564 30  24.9038461538462 29.9243856332703  24.6346153846154 29.773156899811  L 16 25.3119092627599  L 7.36538461538462 29.773156899811  C 7.08333333333333 29.9243856332703  6.82692307692308 30  6.59615384615385 30  C 6.32692307692308 30  6.125 29.9086326402016  5.99038461538462 29.7258979206049  C 5.85576923076923 29.5431632010082  5.78846153846154 29.3194706994329  5.78846153846154 29.054820415879  C 5.78846153846154 28.9792060491493  5.80128205128205 28.8531821045999  5.82692307692308 28.6767485822306  L 7.48076923076923 19.2249527410208  L 0.480769230769231 12.5330812854442  C 0.16025641025641 12.1928166351607  0 11.890359168242  0 11.6257088846881  C 0 11.1594202898551  0.358974358974359 10.8695652173913  1.07692307692308 10.7561436672968  L 10.7307692307692 9.37618147448015  L 15.0576923076923 0.775047258979205  C 15.3012820512821 0.2583490863264  15.6153846153846 0  16 0  C 16.3846153846154 0  16.6987179487179 0.2583490863264  16.9423076923077 0.775047258979205  L 21.2692307692308 9.37618147448015  L 30.9230769230769 10.7561436672968  Z " fill-rule="nonzero" fill="#000000" stroke="none" />
  </g>
</svg>