<?xml version="1.0" encoding="utf-8"?>
<svg version="1.1" xmlns:xlink="http://www.w3.org/1999/xlink" width="18px" height="16px" xmlns="http://www.w3.org/2000/svg">
  <g transform="matrix(1 0 0 1 -23 -854 )">
    <path d="M 18 7.42857142857143  C 18 3.325  13.97109375 0  9 0  C 4.02890625 0  0 3.325  0 7.42857142857143  C 0 9.2  0.75234375 10.8214285714286  2.00390625 12.0964285714286  C 1.564453125 13.8964285714286  0.094921875 15.5  0.07734375 15.5178571428571  C 0 15.6  -0.02109375 15.7214285714286  0.024609375 15.8285714285714  C 0.0703125 15.9357142857143  0.16875 16  0.28125 16  C 2.612109375 16  4.359375 14.8642857142857  5.22421875 14.1642857142857  C 6.373828125 14.6035714285714  7.65 14.8571428571429  9 14.8571428571429  C 13.97109375 14.8571428571429  18 11.5321428571429  18 7.42857142857143  Z " fill-rule="nonzero" fill="#ffffff" stroke="none" transform="matrix(1 0 0 1 23 854 )" />
  </g>
</svg>