<?xml version="1.0" encoding="utf-8"?>
<svg version="1.1" xmlns:xlink="http://www.w3.org/1999/xlink" width="70px" height="70px" xmlns="http://www.w3.org/2000/svg">
  <g transform="matrix(1 0 0 1 -620 -590 )">
    <path d="M 655.156205486268 590.500346159016  C 674.138171968825 590.584490535418  689.5 605.998271675677  689.5 625  C 689.5 644.053823869162  674.053823869162 659.5  655 659.5  C 635.946176130838 659.5  620.5 644.053823869162  620.5 625  C 620.5 606.403186299205  635.230593880993 591.185809392762  653.755831578506 590.522371283139  L 654.500116391189 625.010787846939  A 0.5 0.5 0 0 0 655.499975172146 624.995017306149 L 655.156205330396 590.500346158325  Z " fill-rule="nonzero" fill="#333333" stroke="none" />
    <path d="M 655.156205486268 590.500346159016  C 674.138171968825 590.584490535418  689.5 605.998271675677  689.5 625  C 689.5 644.053823869162  674.053823869162 659.5  655 659.5  C 635.946176130838 659.5  620.5 644.053823869162  620.5 625  C 620.5 606.403186299205  635.230593880993 591.185809392762  653.755831578506 590.522371283139  L 654.500116391189 625.010787846939  A 0.5 0.5 0 0 0 655.499975172146 624.995017306149 L 655.156205330396 590.500346158325  Z " stroke-width="1" stroke="#333333" fill="none" />
  </g>
</svg>