<?xml version="1.0" encoding="utf-8"?>
<svg version="1.1" xmlns:xlink="http://www.w3.org/1999/xlink" width="20px" height="17px" xmlns="http://www.w3.org/2000/svg">
  <g transform="matrix(1 0 0 1 -547 -155 )">
    <path d="M 11.7241379310345 15.5833333333333  L 11.7241379310345 17  C 16.2947703434273 17  20 13.1944203735617  20 8.5  C 20 3.80557962643825  16.2947703434273 0  11.7241379310345 0  C 7.15350551864171 0  3.44827586206897 3.80557962643825  3.44827586206897 8.5  L 3.44827586206897 12.8916666666667  L 0.96551724137931 10.3416666666667  L 0 11.3333333333333  L 4.13793103448276 15.5833333333333  L 8.27586206896552 11.3333333333333  L 7.31034482758621 10.3416666666667  L 4.82758620689655 12.8916666666667  L 4.82758620689655 8.5  C 4.82758620689655 4.58798302203188  7.91527758737384 1.41666666666667  11.7241379310345 1.41666666666667  C 15.5329982746951 1.41666666666667  18.6206896551724 4.58798302203188  18.6206896551724 8.5  C 18.6206896551724 12.4120169779681  15.5329982746951 15.5833333333333  11.7241379310345 15.5833333333333  Z " fill-rule="nonzero" fill="#0000ff" stroke="none" transform="matrix(1 0 0 1 547 155 )" />
  </g>
</svg>