<?xml version="1.0" encoding="utf-8"?>
<svg version="1.1" xmlns:xlink="http://www.w3.org/1999/xlink" width="60px" height="60px" xmlns="http://www.w3.org/2000/svg">
  <g transform="matrix(1 0 0 1 -93 -148 )">
    <path d="M 123 152  C 137.56 152  149 163.44  149 178  C 149 192.56  137.56 204  123 204  C 108.44 204  97 192.56  97 178  C 97 163.44  108.44 152  123 152  Z " fill-rule="nonzero" fill="#ffffff" stroke="none" fill-opacity="0" />
    <path d="M 123 150.5  C 138.4 150.5  150.5 162.6  150.5 178  C 150.5 193.4  138.4 205.5  123 205.5  C 107.6 205.5  95.5 193.4  95.5 178  C 95.5 162.6  107.6 150.5  123 150.5  Z " stroke-width="5" stroke="#d9001b" fill="none" />
  </g>
</svg>