<?xml version="1.0" encoding="utf-8"?>
<svg version="1.1" xmlns:xlink="http://www.w3.org/1999/xlink" width="38px" height="38px" xmlns="http://www.w3.org/2000/svg">
  <g transform="matrix(1 0 0 1 -1062 -439 )">
    <path d="M 1081 443  C 1089.4 443  1096 449.6  1096 458  C 1096 466.4  1089.4 473  1081 473  C 1072.6 473  1066 466.4  1066 458  C 1066 449.6  1072.6 443  1081 443  Z " fill-rule="nonzero" fill="#ffffff" stroke="none" fill-opacity="0" />
    <path d="M 1081 441.5  C 1090.24 441.5  1097.5 448.76  1097.5 458  C 1097.5 467.24  1090.24 474.5  1081 474.5  C 1071.76 474.5  1064.5 467.24  1064.5 458  C 1064.5 448.76  1071.76 441.5  1081 441.5  Z " stroke-width="5" stroke="#d9001b" fill="none" />
  </g>
</svg>