<?xml version="1.0" encoding="utf-8"?>
<svg version="1.1" xmlns:xlink="http://www.w3.org/1999/xlink" width="25px" height="25px" xmlns="http://www.w3.org/2000/svg">
  <g transform="matrix(1 0 0 1 -254 -265 )">
    <path d="M 24 23.9117647058824  L 0 23.9117647058824  L 0 1.67647058823529  L 4.85294117647059 1.67647058823529  L 4.85294117647059 0.0882352941176471  L 6.44117647058824 0.0882352941176471  L 6.44117647058824 2  L 17.5588235294118 2  L 17.5588235294118 0.0882352941176471  L 19.1470588235294 0.0882352941176471  L 19.1470588235294 1.67647058823529  L 24 1.67647058823529  L 24 23.9117647058824  Z M 2 22.3235294117647  L 22 22.3235294117647  L 22 8  L 2 8  L 2 22.3235294117647  Z M 1.67647058823529 3.26470588235294  L 1.67647058823529 6.44117647058824  L 22.3235294117647 6.44117647058824  L 22.3235294117647 3.26470588235294  L 19.1470588235294 3.26470588235294  L 19.1470588235294 4.85294117647059  L 17.5588235294118 4.85294117647059  L 17.5588235294118 3.26470588235294  L 6.44117647058824 3.26470588235294  L 6.44117647058824 4.85294117647059  L 4.85294117647059 4.85294117647059  L 4.85294117647059 3.26470588235294  L 1.67647058823529 3.26470588235294  Z " fill-rule="nonzero" fill="#7f7f7f" stroke="none" transform="matrix(1 0 0 1 254 265 )" />
  </g>
</svg>