<?xml version="1.0" encoding="utf-8"?>
<svg version="1.1" xmlns:xlink="http://www.w3.org/1999/xlink" width="19px" height="19px" xmlns="http://www.w3.org/2000/svg">
  <g transform="matrix(1 0 0 1 -1331 -315 )">
    <path d="M 1340.5 315  C 1345.82 315  1350 319.18  1350 324.5  C 1350 329.82  1345.82 334  1340.5 334  C 1335.18 334  1331 329.82  1331 324.5  C 1331 319.18  1335.18 315  1340.5 315  Z " fill-rule="nonzero" fill="#ffffff" stroke="none" />
    <path d="M 1340.5 315.5  C 1345.54 315.5  1349.5 319.46  1349.5 324.5  C 1349.5 329.54  1345.54 333.5  1340.5 333.5  C 1335.46 333.5  1331.5 329.54  1331.5 324.5  C 1331.5 319.46  1335.46 315.5  1340.5 315.5  Z " stroke-width="1" stroke="#c280ff" fill="none" />
  </g>
</svg>