<?xml version="1.0" encoding="utf-8"?>
<svg version="1.1" xmlns:xlink="http://www.w3.org/1999/xlink" width="20px" height="20px" viewBox="34 441  20 20" xmlns="http://www.w3.org/2000/svg">
  <path d="M 44 441  C 49.6 441  54 445.4  54 451  C 54 456.6  49.6 461  44 461  C 38.4 461  34 456.6  34 451  C 34 445.4  38.4 441  44 441  Z " fill-rule="nonzero" fill="#ffffff" stroke="none" />
  <path d="M 44 441.5  C 49.32 441.5  53.5 445.68  53.5 451  C 53.5 456.32  49.32 460.5  44 460.5  C 38.68 460.5  34.5 456.32  34.5 451  C 34.5 445.68  38.68 441.5  44 441.5  Z " stroke-width="1" stroke="#797979" fill="none" />
  <path d="M 44 456  C 41.2 456  39 453.8  39 451  C 39 448.2  41.2 446  44 446  C 46.8 446  49 448.2  49 451  C 49 453.8  46.8 456  44 456  " fill-rule="nonzero" fill="#797979" stroke="none" />
</svg>