<?xml version="1.0" encoding="utf-8"?>
<svg version="1.1" xmlns:xlink="http://www.w3.org/1999/xlink" width="41px" height="41px" xmlns="http://www.w3.org/2000/svg">
  <g transform="matrix(1 0 0 1 -15 -140 )">
    <path d="M 40.779625 5.36758333333333  C 40.6344166666667 5.32316666666667  40.4533333333333 5.29925  40.236375 6  L 26.501375 6  L 26.501375 7.84125  L 30.550125 7.84125  L 30.550125 11.8626666666667  L 26.501375 11.8626666666667  L 26.501375 13.1439166666667  L 30.550125 13.1439166666667  L 30.550125 17.1704583333333  L 26.501375 17.1704583333333  L 26.501375 18.4875833333333  L 30.550125 18.4875833333333  L 30.550125 22.2954583333333  L 26.501375 22.2954583333333  L 26.501375 23.821  L 30.550125 23.821  L 30.550125 27.6374166666667  L 26.501375 27.6374166666667  L 26.501375 29.1629583333333  L 30.550125 29.1629583333333  L 30.550125 33.0015833333333  L 26.501375 33.0015833333333  L 26.501375 35  L 40.236375 35  C 40.4533333333333 35.736625  40.6344166666667 35.480375  40.779625 35.0362083333333  C 40.9248333333333 34.588625  41 34.22475  41 33.9497083333333  L 41 5.76391666666667  C 41 5.54525  40.9248333333333 5.41370833333333  40.779625 5.36758333333333  Z M 38.4545833333333 33.0015833333333  L 38.4545833333333 32.9981666666667  L 31.8655416666667 32.9981666666667  L 31.8655416666667 29.1629583333333  L 38.4545833333333 29.1629583333333  L 38.4545833333333 33.0015833333333  Z M 38.4545833333333 23.8192916666667  L 38.4545833333333 27.6374166666667  L 31.8655416666667 27.6374166666667  L 31.8655416666667 23.8192916666667  L 38.4545833333333 23.8192916666667  Z M 38.4545833333333 22.2971666666667  L 38.4545833333333 22.29375  L 31.8655416666667 22.29375  L 31.8655416666667 18.5029583333333  L 38.4545833333333 18.5029583333333  L 38.4545833333333 22.2971666666667  Z M 38.4545833333333 17.1704583333333  L 38.4545833333333 17.16875  L 31.8655416666667 17.16875  L 31.8655416666667 13.1473333333333  L 38.4545833333333 13.1473333333333  L 38.4545833333333 17.1704583333333  Z M 38.4545833333333 11.8660833333333  L 38.4545833333333 11.8404583333333  L 31.8655416666667 11.8404583333333  L 31.8655416666667 7.84295833333333  L 38.4545833333333 7.84295833333333  L 38.4545833333333 11.8660833333333  Z M 0 4.679125  L 0 4.66545833333333  L 0 36.4421666666667  L 24 40.625875  L 24 0.374125  L 0 4.679125  Z M 14.3380416666667 28.7  L 14.3380416666667 28.7034166666667  C 14.2457916666667 28.454  13.811875 27.3948333333333  13.043125 25.5207916666667  C 12.2760833333333 23.6484583333333  11.813125 22.5585416666667  11.6781666666667 22.247625  L 11.6354583333333 22.247625  L 9.0405 28.42325  L 5.57258333333333 28.1892083333333  L 9.68625 20.5017083333333  L 5.919375 12.8142083333333  L 9.455625 12.628  L 11.792625 18.6430416666667  L 11.83875 18.6430416666667  L 14.478125 12.3546666666667  L 18.13225 12.1240416666667  L 13.781125 20.443625  L 18.2655 28.930625  L 14.3380416666667 28.7  Z " fill-rule="nonzero" fill="#217346" stroke="none" transform="matrix(1 0 0 1 15 140 )" />
  </g>
</svg>