<?xml version="1.0" encoding="utf-8"?>
<svg version="1.1" xmlns:xlink="http://www.w3.org/1999/xlink" width="15px" height="15px" xmlns="http://www.w3.org/2000/svg">
  <g transform="matrix(1 0 0 1 -239 -25 )">
    <path d="M 5.189453125 7.65340909090909  L 7.376953125 10.6747159090909  C 7.40656831036464 10.7159969924536  7.45194794529215 10.7401168207191  7.5 10.7401168207191  C 7.54805205470785 10.7401168207191  7.59343168963536 10.7159969924536  7.623046875 10.6747159090909  L 9.810546875 7.65553977272727  C 9.890625 7.54474431818182  9.818359375 7.38068181818182  9.6875 7.38068181818182  L 8.240234375 7.38068181818182  L 8.240234375 0.170454545454545  C 8.240234375 0.0767045454545453  8.169921875 0  8.083984375 0  L 6.912109375 0  C 6.826171875 0  6.755859375 0.0767045454545453  6.755859375 0.170454545454545  L 6.755859375 7.37855113636364  L 5.3125 7.37855113636364  C 5.181640625 7.37855113636364  5.109375 7.54261363636364  5.189453125 7.65340909090909  Z M 14.8046875 10.0994318181818  C 14.8046875 10.0056818181818  14.734375 9.92897727272727  14.6484375 9.92897727272727  L 13.4765625 9.92897727272727  C 13.390625 9.92897727272727  13.3203125 10.0056818181818  13.3203125 10.0994318181818  L 13.3203125 13.3806818181818  L 1.6796875 13.3806818181818  L 1.6796875 10.0994318181818  C 1.6796875 10.0056818181818  1.609375 9.92897727272727  1.5234375 9.92897727272727  L 0.3515625 9.92897727272727  C 0.265625 9.92897727272727  0.1953125 10.0056818181818  0.1953125 10.0994318181818  L 0.1953125 14.3181818181818  C 0.1953125 14.6953125  0.474609375 15  0.8203125 15  L 14.1796875 15  C 14.525390625 15  14.8046875 14.6953125  14.8046875 14.3181818181818  L 14.8046875 10.0994318181818  Z " fill-rule="nonzero" fill="#333333" stroke="none" transform="matrix(1 0 0 1 239 25 )" />
  </g>
</svg>