<?xml version="1.0" encoding="utf-8"?>
<svg version="1.1" xmlns:xlink="http://www.w3.org/1999/xlink" width="41px" height="39px" xmlns="http://www.w3.org/2000/svg">
  <g transform="matrix(1 0 0 1 -15 -76 )">
    <path d="M 40.12875 5.93478260869565  L 40.1185 6  L 25.5259166666667 6  L 25.5259166666667 11.3371304347826  C 26.4057083333333 10.6758260869565  27.45975 10.3400869565217  28.694875 10.3400869565217  L 28.694875 15.5932173913043  L 33.9462916666667 15.5932173913043  C 33.9206666666667 17.0667391304348  33.4081666666667 18.309652173913  32.4070833333333 19.3117826086957  C 31.4094166666667 20.3156086956522  30.1555 20.8310869565217  28.66925 20.865  C 27.516125 20.8310869565217  26.4655 20.4868695652174  25.5447083333333 19.8221739130435  L 25.5447083333333 23  L 37.023 23  L 37.023 25  L 25.5412916666667 25  L 25.5412916666667 27  L 37.01275 27  L 37.01275 29  L 25.5344583333333 29  L 25.5344583333333 33  L 40.12875 33  C 40.7198333333333 33.1143913043478  41 32.8057826086957  41 32.2038260869565  L 41 6.7995652173913  C 41 6.21965217391304  40.7198333333333 5.93478260869565  40.12875 5.93478260869565  Z M 34.8055833333333 14.7284347826087  L 29.52 14.7284347826087  L 29.52 9.43121739130435  C 31.00625 9.46513043478261  32.2533333333333 9.97721739130435  33.2578333333333 10.9742608695652  C 34.2589166666667 11.9713043478261  34.7799583333333 13.2226956521739  34.8055833333333 14.7284347826087  Z M 14.1057083333333 14.8166086956522  L 14.104 14.8166086956522  C 14.0134583333333 14.4757826086957  13.8648333333333 14.2112608695652  13.6547083333333 14.0162608695652  C 13.4497083333333 13.826347826087  13.1729583333333 13.6873043478261  12.8295833333333 13.5991304347826  C 12.4452083333333 13.4956956521739  12.048875 13.4465217391304  11.6508333333333 13.4465217391304  L 10.4208333333333 13.4702608695652  L 10.4208333333333 18.5555217391304  L 10.46525 18.5555217391304  C 10.911125 18.582652173913  11.3792083333333 18.582652173913  11.874625 18.5555217391304  C 12.3615 18.5300869565217  12.82275 18.4029130434783  13.2566666666667 18.174  C 13.791375 17.7924782608696  14.1108333333333 17.2837826086957  14.2150416666667 16.6241739130435  C 14.3175416666667 15.9611739130435  14.2816666666667 15.3253043478261  14.1057083333333 14.7403043478261  L 14.1057083333333 14.8166086956522  Z M 23 0.220434782608696  L 0 4.33917391304348  L 0 34.769347826087  L 23 38.7795652173913  L 23 0.220434782608696  Z M 17.8640416666667 15.191347826087  C 17.92725 16.224  17.7905833333333 17.178652173913  17.4472083333333 18.0519130434783  C 16.8065833333333 19.5254347826087  15.8499166666667 20.4682173913044  14.570375 20.8751739130435  C 13.2908333333333 21.2804347826087  11.9087916666667 21.4381304347826  10.4208333333333 21.3482608695652  L 10.4208333333333 27.1507826086957  L 8 26.7963913043478  L 8 10.8538695652174  L 12.22825 10.6012173913043  C 13.1336666666667 10.5452608695652  14.0288333333333 10.6436086956522  14.9035 10.9064347826087  C 15.7832916666667 11.1641739130435  16.4785833333333 11.6847391304348  16.9927916666667 12.4698260869565  C 17.5052916666667 13.2515217391304  17.794 14.1586956521739  17.8640416666667 15.191347826087  Z " fill-rule="nonzero" fill="#d24726" stroke="none" transform="matrix(1 0 0 1 15 76 )" />
  </g>
</svg>