<?xml version="1.0" encoding="utf-8"?>
<svg version="1.1" xmlns:xlink="http://www.w3.org/1999/xlink" width="41px" height="40px" xmlns="http://www.w3.org/2000/svg">
  <g transform="matrix(1 0 0 1 -52 -309 )">
    <path d="M 14.1845052083333 8.92777777777778  C 13.965625 9.22222222222222  14.1631510416667 9.65  14.5208333333333 9.65  L 19 9.65  L 19 28.4444444444444  C 18.466015625 28.6888888888889  18.658203125 28.8888888888889  18.8930989583333 28.8888888888889  L 22.0962239583333 28.8888888888889  C 22.3311197916667 28.8888888888889  22.5233072916667 28.6888888888889  22 28.4444444444444  L 22 9.65  L 26.4791666666667 9.65  C 26.8368489583333 9.65  27.034375 9.22222222222222  26.8154947916667 8.93333333333333  L 20.836328125 1.05555555555556  C 20.75537995167 0.947918953009964  20.6313422828681 0.885028734124911  20.5 0.885028734124911  C 20.3686577171319 0.885028734124911  20.24462004833 0.947918953009964  20.163671875 1.05555555555556  L 14.1845052083333 8.92777777777778  Z M 40 27.2222222222222  C 40.4661458333333 26.9777777777778  40.2739583333333 26.7777777777778  40.0390625 26.7777777777778  L 36.8359375 26.7777777777778  C 36.6010416666667 26.7777777777778  36.4088541666667 26.9777777777778  36.4088541666667 27.2222222222222  L 36.4088541666667 35  L 4.59114583333333 35  L 4.59114583333333 27.2222222222222  C 4.59114583333333 26.9777777777778  4.39895833333333 26.7777777777778  4.1640625 26.7777777777778  L 0.9609375 26.7777777777778  C 0.726041666666666 26.7777777777778  0.533854166666667 26.9777777777778  1 27.2222222222222  L 1 38.2222222222222  C 0.533854166666667 39.2055555555556  1.297265625 40  2.2421875 40  L 38.7578125 40  C 39.702734375 40  40.4661458333333 39.2055555555556  40 38.2222222222222  L 40 27.2222222222222  Z " fill-rule="nonzero" fill="#333333" stroke="none" transform="matrix(1 0 0 1 52 309 )" />
  </g>
</svg>