<?xml version="1.0" encoding="utf-8"?>
<svg version="1.1" xmlns:xlink="http://www.w3.org/1999/xlink" width="37px" height="43px" xmlns="http://www.w3.org/2000/svg">
  <g transform="matrix(1 0 0 1 -17 -269 )">
    <path d="M 27.8463541666667 1.63169642857143  L 35.3619791666667 9.11830357142857  C 35.8116319444445 9.56622023809524  36.1970486111111 10.1741071428571  36.5182291666667 10.9419642857143  C 36.8394097222222 11.7098214285714  37 12.4136904761905  37 13.0535714285714  L 37 40.6964285714286  C 37 41.3363095238095  36.7751736111111 41.8802083333333  36.3255208333333 42.328125  C 35.8758680555556 42.7760416666667  35.3298611111111 43  34.6875 43  L 2.3125 43  C 1.67013888888889 43  1.12413194444444 42.7760416666667  0.674479166666667 42.328125  C 0.224826388888889 41.8802083333333  0 41.3363095238095  0 40.6964285714286  L 0 2.30357142857143  C 0 1.66369047619047  0.224826388888889 1.11979166666667  0.674479166666667 0.671875  C 1.12413194444444 0.223958333333335  1.67013888888889 0  2.3125 0  L 23.8958333333333 0  C 24.5381944444444 0  25.2447916666667 0.15997023809524  26.015625 0.479910714285715  C 26.7864583333333 0.79985119047619  27.3967013888889 1.18377976190476  27.8463541666667 1.63169642857143  Z M 25.654296875 3.79129464285715  C 25.4615885416667 3.59933035714286  25.1323784722222 3.42336309523809  24.6666666666667 3.26339285714286  L 24.6666666666667 12.2857142857143  L 33.7239583333333 12.2857142857143  C 33.5633680555556 11.8218005952381  33.38671875 11.4938616071429  33.1940104166667 11.3018973214286  L 25.654296875 3.79129464285715  Z M 3 40  L 34 40  L 34 16  L 23.8958333333333 16  C 23.2534722222222 15.3571428571429  22.7074652777778 15.1331845238095  22.2578125 14.6852678571429  C 21.8081597222222 14.2373511904762  21.5833333333333 13.6934523809524  21.5833333333333 13.0535714285714  L 21.5833333333333 3  L 3 3  L 3 40  Z " fill-rule="nonzero" fill="#333333" stroke="none" transform="matrix(1 0 0 1 17 269 )" />
  </g>
</svg>