<?xml version="1.0" encoding="utf-8"?>
<svg version="1.1" xmlns:xlink="http://www.w3.org/1999/xlink" width="20px" height="20px" viewBox="31 696.5  20 20" xmlns="http://www.w3.org/2000/svg">
  <path d="M 41 696.5  C 46.6 696.5  51 700.9  51 706.5  C 51 712.1  46.6 716.5  41 716.5  C 35.4 716.5  31 712.1  31 706.5  C 31 700.9  35.4 696.5  41 696.5  Z " fill-rule="nonzero" fill="#ffffff" stroke="none" />
  <path d="M 41 697  C 46.32 697  50.5 701.18  50.5 706.5  C 50.5 711.82  46.32 716  41 716  C 35.68 716  31.5 711.82  31.5 706.5  C 31.5 701.18  35.68 697  41 697  Z " stroke-width="1" stroke="#797979" fill="none" />
  <path d="M 41 711.5  C 38.2 711.5  36 709.3  36 706.5  C 36 703.7  38.2 701.5  41 701.5  C 43.8 701.5  46 703.7  46 706.5  C 46 709.3  43.8 711.5  41 711.5  " fill-rule="nonzero" fill="#797979" stroke="none" />
</svg>