<?xml version="1.0" encoding="utf-8"?>
<svg version="1.1" xmlns:xlink="http://www.w3.org/1999/xlink" width="20px" height="20px" viewBox="120 696.5  20 20" xmlns="http://www.w3.org/2000/svg">
  <path d="M 130 696.5  C 135.6 696.5  140 700.9  140 706.5  C 140 712.1  135.6 716.5  130 716.5  C 124.4 716.5  120 712.1  120 706.5  C 120 700.9  124.4 696.5  130 696.5  Z " fill-rule="nonzero" fill="#ffffff" stroke="none" />
  <path d="M 130 697  C 135.32 697  139.5 701.18  139.5 706.5  C 139.5 711.82  135.32 716  130 716  C 124.68 716  120.5 711.82  120.5 706.5  C 120.5 701.18  124.68 697  130 697  Z " stroke-width="1" stroke="#797979" fill="none" />
  <path d="M 130 711.5  C 127.2 711.5  125 709.3  125 706.5  C 125 703.7  127.2 701.5  130 701.5  C 132.8 701.5  135 703.7  135 706.5  C 135 709.3  132.8 711.5  130 711.5  " fill-rule="nonzero" fill="#797979" stroke="none" />
</svg>