<?xml version="1.0" encoding="utf-8"?>
<svg version="1.1" xmlns:xlink="http://www.w3.org/1999/xlink" width="20px" height="20px" viewBox="30 31  20 20" xmlns="http://www.w3.org/2000/svg">
  <path d="M 40 31  C 45.6 31  50 35.4  50 41  C 50 46.6  45.6 51  40 51  C 34.4 51  30 46.6  30 41  C 30 35.4  34.4 31  40 31  Z " fill-rule="nonzero" fill="#f0f0f0" stroke="none" />
  <path d="M 40 31.5  C 45.32 31.5  49.5 35.68  49.5 41  C 49.5 46.32  45.32 50.5  40 50.5  C 34.68 50.5  30.5 46.32  30.5 41  C 30.5 35.68  34.68 31.5  40 31.5  Z " stroke-width="1" stroke="#797979" fill="none" />
  <path d="M 40 46  C 37.2 46  35 43.8  35 41  C 35 38.2  37.2 36  40 36  C 42.8 36  45 38.2  45 41  C 45 43.8  42.8 46  40 46  " fill-rule="nonzero" fill="#797979" stroke="none" />
</svg>