<?xml version="1.0" encoding="utf-8"?>
<svg version="1.1" xmlns:xlink="http://www.w3.org/1999/xlink" width="42px" height="42px" xmlns="http://www.w3.org/2000/svg">
  <g transform="matrix(1 0 0 1 -707 -1046 )">
    <path d="M 728 1050  C 737.52 1050  745 1057.48  745 1067  C 745 1076.52  737.52 1084  728 1084  C 718.48 1084  711 1076.52  711 1067  C 711 1057.48  718.48 1050  728 1050  Z " fill-rule="nonzero" fill="#ffffff" stroke="none" fill-opacity="0" />
    <path d="M 728 1048.5  C 738.36 1048.5  746.5 1056.64  746.5 1067  C 746.5 1077.36  738.36 1085.5  728 1085.5  C 717.64 1085.5  709.5 1077.36  709.5 1067  C 709.5 1056.64  717.64 1048.5  728 1048.5  Z " stroke-width="5" stroke="#d9001b" fill="none" />
  </g>
</svg>