<?xml version="1.0" encoding="utf-8"?>
<svg version="1.1" xmlns:xlink="http://www.w3.org/1999/xlink" width="58px" height="58px" xmlns="http://www.w3.org/2000/svg">
  <g transform="matrix(1 0 0 1 -1447 -1876 )">
    <path d="M 1.16 29  C 1.16 13.6261333333333  13.6261333333333 1.16  29 1.16  C 44.3738666666667 1.16  56.84 13.6261333333333  56.84 29  C 56.84 44.3738666666667  44.3738666666667 56.84  29 56.84  C 13.6261333333333 56.84  1.16 44.3738666666667  1.16 29  Z M 5.8 29  C 5.8 41.8064  16.1936 52.2  29 52.2  C 41.8064 52.2  52.2 41.8064  52.2 29  C 52.2 16.1936  41.8064 5.8  29 5.8  C 16.1936 5.8  5.8 16.1936  5.8 29  Z M 25.9066666666667 18.1733333333333  C 26.4944 18.1733333333333  27.1130666666667 18.4208  27.5461333333333 18.8538666666667  L 36.0528 27.3605333333333  C 36.5168 27.8245333333333  36.7333333333333 28.4122666666667  36.7333333333333 29  C 36.7333333333333 29.5877333333333  36.4858666666667 30.1754666666667  36.0528 30.6394666666667  L 27.5461333333333 39.1461333333333  C 27.1130666666667 39.6101333333333  26.4944 39.8266666666667  25.9066666666667 39.8266666666667  C 25.3189333333333 39.8266666666667  24.7312 39.6101333333333  24.2672 39.1461333333333  C 23.8341333333333 38.7130666666667  23.5866666666667 38.0944  23.5866666666667 37.5066666666667  C 23.5866666666667 36.9189333333333  23.8032 36.3312  24.2672 35.8672  L 31.1344 29  L 24.2672 22.1328  C 23.8341333333333 21.6997333333333  23.5866666666667 21.0810666666667  23.5866666666667 20.4933333333333  C 23.5866666666667 19.9056  23.8032 19.2869333333333  24.2672 18.8538666666667  C 24.7312 18.4208  25.3189333333333 18.1733333333333  25.9066666666667 18.1733333333333  Z " fill-rule="nonzero" fill="#7f7f7f" stroke="none" transform="matrix(1 0 0 1 1447 1876 )" />
  </g>
</svg>