<?xml version="1.0" encoding="utf-8"?>
<svg version="1.1" xmlns:xlink="http://www.w3.org/1999/xlink" width="34px" height="30px" xmlns="http://www.w3.org/2000/svg">
  <g transform="matrix(1 0 0 1 -551 -1471 )">
    <path d="M 23.6530643274854 25.7238307349666  L 33.0682144249513 16.2321380846325  C 34.3105730994152 14.9796881959911  34.3105730994152 12.9490423162583  33.0682144249513 11.6965924276169  L 22.4639259259259 1.00616926503341  C 21.221567251462 -0.24628062360802  19.2073489278752 -0.246347438752786  17.9648576998051 1.00616926503341  L 0.997996101364522 18.110846325167  C -0.244362573099416 19.3632962138085  -0.244362573099416 21.3939420935412  0.997996101364522 22.6463919821826  L 7.36056920077973 29.0606458797327  C 7.95720549520302 29.6620913555116  8.7663913151194 29.999983913961  9.61013645224172 30  L 33.2046783625731 30  C 33.6438947368421 30  34 29.6410022271715  34 29.1982182628062  L 34 26.5256124721604  C 34 26.0828285077951  33.6438947368421 25.7238307349666  33.2046783625731 25.7238307349666  L 23.6530643274854 25.7238307349666  Z M 4.74727485380117 20.3786191536748  L 13.0110643274854 12.047706013363  L 22.1157076023392 21.2263028953229  L 17.654350877193 25.7238307349666  L 10.0494191033138 25.7238307349666  L 4.74727485380117 20.3786191536748  Z " fill-rule="nonzero" fill="#000000" stroke="none" transform="matrix(1 0 0 1 551 1471 )" />
  </g>
</svg>