<?xml version="1.0" encoding="utf-8"?>
<svg version="1.1" xmlns:xlink="http://www.w3.org/1999/xlink" width="32px" height="30px" xmlns="http://www.w3.org/2000/svg">
  <g transform="matrix(1 0 0 1 -618 -1471 )">
    <path d="M 4.01203669724771 24.006432748538  L 0 28.127485380117  L 5.8668623853211 30  L 7.94833027522936 27.9269005847953  L 4.01203669724771 24.006432748538  Z M 9.75442201834863 12.019298245614  L 7.3165504587156 14.0918128654971  C 6.68528181368241 14.6467098990826  6.43761650125825 15.5177118522108  6.68300917431193 16.3198830409357  L 7.44924770642202 18.8245614035088  L 4.4588623853211 21.8035087719298  L 10.1090642201835 27.4309941520468  L 13.0953394495413 24.4567251461988  L 15.6048440366972 25.2216374269006  C 16.4110091743119 25.4672514619883  17.2870458715596 25.2210526315789  17.8448440366973 24.5912280701754  L 19.9321834862385 22.1561403508772  L 9.75442201834863 12.019298245614  Z M 31.135119266055 9.08771929824561  C 32.2612844036697 7.81637426900585  32.2008073394495 5.89298245614035  30.9971376146789 4.69415204678363  L 27.2863119266055 0.99824561403509  C 26.0832293577982 -0.199999999999998  24.1520733944954 -0.260233918128653  22.8755963302752 0.860818713450294  L 11.1882568807339 10.8  L 21.1564036697248 20.7286549707602  L 31.135119266055 9.08771929824561  Z " fill-rule="nonzero" fill="#000000" stroke="none" transform="matrix(1 0 0 1 618 1471 )" />
  </g>
</svg>