<?xml version="1.0" encoding="utf-8"?>
<svg version="1.1" xmlns:xlink="http://www.w3.org/1999/xlink" width="18px" height="18px" xmlns="http://www.w3.org/2000/svg">
  <g transform="matrix(1 0 0 1 -692 -1471 )">
    <path d="M 701 1473  C 704.92 1473  708 1476.08  708 1480  C 708 1483.92  704.92 1487  701 1487  C 697.08 1487  694 1483.92  694 1480  C 694 1476.08  697.08 1473  701 1473  Z " fill-rule="nonzero" fill="#ffffff" stroke="none" />
    <path d="M 701 1472.5  C 705.2 1472.5  708.5 1475.8  708.5 1480  C 708.5 1484.2  705.2 1487.5  701 1487.5  C 696.8 1487.5  693.5 1484.2  693.5 1480  C 693.5 1475.8  696.8 1472.5  701 1472.5  Z " stroke-width="3" stroke="#333333" fill="none" />
  </g>
</svg>