<?xml version="1.0" encoding="utf-8"?>
<svg version="1.1" xmlns:xlink="http://www.w3.org/1999/xlink" width="6px" height="6px" xmlns="http://www.w3.org/2000/svg">
  <g transform="matrix(1 0 0 1 -751 -1483 )">
    <path d="M 754 1484  C 755.12 1484  756 1484.88  756 1486  C 756 1487.12  755.12 1488  754 1488  C 752.88 1488  752 1487.12  752 1486  C 752 1484.88  752.88 1484  754 1484  Z " fill-rule="nonzero" fill="#ffffff" stroke="none" />
    <path d="M 754 1484  C 755.12 1484  756 1484.88  756 1486  C 756 1487.12  755.12 1488  754 1488  C 752.88 1488  752 1487.12  752 1486  C 752 1484.88  752.88 1484  754 1484  Z " stroke-width="2" stroke="#333333" fill="none" />
  </g>
</svg>