<?xml version="1.0" encoding="utf-8"?>
<svg version="1.1" xmlns:xlink="http://www.w3.org/1999/xlink" width="31px" height="31px" xmlns="http://www.w3.org/2000/svg">
  <g transform="matrix(1 0 0 1 -993 -1471 )">
    <path d="M 1008.5 1473  C 1016.06 1473  1022 1478.94  1022 1486.5  C 1022 1494.06  1016.06 1500  1008.5 1500  C 1000.94 1500  995 1494.06  995 1486.5  C 995 1478.94  1000.94 1473  1008.5 1473  Z " fill-rule="nonzero" fill="#0000ff" stroke="none" />
    <path d="M 1008.5 1472.5  C 1016.34 1472.5  1022.5 1478.66  1022.5 1486.5  C 1022.5 1494.34  1016.34 1500.5  1008.5 1500.5  C 1000.66 1500.5  994.5 1494.34  994.5 1486.5  C 994.5 1478.66  1000.66 1472.5  1008.5 1472.5  Z " stroke-width="3" stroke="#333333" fill="none" />
  </g>
</svg>