<?xml version="1.0" encoding="utf-8"?>
<svg version="1.1" xmlns:xlink="http://www.w3.org/1999/xlink" width="31px" height="31px" xmlns="http://www.w3.org/2000/svg">
  <g transform="matrix(1 0 0 1 -927 -1471 )">
    <path d="M 942.5 1473  C 950.06 1473  956 1478.94  956 1486.5  C 956 1494.06  950.06 1500  942.5 1500  C 934.94 1500  929 1494.06  929 1486.5  C 929 1478.94  934.94 1473  942.5 1473  Z " fill-rule="nonzero" fill="#ffffff" stroke="none" />
    <path d="M 942.5 1472.5  C 950.34 1472.5  956.5 1478.66  956.5 1486.5  C 956.5 1494.34  950.34 1500.5  942.5 1500.5  C 934.66 1500.5  928.5 1494.34  928.5 1486.5  C 928.5 1478.66  934.66 1472.5  942.5 1472.5  Z " stroke-width="3" stroke="#333333" fill="none" />
  </g>
</svg>