<?xml version="1.0" encoding="utf-8"?>
<svg version="1.1" xmlns:xlink="http://www.w3.org/1999/xlink" width="31px" height="31px" xmlns="http://www.w3.org/2000/svg">
  <g transform="matrix(1 0 0 1 -1059 -1471 )">
    <path d="M 1074.5 1473  C 1082.06 1473  1088 1478.94  1088 1486.5  C 1088 1494.06  1082.06 1500  1074.5 1500  C 1066.94 1500  1061 1494.06  1061 1486.5  C 1061 1478.94  1066.94 1473  1074.5 1473  Z " fill-rule="nonzero" fill="#333333" stroke="none" />
    <path d="M 1074.5 1472.5  C 1082.34 1472.5  1088.5 1478.66  1088.5 1486.5  C 1088.5 1494.34  1082.34 1500.5  1074.5 1500.5  C 1066.66 1500.5  1060.5 1494.34  1060.5 1486.5  C 1060.5 1478.66  1066.66 1472.5  1074.5 1472.5  Z " stroke-width="3" stroke="#333333" fill="none" />
  </g>
</svg>