<?xml version="1.0" encoding="utf-8"?>
<svg version="1.1" xmlns:xlink="http://www.w3.org/1999/xlink" width="48px" height="46px" xmlns="http://www.w3.org/2000/svg">
  <g transform="matrix(1 0 0 1 -52 -180 )">
    <path d="M 16.60625 10.2669444444444  C 16.35 10.6055555555556  16.58125 11.0975  17 11.0975  L 22 11.0975  L 22 32.7111111111111  C 21.61875 32.9922222222222  21.84375 33.2222222222222  22.11875 33.2222222222222  L 25.86875 33.2222222222222  C 26.14375 33.2222222222222  26.36875 32.9922222222222  26 32.7111111111111  L 26 11.0975  L 31 11.0975  C 31.41875 11.0975  31.65 10.6055555555556  31.39375 10.2733333333333  L 24.39375 1.21388888888889  C 24.2989814068332 1.09010679596146  24.1537665750651 1.01778304424365  24 1.01778304424365  C 23.8462334249349 1.01778304424365  23.7010185931668 1.09010679596146  23.60625 1.21388888888889  L 16.60625 10.2669444444444  Z M 47 31.3055555555556  C 47.375 31.0244444444444  47.15 30.7944444444444  46.875 30.7944444444444  L 43.125 30.7944444444444  C 42.85 30.7944444444444  42.625 31.0244444444444  42.625 31.3055555555556  L 42.625 41  L 5.375 41  L 5.375 31.3055555555556  C 5.375 31.0244444444444  5.15 30.7944444444444  4.875 30.7944444444444  L 1.125 30.7944444444444  C 0.85 30.7944444444444  0.625 31.0244444444444  1 31.3055555555556  L 1 43.9555555555556  C 0.625 45.0863888888889  1.51875 46  2.625 46  L 45.375 46  C 46.48125 46  47.375 45.0863888888889  47 43.9555555555556  L 47 31.3055555555556  Z " fill-rule="nonzero" fill="#000000" stroke="none" transform="matrix(1 0 0 1 52 180 )" />
  </g>
</svg>