<?xml version="1.0" encoding="utf-8"?>
<svg version="1.1" xmlns:xlink="http://www.w3.org/1999/xlink" width="1053px" height="31px" xmlns="http://www.w3.org/2000/svg">
  <g transform="matrix(1 0 0 1 -138 -355 )">
    <path d="M 5.0000000620074 2.5  L 1022.00000072339 2.5  " stroke-width="5" stroke="#c280ff" fill="none" transform="matrix(1 0 0 1 151 368 )" />
    <path d="M 5.0000000620074 -2.5  C 2.23857631285343 -2.5  0 -0.261423749153967  0 2.5  C 0 5.26142374915397  2.23857631285343 7.5  5.0000000620074 7.5  C 7.76142381116136 7.5  10.0000000620074 5.26142374915397  10.0000000620074 2.5  C 10.0000000620074 -0.261423749153968  7.76142381116137 -2.5  5.0000000620074 -2.5  Z M 1022.00000072339 -2.5  C 1019.23857697423 -2.5  1017.00000072339 -0.261423749153967  1017.00000072339 2.5  C 1017.00000072339 5.26142374915397  1019.23857697423 7.5  1022.00000072339 7.5  C 1024.76142447254 7.5  1027.00000072339 5.26142374915397  1027.00000072339 2.5  C 1027.00000072339 -0.261423749154092  1024.76142447254 -2.5  1022.00000072339 -2.5  Z " fill-rule="nonzero" fill="#c280ff" stroke="none" transform="matrix(1 0 0 1 151 368 )" />
  </g>
</svg>