<?xml version="1.0" encoding="utf-8"?>
<svg version="1.1" xmlns:xlink="http://www.w3.org/1999/xlink" width="30px" height="30px" xmlns="http://www.w3.org/2000/svg">
  <g transform="matrix(1 0 0 1 -229 -736 )">
    <path d="M 27.9872349330357 8.14711216517857  L 29.9274553571429 5.85079520089286  L 23.0606166294643 0.146275111607143  L 21.1204659598214 2.443359375  L 27.9872349330357 8.14711216517857  Z M 2.0126953125 8.14704241071429  L 8.80524553571429 2.36879185267857  L 6.8642578125 0.0725446428571429  L 0.0725446428571429 5.85079520089286  L 2.0126953125 8.14704241071429  Z M 15.7464425223214 9.18443080357143  L 13.5072544642857 9.18443080357143  L 13.5072544642857 18.0743582589286  L 20.5977260044643 22.2972237723214  L 21.7173549107143 20.4450334821429  L 15.7463727678571 16.9630998883929  L 15.7463727678571 9.18443080357143  Z M 28.4347795758929 16.5925641741071  C 28.4347795758929 9.25830078125  22.3895089285714 3.25788225446429  15 3.25788225446429  C 7.53627232142857 3.25788225446429  1.56522042410714 9.25823102678572  1.56522042410714 16.5925641741071  C 1.56522042410714 23.9271763392857  7.53627232142857 29.9274553571429  15 29.9274553571429  C 22.3895089285714 29.9274553571429  28.4347795758929 23.9271763392857  28.4347795758929 16.5925641741071  Z M 25.44921875 16.5926339285714  C 25.44921875 22.3710239955357  20.7473493303571 26.9642857142857  15 26.9642857142857  C 9.25272042410714 26.9642857142857  4.55078125 22.2972935267857  4.55078125 16.5926339285714  C 4.55078125 10.8883231026786  9.25272042410714 6.22126116071429  15 6.22126116071429  C 20.7473493303571 6.22126116071429  25.44921875 10.8882533482143  25.44921875 16.5926339285714  Z " fill-rule="nonzero" fill="#333333" stroke="none" transform="matrix(1 0 0 1 229 736 )" />
  </g>
</svg>