<?xml version="1.0" encoding="utf-8"?>
<svg version="1.1" xmlns:xlink="http://www.w3.org/1999/xlink" width="31px" height="31px" xmlns="http://www.w3.org/2000/svg">
  <g transform="matrix(1 0 0 1 -519 -736 )">
    <path d="M 29.8897058823529 29.8897058823529  L 0.110294117647059 29.8897058823529  L 0.110294117647059 2.09558823529412  L 6.06617647058824 2.09558823529412  L 6.06617647058824 0.110294117647059  L 8.05147058823529 0.110294117647059  L 8.05147058823529 2  L 21.9485294117647 2  L 21.9485294117647 0.110294117647059  L 23.9338235294118 0.110294117647059  L 23.9338235294118 2.09558823529412  L 29.8897058823529 2.09558823529412  L 29.8897058823529 29.8897058823529  Z M 2 27.9044117647059  L 28 27.9044117647059  L 28 10  L 2 10  L 2 27.9044117647059  Z M 2.09558823529412 4.08088235294118  L 2.09558823529412 8  L 27.9044117647059 8  L 27.9044117647059 4.08088235294118  L 23.9338235294118 4.08088235294118  L 23.9338235294118 6.06617647058824  L 21.9485294117647 6.06617647058824  L 21.9485294117647 4  L 8.05147058823529 4  L 8.05147058823529 6.06617647058824  L 6.06617647058824 6.06617647058824  L 6.06617647058824 4.08088235294118  L 2.09558823529412 4.08088235294118  Z " fill-rule="nonzero" fill="#333333" stroke="none" transform="matrix(1 0 0 1 519 736 )" />
  </g>
</svg>