<?xml version="1.0" encoding="utf-8"?>
<svg version="1.1" xmlns:xlink="http://www.w3.org/1999/xlink" width="17px" height="22px" xmlns="http://www.w3.org/2000/svg">
  <g transform="matrix(1 0 0 1 -196 -773 )">
    <path d="M 8.5 4.4  C 3.825 4.4  0 8.36  0 13.2  C 0 18.04  3.825 22  8.5 22  C 13.175 22  17 18.04  17 13.2  L 14.875 13.2  C 14.875 16.83  12.00625 19.8  8.5 19.8  C 4.99375 19.8  2.125 16.83  2.125 13.2  C 2.125 9.57  4.99375 6.6  8.5 6.6  L 8.5 11  L 13.8125 5.5  L 8.5 0  L 8.5 4.4  Z M 7.278125 11.77  L 7.278125 16.5  L 6.375 16.5  L 6.375 12.925  L 5.3125 13.255  L 5.3125 12.485  L 7.171875 11.77  L 7.278125 11.77  Z M 11.79375 13.75  L 11.79375 14.575  C 11.79375 14.905  11.740625 15.235  11.6875 15.455  C 11.634375 15.675  11.528125 15.895  11.36875 16.06  C 11.209375 16.225  11.05 16.335  10.890625 16.445  C 10.73125 16.555  10.51875 16.555  10.253125 16.555  C 9.9875 16.555  9.828125 16.5  9.615625 16.445  C 9.403125 16.39  9.24375 16.225  9.1375 16.06  C 9.03125 15.895  8.871875 15.675  8.81875 15.455  C 8.765625 15.235  8.7125 14.905  8.7125 14.575  L 8.7125 13.75  C 8.7125 13.42  8.765625 13.09  8.81875 12.87  C 8.871875 12.65  8.978125 12.43  9.1375 12.265  C 9.296875 12.1  9.45625 11.99  9.615625 11.88  C 9.775 11.77  9.9875 11.77  10.253125 11.77  C 10.51875 11.77  10.678125 11.825  10.890625 11.88  C 11.103125 11.935  11.2625 12.1  11.36875 12.265  C 11.475 12.43  11.634375 12.65  11.6875 12.87  C 11.740625 13.09  11.79375 13.42  11.79375 13.75  Z M 10.890625 14.685  L 10.890625 13.64  C 10.890625 13.42  10.890625 13.255  10.8375 13.09  C 10.784375 12.925  10.784375 12.815  10.73125 12.76  C 10.678125 12.705  10.625 12.595  10.51875 12.595  C 10.4125 12.595  10.359375 12.54  10.253125 12.54  C 10.146875 12.54  10.040625 12.54  9.9875 12.595  C 9.934375 12.65  9.828125 12.705  9.775 12.76  C 9.721875 12.815  9.66875 12.98  9.66875 13.09  C 9.66875 13.2  9.615625 13.42  9.615625 13.64  L 9.615625 14.685  C 9.615625 14.905  9.615625 15.07  9.66875 15.235  C 9.721875 15.4  9.721875 15.51  9.775 15.565  C 9.828125 15.62  9.88125 15.73  9.9875 15.73  C 10.09375 15.73  10.146875 15.785  10.253125 15.785  C 10.359375 15.785  10.465625 15.785  10.51875 15.73  C 10.571875 15.675  10.678125 15.62  10.73125 15.565  C 10.784375 15.51  10.8375 15.345  10.8375 15.235  C 10.8375 15.125  10.890625 14.905  10.890625 14.685  Z " fill-rule="nonzero" fill="#333333" stroke="none" transform="matrix(1 0 0 1 196 773 )" />
  </g>
</svg>