<?xml version="1.0" encoding="utf-8"?>
<svg version="1.1" xmlns:xlink="http://www.w3.org/1999/xlink" width="19px" height="22px" xmlns="http://www.w3.org/2000/svg">
  <g transform="matrix(1 0 0 1 -342 -703 )">
    <path d="M 19 13.2  C 19 8.36  14.725 4.4  9.5 4.4  L 9.5 0  L 3.5625 5.5  L 9.5 11  L 9.5 6.6  C 13.41875 6.6  16.625 9.57  16.625 13.2  C 16.625 16.83  13.41875 19.8  9.5 19.8  C 5.58125 19.8  2.375 16.83  2.375 13.2  L 0 13.2  C 0 18.04  4.275 22  9.5 22  C 14.725 22  19 18.04  19 13.2  Z M 8.19375 11.77  L 8.19375 16.5  L 7.184375 16.5  L 7.184375 12.925  L 5.996875 13.255  L 5.996875 12.485  L 8.075 11.77  L 8.19375 11.77  Z M 13.240625 13.75  L 13.240625 14.575  C 13.240625 14.905  13.18125 15.235  13.121875 15.455  C 13.0625 15.675  12.94375 15.895  12.765625 16.06  C 12.5875 16.225  12.409375 16.335  12.23125 16.445  C 12.053125 16.555  11.815625 16.555  11.51875 16.555  C 11.221875 16.555  11.04375 16.5  10.80625 16.445  C 10.56875 16.39  10.390625 16.225  10.271875 16.06  C 10.153125 15.895  9.975 15.675  9.915625 15.455  C 9.85625 15.235  9.796875 14.905  9.796875 14.575  L 9.796875 13.75  C 9.796875 13.42  9.85625 13.09  9.915625 12.87  C 9.975 12.65  10.09375 12.43  10.271875 12.265  C 10.45 12.1  10.628125 11.99  10.80625 11.88  C 10.984375 11.77  11.221875 11.77  11.51875 11.77  C 11.815625 11.77  11.99375 11.825  12.23125 11.88  C 12.46875 11.935  12.646875 12.1  12.765625 12.265  C 12.884375 12.43  13.0625 12.65  13.121875 12.87  C 13.18125 13.09  13.240625 13.42  13.240625 13.75  Z M 12.290625 14.685  L 12.290625 13.64  C 12.290625 13.42  12.290625 13.255  12.23125 13.09  C 12.171875 12.925  12.171875 12.815  12.1125 12.76  C 12.053125 12.705  11.99375 12.595  11.875 12.595  C 11.75625 12.595  11.696875 12.54  11.578125 12.54  C 11.459375 12.54  11.340625 12.54  11.28125 12.595  C 11.221875 12.65  11.103125 12.705  11.04375 12.76  C 10.984375 12.815  10.925 12.98  10.925 13.09  C 10.925 13.2  10.865625 13.42  10.865625 13.64  L 10.865625 14.685  C 10.865625 14.905  10.865625 15.07  10.925 15.235  C 10.984375 15.4  10.984375 15.51  11.04375 15.565  C 11.103125 15.62  11.1625 15.73  11.28125 15.73  C 11.4 15.73  11.459375 15.785  11.578125 15.785  C 11.696875 15.785  11.815625 15.785  11.875 15.73  C 11.934375 15.675  12.053125 15.62  12.1125 15.565  C 12.171875 15.51  12.23125 15.345  12.23125 15.235  C 12.23125 15.125  12.290625 14.905  12.290625 14.685  Z " fill-rule="nonzero" fill="#333333" stroke="none" transform="matrix(1 0 0 1 342 703 )" />
  </g>
</svg>