<?xml version="1.0" encoding="utf-8"?>
<svg version="1.1" xmlns:xlink="http://www.w3.org/1999/xlink" width="21px" height="18px" xmlns="http://www.w3.org/2000/svg">
  <g transform="matrix(1 0 0 1 -130 -775 )">
    <path d="M 9.45252403846154 1.54430379746835  C 9.61237980769231 1.70464135021097  9.69230769230769 1.89451476793249  10 2.11392405063291  L 10 15.8860759493671  C 9.69230769230769 16.1054852320675  9.61237980769231 16.295358649789  9.45252403846154 16.4556962025316  C 9.29266826923077 16.6160337552743  9.10336538461539 16.6962025316456  8.88461538461539 16.6962025316456  C 8.66586538461539 16.6962025316456  8.4765625 16.6160337552743  8.31670673076923 16.4556962025316  L 4.11418269230769 12.2405063291139  L 0.807692307692308 12.2405063291139  C 0.588942307692308 12.2405063291139  0.399639423076923 12.1603375527426  0.239783653846154 12  C 0.0799278846153846 11.8396624472574  0 11.6497890295359  0 11.4303797468354  L 0 6.56962025316456  C 0 6.35021097046413  0.0799278846153846 6.16033755274261  0.239783653846154 6  C 0.399639423076923 5.83966244725738  0.588942307692308 5.75949367088608  0.807692307692308 5.75949367088608  L 4.11418269230769 5.75949367088608  L 8.31670673076923 1.54430379746835  C 8.4765625 1.38396624472574  8.66586538461539 1.30379746835443  8.88461538461539 1.30379746835443  C 9.10336538461539 1.30379746835443  9.29266826923077 1.38396624472574  9.45252403846154 1.54430379746835  Z M 14.0021033653846 7.20253164556962  C 14.3596754807692 7.75949367088608  14.5384615384615 8.35864978902953  14.5384615384615 9  C 14.5384615384615 9.64135021097046  14.3596754807692 10.2383966244726  14.0021033653846 10.7911392405063  C 13.64453125 11.3438818565401  13.1712740384615 11.7383966244726  12.5823317307692 11.9746835443038  C 12.4981971153846 12.0168776371308  12.3930288461538 12.0379746835443  12.2668269230769 12.0379746835443  C 12.0480769230769 12.0379746835443  11.8587740384615 11.9599156118143  11.6989182692308 11.8037974683544  C 11.5390625 11.6476793248945  11.4591346153846 11.4556962025316  11.4591346153846 11.2278481012658  C 11.4591346153846 11.0506329113924  11.5096153846154 10.9008438818565  11.6105769230769 10.7784810126582  C 11.7115384615385 10.6561181434599  11.8335336538462 10.5506329113924  11.9765625 10.4620253164557  C 12.1195913461538 10.373417721519  12.2626201923077 10.2763713080169  12.4056490384615 10.1708860759494  C 12.5486778846154 10.0654008438819  12.6706730769231 9.91350210970464  12.7716346153846 9.71518987341772  C 12.8725961538462 9.5168776371308  12.9230769230769 9.27848101265823  12.9230769230769 9  C 12.9230769230769 8.72151898734177  12.8725961538462 8.4831223628692  12.7716346153846 8.28481012658228  C 12.6706730769231 8.08649789029536  12.5486778846154 7.93459915611814  12.4056490384615 7.82911392405063  C 12.2626201923077 7.72362869198312  12.1195913461538 7.62658227848101  11.9765625 7.5379746835443  C 11.8335336538462 7.44936708860759  11.7115384615385 7.34388185654008  11.6105769230769 7.22151898734177  C 11.5096153846154 7.09915611814346  11.4591346153846 6.94936708860759  11.4591346153846 6.77215189873418  C 11.4591346153846 6.54430379746835  11.5390625 6.35232067510548  11.6989182692308 6.19620253164557  C 11.8587740384615 6.04008438818565  12.0480769230769 5.9620253164557  12.2668269230769 5.9620253164557  C 12.3930288461538 5.9620253164557  12.4981971153846 5.9831223628692  12.5823317307692 6.0253164556962  C 13.1712740384615 6.25316455696203  13.64453125 6.64556962025317  14.0021033653846 7.20253164556962  Z M 16.6965144230769 5.42405063291139  C 17.4116586538462 6.5168776371308  17.7692307692308 7.70886075949367  17.7692307692308 9  C 17.7692307692308 10.2911392405063  17.4116586538462 11.4831223628692  16.6965144230769 12.5759493670886  C 15.9813701923077 13.668776371308  15.0348557692308 14.464135021097  13.8569711538462 14.9620253164557  C 13.7475961538462 15.0042194092827  13.6424278846154 15.0253164556962  13.5414663461538 15.0253164556962  C 13.3143028846154 15.0253164556962  13.1207932692308 14.9451476793249  12.9609375 14.7848101265823  C 12.8010817307692 14.6244725738397  12.7211538461538 14.4345991561181  12.7211538461538 14.2151898734177  C 12.7211538461538 13.8860759493671  12.8852163461538 13.6371308016878  13.2133413461538 13.4683544303797  C 13.6844951923077 13.2236286919831  14.0042067307692 13.0379746835443  14.1724759615385 12.9113924050633  C 14.7950721153846 12.4556962025316  15.2809495192308 11.8839662447257  15.6301081730769 11.1962025316456  C 15.9792668269231 10.5084388185654  16.1538461538462 9.77637130801688  16.1538461538462 9  C 16.1538461538462 8.22362869198312  15.9792668269231 7.4915611814346  15.6301081730769 6.80379746835443  C 15.2809495192308 6.11603375527426  14.7950721153846 5.54430379746835  14.1724759615385 5.08860759493671  C 14.0042067307692 4.9620253164557  13.6844951923077 4.77637130801688  13.2133413461538 4.53164556962025  C 12.8852163461538 4.36286919831224  12.7211538461538 4.11392405063291  12.7211538461538 3.78481012658228  C 12.7211538461538 3.56540084388185  12.8010817307692 3.37552742616034  12.9609375 3.21518987341772  C 13.1207932692308 3.05485232067511  13.3100961538462 2.9746835443038  13.5288461538462 2.9746835443038  C 13.6382211538462 2.9746835443038  13.7475961538462 2.9957805907173  13.8569711538462 3.0379746835443  C 15.0348557692308 3.53586497890295  15.9813701923077 4.33122362869198  16.6965144230769 5.42405063291139  Z M 19.3972355769231 3.65189873417722  C 20.4657451923077 5.27637130801688  21 7.0590717299578  21 9  C 21 10.9409282700422  20.4657451923077 12.7236286919831  19.3972355769231 14.3481012658228  C 18.3287259615385 15.9725738396624  16.9068509615385 17.168776371308  15.1316105769231 17.9367088607595  C 15.0222355769231 17.9789029535865  14.9128605769231 18  14.8034855769231 18  C 14.5847355769231 18  14.3954326923077 17.9198312236287  14.2355769230769 17.7594936708861  C 14.0757211538462 17.5991561181435  13.9957932692308 17.4092827004219  13.9957932692308 17.1898734177215  C 13.9957932692308 16.8860759493671  14.1598557692308 16.6371308016878  14.4879807692308 16.4430379746835  C 14.546875 16.4092827004219  14.6415264423077 16.3649789029536  14.7719350961538 16.3101265822785  C 14.90234375 16.2552742616034  14.9969951923077 16.210970464135  15.0558894230769 16.1772151898734  C 15.4429086538462 15.9662447257384  15.7878605769231 15.7510548523207  16.0907451923077 15.5316455696203  C 17.1256009615385 14.7637130801688  17.9332932692308 13.8059071729958  18.5138221153846 12.6582278481013  C 19.0943509615385 11.5105485232068  19.3846153846154 10.2911392405063  19.3846153846154 9  C 19.3846153846154 7.70886075949367  19.0943509615385 6.48945147679325  18.5138221153846 5.34177215189873  C 17.9332932692308 4.19409282700422  17.1256009615385 3.23628691983122  16.0907451923077 2.46835443037975  C 15.7878605769231 2.24894514767932  15.4429086538462 2.0337552742616  15.0558894230769 1.82278481012658  C 14.9969951923077 1.78902953586498  14.90234375 1.74472573839662  14.7719350961538 1.68987341772152  C 14.6415264423077 1.63502109704641  14.546875 1.59071729957806  14.4879807692308 1.55696202531646  C 14.1598557692308 1.36286919831223  13.9957932692308 1.11392405063291  13.9957932692308 0.810126582278482  C 13.9957932692308 0.590717299578057  14.0757211538462 0.400843881856538  14.2355769230769 0.240506329113924  C 14.3954326923077 0.0801687763713073  14.5847355769231 0  14.8034855769231 0  C 14.9128605769231 0  15.0222355769231 0.021097046413501  15.1316105769231 0.0632911392405069  C 16.9068509615385 0.831223628691981  18.3287259615385 2.02742616033755  19.3972355769231 3.65189873417722  Z " fill-rule="nonzero" fill="#333333" stroke="none" transform="matrix(1 0 0 1 130 775 )" />
  </g>
</svg>