<?xml version="1.0" encoding="utf-8"?>
<svg version="1.1" xmlns:xlink="http://www.w3.org/1999/xlink" width="25px" height="30px" xmlns="http://www.w3.org/2000/svg">
  <g transform="matrix(1 0 0 1 -558 -174 )">
    <path d="M 24.6875 3.75  L 24.6875 5.625  L 22.8125 5.625  L 22.8125 27.1875  C 22.8125 27.5783333333333  22.7391666666667 27.9441666666667  22.5925 28.2858333333333  C 22.4458333333333 28.6275  22.2458333333333 28.9258333333333  21.9916666666667 29.1791666666667  C 21.7375 29.4325  21.44 29.6333333333333  21.0983333333333 29.78  C 20.7566666666667 29.9266666666667  20.3908333333333 30  20 30  L 5 30  C 4.60916666666667 30  4.24333333333333 29.9266666666667  3.90166666666667 29.78  C 3.56 29.6333333333333  3.26166666666666 29.4333333333333  3.00833333333333 29.1791666666667  C 2.755 28.925  2.55416666666666 28.6275  2.4075 28.2858333333333  C 2.26083333333333 27.9441666666667  2.1875 27.5775  2.1875 27.1875  L 2.1875 5.625  L 0.3125 5.625  L 0.3125 3.75  L 7.8125 3.75  L 7.8125 1.875  C 7.8125 1.61166666666667  7.86166666666667 1.3675  7.95916666666667 1.1425  C 8.05666666666666 0.917500000000001  8.19083333333333 0.720000000000001  8.36166666666667 0.549166666666667  C 8.5325 0.378333333333334  8.73 0.244166666666668  8.955 0.146666666666667  C 9.18 0.0491666666666661  9.42416666666667 0  9.6875 0  L 15.3125 0  C 15.5758333333333 0  15.82 0.0491666666666661  16.045 0.146666666666667  C 16.27 0.244166666666668  16.4675 0.378333333333334  16.6383333333333 0.549166666666667  C 16.8091666666667 0.720000000000001  16.9433333333333 0.917500000000001  17.0408333333333 1.1425  C 17.1383333333333 1.3675  17.1875 1.61083333333333  17.1875 1.875  L 17.1875 3.75  L 24.6875 3.75  Z M 21 27.1875  L 21 6  L 4 6  L 4 27.1875  C 4.0625 27.4416666666667  4.155 27.6608333333333  4.34083333333333 27.8466666666667  C 4.52666666666667 28.0325  4.74583333333333 28.125  5 28  L 20 28  C 20.2541666666667 28.125  20.4733333333333 28.0325  20.6591666666667 27.8466666666667  C 20.845 27.6608333333333  20.9375 27.4416666666667  21 27.1875  Z M 10 9.375  L 10 24.375  L 8 24.375  L 8 9.375  L 10 9.375  Z M 9.6875 1.875  L 9.6875 3.75  L 15.3125 3.75  L 15.3125 1.875  L 9.6875 1.875  Z M 13 9.375  L 13 24.375  L 12 24.375  L 12 9.375  L 13 9.375  Z M 17 9.375  L 17 24.375  L 15 24.375  L 15 9.375  L 17 9.375  Z " fill-rule="nonzero" fill="#333333" stroke="none" transform="matrix(1 0 0 1 558 174 )" />
  </g>
</svg>