<?xml version="1.0" encoding="utf-8"?>
<svg version="1.1" xmlns:xlink="http://www.w3.org/1999/xlink" width="105px" height="105px" xmlns="http://www.w3.org/2000/svg">
  <g transform="matrix(1 0 0 1 -989 -51 )">
    <path d="M 1041.5 51  C 1070.9 51  1094 74.1  1094 103.5  C 1094 132.9  1070.9 156  1041.5 156  C 1012.1 156  989 132.9  989 103.5  C 989 74.1  1012.1 51  1041.5 51  Z " fill-rule="nonzero" fill="#ffffff" stroke="none" />
    <path d="M 1041.5 51.5  C 1070.62 51.5  1093.5 74.38  1093.5 103.5  C 1093.5 132.62  1070.62 155.5  1041.5 155.5  C 1012.38 155.5  989.5 132.62  989.5 103.5  C 989.5 74.38  1012.38 51.5  1041.5 51.5  Z " stroke-width="1" stroke="#797979" fill="none" />
  </g>
</svg>