<?xml version="1.0" encoding="utf-8"?>
<svg version="1.1" xmlns:xlink="http://www.w3.org/1999/xlink" width="176px" height="176px" xmlns="http://www.w3.org/2000/svg">
  <g transform="matrix(1 0 0 1 -552 -97 )">
    <path d="M 640 97  C 689.28 97  728 135.72  728 185  C 728 234.28  689.28 273  640 273  C 590.72 273  552 234.28  552 185  C 552 135.72  590.72 97  640 97  Z " fill-rule="nonzero" fill="#ffffff" stroke="none" />
    <path d="M 640 97.5  C 689 97.5  727.5 136  727.5 185  C 727.5 234  689 272.5  640 272.5  C 591 272.5  552.5 234  552.5 185  C 552.5 136  591 97.5  640 97.5  Z " stroke-width="1" stroke="#797979" fill="none" />
  </g>
</svg>