<?xml version="1.0" encoding="utf-8"?>
<svg version="1.1" xmlns:xlink="http://www.w3.org/1999/xlink" width="47px" height="47px" xmlns="http://www.w3.org/2000/svg">
  <g transform="matrix(1 0 0 1 -5056 -1904 )">
    <path d="M 7 3.25384615384615  C 6.14615384615385 1.61487179487179  4.89282051282051 0.361538461538462  3.25384615384615 0.361538461538462  C 1.61487179487179 0.361538461538462  0.361538461538462 1.61487179487179  1 3.25384615384615  L 1 43.7461538461538  C 0.361538461538462 45.288717948718  1.61487179487179 46.6384615384615  3.25384615384615 46.6384615384615  C 4.79641025641026 46.6384615384615  6.14615384615385 45.3851282051282  7 43.7461538461538  L 7 3.25384615384615  Z M 46 5.3748717948718  C 46.6384615384615 4.79641025641026  45.9635897435897 4.41076923076923  45.4815384615385 4.7  C 32.9482051282051 11.2558974358974  23.0179487179487 -0.0241025641025644  11.1594871794872 4.31435897435897  C 10.5810256410256 4.50717948717949  10.0025641025641 5.08564102564103  10 5.76051282051282  L 10 27.3564102564103  C 10.0025641025641 28.4169230769231  11.1594871794872 29.1882051282051  12.22 28.8989743589744  C 23.5964102564103 25.5246153846154  33.4302564102564 36.2261538461538  45.7707692307692 29.4774358974359  C 46.2528205128205 29.1882051282051  46.6384615384615 28.7061538461539  46 28.1276923076923  L 46 5.3748717948718  Z M 42.8784615384615 26.5851282051282  L 42.7820512820513 26.5851282051282  L 42.3 26.7779487179487  C 41.3358974358974 27.26  39.7933333333333 27.3564102564103  37.1902564102564 27.3564102564103  L 36.9974358974359 27.3564102564103  L 36.9974358974359 22.5358974358974  C 35.5512820512821 22.5358974358974  32.9482051282051 22.2466666666667  31.2128205128205 21.8610256410256  L 31.2128205128205 26.9707692307692  C 29.5738461538462 26.6815384615385  28.0312820512821 26.3923076923077  26.7779487179487 26.1030769230769  C 26.2958974358974 26.0066666666667  25.8138461538462 25.8138461538462  25.4282051282051 25.7174358974359  L 25.4282051282051 20.4148717948718  C 23.7892307692308 19.9328205128205  21.2825641025641 19.4507692307692  19.6435897435897 19.0651282051282  L 19.6435897435897 24.5605128205128  C 18.4866666666667 24.3676923076923  18.1974358974359 24.2712820512821  16.9441025641026 24.2712820512821  C 16.4620512820513 24.2712820512821  16.0764102564103 24.2712820512821  15.4015384615385 24.3676923076923  L 13.8589743589744 24.4641025641026  L 13.8589743589744 18.8723076923077  C 14.8230769230769 18.6794871794872  15.98 18.6794871794872  17.2333333333333 18.6794871794872  C 18.4866666666667 18.6794871794872  18.5830769230769 18.7758974358974  19.6435897435897 18.968717948718  L 19.6435897435897 13.1841025641026  C 18.5830769230769 12.9912820512821  14.8230769230769 12.9912820512821  13.8589743589744 13.2805128205128  L 13.8589743589744 7.30307692307693  L 14.7266666666667 7.20666666666667  C 15.6907692307692 7.11025641025642  18.5830769230769 7.30307692307693  19.6435897435897 7.5923076923077  L 19.6435897435897 13.1841025641026  C 20.9933333333333 13.4733333333333  23.3071794871795 13.9553846153846  25.0425641025641 14.4374358974359  C 25.1389743589744 14.4374358974359  25.3317948717949 14.5338461538462  25.4282051282051 14.5338461538462  L 25.4282051282051 8.94205128205129  C 27.1635897435898 9.42410256410257  29.1882051282051 10.0025641025641  31.2128205128205 10.2917948717949  L 31.2128205128205 15.7871794871795  C 32.8517948717949 16.0764102564103  35.4548717948718 16.2692307692308  36.9974358974359 16.2692307692308  L 36.9974358974359 10.9666666666667  L 37.1902564102564 10.9666666666667  C 38.7328205128205 10.9666666666667  39.7933333333333 10.5810256410257  41.7215384615385 10.2917948717949  L 42.8784615384615 9.90615384615386  L 42.8784615384615 15.6907692307692  C 41.1430769230769 16.1728205128205  39.3112820512821 16.365641025641  37.4794871794872 16.365641025641  L 37.0938461538462 16.365641025641  L 37.0938461538462 22.5358974358975  L 37.2866666666667 22.5358974358975  C 39.1184615384615 22.5358974358975  41.1430769230769 21.8610256410257  42.8784615384615 21.0897435897436  L 42.8784615384615 26.5851282051282  Z M 31.2128205128205 15.8835897435897  C 29.1882051282051 15.4979487179487  27.1635897435898 15.0158974358974  25.4282051282051 14.5338461538462  L 25.4282051282051 20.3184615384615  C 25.8138461538462 20.4148717948718  26.1994871794872 20.511282051282  26.5851282051282 20.7041025641026  C 28.0312820512821 21.0897435897436  29.5738461538462 21.5717948717949  31.2128205128205 21.8610256410256  L 31.2128205128205 15.8835897435897  Z " fill-rule="nonzero" fill="#333333" stroke="none" transform="matrix(1 0 0 1 5056 1904 )" />
  </g>
</svg>