<?xml version="1.0" encoding="utf-8"?>
<svg version="1.1" xmlns:xlink="http://www.w3.org/1999/xlink" width="29px" height="24px" xmlns="http://www.w3.org/2000/svg">
  <g transform="matrix(1 0 0 1 -801 -539 )">
    <path d="M 9.75027901785714 11.6491694352159  C 10.1548549107143 11.2504983388704  10.3571428571429 10.7694352159468  10.3571428571429 10.2059800664452  C 10.3571428571429 9.64252491694352  10.1548549107143 9.16146179401993  9.75027901785714 8.76279069767442  C 9.345703125 8.3641196013289  8.85751488095238 8.16478405315615  8.28571428571428 8.16478405315615  C 7.71391369047619 8.16478405315615  7.22572544642857 8.3641196013289  6.82114955357143 8.76279069767442  C 6.41657366071429 9.16146179401993  6.21428571428571 9.64252491694352  6.21428571428571 10.2059800664452  C 6.21428571428571 10.7694352159468  6.41657366071429 11.2504983388704  6.82114955357143 11.6491694352159  C 7.22572544642857 12.0478405315615  7.71391369047619 12.2471760797342  8.28571428571428 12.2471760797342  C 8.85751488095238 12.2471760797342  9.345703125 12.0478405315615  9.75027901785714 11.6491694352159  Z M 15.9645647321429 11.6491694352159  C 16.369140625 11.2504983388704  16.5714285714286 10.7694352159468  16.5714285714286 10.2059800664452  C 16.5714285714286 9.64252491694352  16.369140625 9.16146179401993  15.9645647321429 8.76279069767442  C 15.5599888392857 8.3641196013289  15.0718005952381 8.16478405315615  14.5 8.16478405315615  C 13.9281994047619 8.16478405315615  13.4400111607143 8.3641196013289  13.0354352678571 8.76279069767442  C 12.630859375 9.16146179401993  12.4285714285714 9.64252491694352  12.4285714285714 10.2059800664452  C 12.4285714285714 10.7694352159468  12.630859375 11.2504983388704  13.0354352678571 11.6491694352159  C 13.4400111607143 12.0478405315615  13.9281994047619 12.2471760797342  14.5 12.2471760797342  C 15.0718005952381 12.2471760797342  15.5599888392857 12.0478405315615  15.9645647321429 11.6491694352159  Z M 22.1788504464286 11.6491694352159  C 22.5834263392857 11.2504983388704  22.7857142857143 10.7694352159468  22.7857142857143 10.2059800664452  C 22.7857142857143 9.64252491694352  22.5834263392857 9.16146179401993  22.1788504464286 8.76279069767442  C 21.7742745535714 8.3641196013289  21.2860863095238 8.16478405315615  20.7142857142857 8.16478405315615  C 20.1424851190476 8.16478405315615  19.654296875 8.3641196013289  19.2497209821429 8.76279069767442  C 18.8451450892857 9.16146179401993  18.6428571428571 9.64252491694352  18.6428571428571 10.2059800664452  C 18.6428571428571 10.7694352159468  18.8451450892857 11.2504983388704  19.2497209821429 11.6491694352159  C 19.654296875 12.0478405315615  20.1424851190476 12.2471760797342  20.7142857142857 12.2471760797342  C 21.2860863095238 12.2471760797342  21.7742745535714 12.0478405315615  22.1788504464286 11.6491694352159  Z M 27.0580357142857 5.07906976744186  C 28.3526785714286 6.64717607973422  29 8.35614617940199  29 10.2059800664452  C 29 12.0558139534884  28.3526785714286 13.7647840531561  27.0580357142857 15.3328903654485  C 25.7633928571429 16.9009966777409  24.0048363095238 18.1395348837209  21.7823660714286 19.0485049833887  C 19.5598958333333 19.9574750830565  17.1324404761905 20.4119601328904  14.5 20.4119601328904  C 13.313244047619 20.4119601328904  12.175037202381 20.3162790697674  11.0853794642857 20.1249169435216  C 9.21893601190476 21.9641196013289  6.87239583333333 23.1813953488372  4.04575892857143 23.7767441860465  C 3.48474702380952 23.8830564784053  3.02083333333333 23.9521594684385  2.65401785714286 23.9840531561462  C 2.52455357142857 23.9946843853821  2.40587797619048 23.9627906976744  2.29799107142857 23.8883720930233  C 2.19010416666667 23.8139534883721  2.11997767857143 23.7182724252492  2.08761160714286 23.6013289036545  C 2.0444568452381 23.4418604651163  2.15234375 23.2451827242525  2.41127232142857 23.0112956810631  C 2.46521577380952 22.9581395348837  2.59198288690476 22.843853820598  2.79157366071429 22.668438538206  C 2.99116443452381 22.493023255814  3.12872023809524 22.3681063122924  3.20424107142857 22.2936877076412  C 3.27976190476191 22.21926910299  3.40652901785714 22.0837209302326  3.58454241071429 21.8870431893688  C 3.76255580357143 21.690365448505  3.89202008928571 21.5229235880399  3.97293526785714 21.3847176079734  C 4.05385044642857 21.246511627907  4.16443452380952 21.0498338870432  4.3046875 20.7946843853821  C 4.44494047619048 20.5395348837209  4.55282738095238 20.2843853820598  4.62834821428571 20.0292358803987  C 4.70386904761905 19.7740863787375  4.78208705357143 19.468438538206  4.86300223214286 19.112292358804  C 4.94391741071429 18.756146179402  5.01134672619048 18.3707641196013  5.06529017857143 17.956146179402  C 3.49014136904762 16.9993355481728  2.25213913690476 15.8485049833887  1.35128348214286 14.5036544850498  C 0.450427827380952 13.158803986711  0 11.7262458471761  0 10.2059800664452  C 0 8.35614617940199  0.647321428571429 6.64717607973422  1.94196428571429 5.07906976744186  C 3.23660714285714 3.5109634551495  4.99516369047619 2.27242524916944  7.21763392857143 1.36345514950166  C 9.44010416666667 0.454485049833888  11.8675595238095 0  14.5 0  C 17.1324404761905 0  19.5598958333333 0.454485049833888  21.7823660714286 1.36345514950166  C 24.0048363095238 2.27242524916944  25.7633928571429 3.5109634551495  27.0580357142857 5.07906976744186  Z " fill-rule="nonzero" fill="#6b48f5" stroke="none" transform="matrix(1 0 0 1 801 539 )" />
  </g>
</svg>