<?xml version="1.0" encoding="utf-8"?>
<svg version="1.1" xmlns:xlink="http://www.w3.org/1999/xlink" width="30px" height="30px" xmlns="http://www.w3.org/2000/svg">
  <g transform="matrix(1 0 0 1 -1318 -886 )">
    <path d="M 0.599999999999998 15  C 0.599999999999998 7.048  7.048 0.599999999999998  15 0.6  C 22.952 0.6  29.4 7.048  29.4 15  C 29.4 22.952  22.952 29.4  15 29.4  C 7.048 29.4  0.599999999999998 22.952  0.599999999999998 15  Z M 27 15  C 27 8.376  21.624 3  15 3  C 8.376 3  3 8.376  3 15  C 3 21.624  8.376 27  15 27  C 21.624 27  27 21.624  27 15  Z M 15.848 21.032  C 15.608 21.256  15.304 21.4  15 21.4  C 14.616 21.4  14.312 21.192  14.152 21.032  L 8.952 15.832  C 8.728 15.608  8.6 15.304  8.6 15  C 8.6 14.696  8.728 14.392  8.952 14.152  C 9.192 13.896  9.512 13.784  9.816 13.784  C 10.12 13.784  10.424 13.912  10.648 14.136  L 13.8 17.288  L 13.8 9.8  C 13.8 9.464  13.928 9.16  14.136 8.952  C 14.36 8.728  14.664 8.6  15 8.6  C 15.336 8.6  15.64 8.728  15.848 8.952  C 16.056 9.176  16.2 9.464  16.2 9.8  L 16.2 17.288  L 19.368 14.152  C 19.592 13.928  19.896 13.8  20.2 13.8  C 20.52 13.8  20.84 13.944  21.08 14.2  C 21.288 14.424  21.4 14.712  21.4 15  C 21.4 15.304  21.288 15.624  21.048 15.848  L 15.848 21.032  Z " fill-rule="nonzero" fill="#333333" stroke="none" transform="matrix(1 0 0 1 1318 886 )" />
  </g>
</svg>