<?xml version="1.0" encoding="utf-8"?>
<svg version="1.1" xmlns:xlink="http://www.w3.org/1999/xlink" width="20px" height="23px" xmlns="http://www.w3.org/2000/svg">
  <g transform="matrix(1 0 0 1 -952 -475 )">
    <path d="M 20 4.48688671875  C 19.9999970282303 3.9150148068911  19.7742304212659 3.36656637104777  19.3723660714286 2.962193359375  L 17.0562053571429 0.631556640625  C 16.654343979083 0.227180638601157  16.1093020552635 0  15.5409821428571 0  L 7.85714285714286 0  C 6.67366071428571 0  5.71428571428571 0.96537109375  5.71428571428571 2.15625  L 5.71428571428571 4.3125  L 2.14285714285714 4.3125  C 0.959375 4.3125  0 5.27787109375  0 6.46875  L 0 20.84375  C 0 22.03462890625  0.959375 23  2.14285714285714 23  L 12.1428571428571 23  C 13.3263392857143 23  14.2857142857143 22.03462890625  14.2857142857143 20.84375  L 14.2857142857143 18.6875  L 17.8571428571429 18.6875  C 19.040625 18.6875  20 17.72212890625  20 16.53125  L 20 4.48688671875  Z M 12.1428571428571 20.57421875  C 12.1428571428571 20.7230767489778  12.0229334151332 20.84375  11.875 20.84375  L 2.41071428571429 20.84375  C 2.26278087058104 20.84375  2.14285714285714 20.7230767489778  2.14285714285714 20.57421875  L 2.14285714285714 6.73828125  C 2.14285714285714 6.58942325102217  2.26278087058104 6.46875  2.41071428571429 6.46875  L 6 6.46875  L 6 16.53125  C 5.71428571428571 17.72212890625  6.67366071428571 18.6875  7.85714285714286 18.6875  L 12.1428571428571 18.6875  L 12.1428571428571 20.57421875  Z M 17.8571428571429 16.26171875  C 17.8571428571429 16.4105767489778  17.737219129419 16.53125  17.5892857142857 16.53125  L 8.125 16.53125  C 7.97706658486675 16.53125  7.85714285714286 16.4105767489778  8 16.26171875  L 8 2.42578125  C 7.85714285714286 2.27692325102217  7.97706658486675 2.15625  8.125 2.15625  L 12.8571428571429 2.15625  L 12.8571428571429 6.109375  C 12.8571428571429 6.704814453125  13.3368303571429 7.1875  13.9285714285714 7.1875  L 17.8571428571429 7.1875  L 17.8571428571429 16.26171875  Z M 17.8571428571429 4.5985625  L 17.8571428571429 5.03125  L 15 5.03125  L 15 2.15625  L 15.43 2.15625  C 15.5010267857143 2.15625  15.5691517857143 2.184640625  15.6194196428571 2.235177734375  L 17.7787053571429 4.407958984375  C 17.8289363640297 4.45851249650758  17.8571513659283 4.52707509163414  17.8571428571429 4.5985625  Z " fill-rule="nonzero" fill="#333333" stroke="none" transform="matrix(1 0 0 1 952 475 )" />
  </g>
</svg>