<?xml version="1.0" encoding="utf-8"?>
<svg version="1.1" xmlns:xlink="http://www.w3.org/1999/xlink" width="70px" height="70px" xmlns="http://www.w3.org/2000/svg">
  <g transform="matrix(1 0 0 1 -120 -7 )">
    <path d="M 120 7  L 190 7  L 190 77  L 120 77  L 120 7  " fill-rule="nonzero" fill="#cccccc" stroke="none" />
    <path d="M 125 12  L 185 12  L 185 72  L 125 72  L 125 12  " fill-rule="nonzero" fill="#ffffff" stroke="none" />
    <path d="M 161.65 28  C 158.71 28  156.4 25.69  156.4 22.75  C 156.4 19.81  158.71 17.5  161.65 17.5  C 164.59 17.5  166.9 19.81  166.9 22.75  C 166.9 25.69  164.59 28  161.65 28  " fill-rule="nonzero" fill="#cccccc" stroke="none" />
    <path d="M 127 70  L 127 39.2  L 141 25.2  L 160.6 36.4  L 171.8 33.6  L 183 36.4  L 183 70  L 127 70  " fill-rule="nonzero" fill="#169bd5" stroke="none" />
  </g>
</svg>