<?xml version="1.0" encoding="utf-8"?>
<svg version="1.1" xmlns:xlink="http://www.w3.org/1999/xlink" width="178px" height="80px" xmlns="http://www.w3.org/2000/svg">
  <defs>
    <linearGradient gradientUnits="userSpaceOnUse" x1="89" y1="0" x2="89" y2="80" id="LinearGradient45">
      <stop id="Stop46" stop-color="#ffffff" offset="0" />
      <stop id="Stop47" stop-color="#f2f2f2" offset="0" />
      <stop id="Stop48" stop-color="#e4e4e4" offset="1" />
      <stop id="Stop49" stop-color="#ffffff" offset="1" />
    </linearGradient>
    <mask fill="white" id="clip50">
      <path d="M 178 0  L 0 0  L 0 66.1576710909117  C 0 66.1576710909117  21.1485148514852 81.5441086390304  49.7871287128714 79.8731228062635  C 78.4257425742574 78.2021369734965  93.8465346534653 59.1528984799525  127.331683168317 57.8161098137388  C 160.816831683168 56.4793211475252  178 57.8161098137388  178 57.8161098137388  L 178 0  Z " fill-rule="evenodd" />
    </mask>
  </defs>
  <g transform="matrix(1 0 0 1 -1263 -6112 )">
    <path d="M 178 0  L 0 0  L 0 66.1576710909117  C 0 66.1576710909117  21.1485148514852 81.5441086390304  49.7871287128714 79.8731228062635  C 78.4257425742574 78.2021369734965  93.8465346534653 59.1528984799525  127.331683168317 57.8161098137388  C 160.816831683168 56.4793211475252  178 57.8161098137388  178 57.8161098137388  L 178 0  Z " fill-rule="nonzero" fill="url(#LinearGradient45)" stroke="none" transform="matrix(1 0 0 1 1263 6112 )" />
    <path d="M 178 0  L 0 0  L 0 66.1576710909117  C 0 66.1576710909117  21.1485148514852 81.5441086390304  49.7871287128714 79.8731228062635  C 78.4257425742574 78.2021369734965  93.8465346534653 59.1528984799525  127.331683168317 57.8161098137388  C 160.816831683168 56.4793211475252  178 57.8161098137388  178 57.8161098137388  L 178 0  Z " stroke-width="2" stroke="#797979" fill="none" transform="matrix(1 0 0 1 1263 6112 )" mask="url(#clip50)" />
  </g>
</svg>