<?xml version="1.0" encoding="utf-8"?>
<svg version="1.1" xmlns:xlink="http://www.w3.org/1999/xlink" width="24px" height="23px" xmlns="http://www.w3.org/2000/svg">
  <g transform="matrix(1 0 0 1 -587 -743 )">
    <path d="M 8.303125 5.13347222222222  C 8.175 5.30277777777778  8.290625 5.54875  8.5 5.54875  L 11 5.54875  L 11 16.3555555555556  C 10.809375 16.4961111111111  10.921875 16.6111111111111  11.059375 16.6111111111111  L 12.934375 16.6111111111111  C 13.071875 16.6111111111111  13.184375 16.4961111111111  13 16.3555555555556  L 13 5.54875  L 15.5 5.54875  C 15.709375 5.54875  15.825 5.30277777777778  15.696875 5.13666666666667  L 12.196875 0.606944444444444  C 12.1494907034166 0.545053397980729  12.0768832875326 0.508891522121824  12 0.508891522121824  C 11.9231167124674 0.508891522121824  11.8505092965834 0.545053397980729  11.803125 0.606944444444444  L 8.303125 5.13347222222222  Z M 23.6875 15.6527777777778  C 23.6875 15.5122222222222  23.575 15.3972222222222  23.4375 15.3972222222222  L 21.5625 15.3972222222222  C 21.425 15.3972222222222  21.3125 15.5122222222222  21.3125 15.6527777777778  L 21.3125 20.5722222222222  L 2.6875 20.5722222222222  L 2.6875 15.6527777777778  C 2.6875 15.5122222222222  2.575 15.3972222222222  2.4375 15.3972222222222  L 0.5625 15.3972222222222  C 0.425 15.3972222222222  0.3125 15.5122222222222  0.3125 15.6527777777778  L 0.3125 21.9777777777778  C 0.3125 22.5431944444444  0.759375 23  1.3125 23  L 22.6875 23  C 23.240625 23  23.6875 22.5431944444444  23.6875 21.9777777777778  L 23.6875 15.6527777777778  Z " fill-rule="nonzero" fill="#000000" stroke="none" transform="matrix(1 0 0 1 587 743 )" />
  </g>
</svg>