<?xml version="1.0" encoding="utf-8"?>
<svg version="1.1" xmlns:xlink="http://www.w3.org/1999/xlink" width="89px" height="68px" xmlns="http://www.w3.org/2000/svg">
  <g transform="matrix(1 0 0 1 -783 -400 )">
    <path d="M 4.45 29.75  C 1.98859375 29.75  0 31.64921875  0 34  L 0 51  C 0 53.35078125  1.98859375 55.25  4.45 55.25  L 9 55.25  L 9 29.75  L 4.45 29.75  Z M 75 23.375  C 75.65 17.5046875  70.6715625 12.75  64.525 13  L 48.95 13  L 48.95 4.25  C 48.95 1.89921875  46.96140625 0  44.5 0  C 42.03859375 0  40.05 1.89921875  40.05 4.25  L 40.05 13  L 24.475 13  C 18.3284375 12.75  13.35 17.5046875  14 23.375  L 14 59.5  C 13.35 64.18828125  17.34109375 68  22.25 68  L 66.75 68  C 71.65890625 68  75.65 64.18828125  75 59.5  L 75 23.375  Z M 35.6 51  L 35.6 55.25  L 26.7 55.25  L 26.7 51  L 35.6 51  Z M 36.7125 34  C 36.7125 36.93515625  34.22328125 39.3125  31.15 39.3125  C 28.07671875 39.3125  25.5875 36.93515625  25.5875 34  C 25.5875 31.06484375  28.07671875 28.6875  31.15 28.6875  C 34.22328125 28.6875  36.7125 31.06484375  36.7125 34  Z M 48.95 51  L 48.95 55.25  L 40.05 55.25  L 40.05 51  L 48.95 51  Z M 62.3 51  L 62.3 55.25  L 53.4 55.25  L 53.4 51  L 62.3 51  Z M 63.4125 34  C 63.4125 36.93515625  60.92328125 39.3125  57.85 39.3125  C 54.77671875 39.3125  52.2875 36.93515625  52.2875 34  C 52.2875 31.06484375  54.77671875 28.6875  57.85 28.6875  C 60.92328125 28.6875  63.4125 31.06484375  63.4125 34  Z M 89 34  C 89 31.64921875  87.01140625 29.75  84.55 29.75  L 80 29.75  L 80 55.25  L 84.55 55.25  C 87.01140625 55.25  89 53.35078125  89 51  L 89 34  Z " fill-rule="nonzero" fill="#333333" stroke="none" transform="matrix(1 0 0 1 783 400 )" />
  </g>
</svg>