<?xml version="1.0" encoding="utf-8"?>
<svg version="1.1" xmlns:xlink="http://www.w3.org/1999/xlink" width="108px" height="108px" xmlns="http://www.w3.org/2000/svg">
  <g transform="matrix(1 0 0 1 -650 -414 )">
    <path d="M 108 54  C 108 24.1693548387097  83.8306451612903 0  54 0  C 24.1693548387097 0  0 24.1693548387097  0 54  C 0 83.8306451612903  24.1693548387097 108  54 108  C 83.8306451612903 108  108 83.8306451612903  108 54  Z M 97.5483870967742 54  C 97.5483870967742 78.016935483871  78.016935483871 97.5483870967742  54 97.5483870967742  C 29.983064516129 97.5483870967742  10.4516129032258 78.016935483871  10.4516129032258 54  C 10.4516129032258 29.983064516129  29.983064516129 10.4516129032258  54 10.4516129032258  C 78.016935483871 10.4516129032258  97.5483870967742 29.983064516129  97.5483870967742 54  Z M 29.6129032258064 43.5483870967742  C 29.6129032258064 47.4024193548387  32.7266129032258 50.5161290322581  36.5806451612903 50.5161290322581  C 40.4346774193548 50.5161290322581  43.5483870967742 47.4024193548387  43.5483870967742 43.5483870967742  C 43.5483870967742 39.6943548387097  40.4346774193548 36.5806451612903  36.5806451612903 36.5806451612903  C 32.7266129032258 36.5806451612903  29.6129032258064 39.6943548387097  29.6129032258064 43.5483870967742  Z M 64.4516129032258 43.5483870967742  C 64.4516129032258 47.4024193548387  67.5653225806452 50.5161290322581  71.4193548387097 50.5161290322581  C 75.2733870967742 50.5161290322581  78.3870967741936 47.4024193548387  78.3870967741936 43.5483870967742  C 78.3870967741936 39.6943548387097  75.2733870967742 36.5806451612903  71.4193548387097 36.5806451612903  C 67.5653225806452 36.5806451612903  64.4516129032258 39.6943548387097  64.4516129032258 43.5483870967742  Z M 79.65 65.6491935483871  C 77.4508064516129 63.8201612903226  74.1411290322581 64.1032258064516  72.2903225806452 66.3241935483871  C 67.7612903225806 71.7677419354839  61.0766129032258 74.9032258064516  54 74.9032258064516  C 46.9233870967742 74.9032258064516  40.2387096774194 71.7895161290323  35.7096774193548 66.3241935483871  C 33.8588709677419 64.1032258064516  30.5491935483871 63.8201612903226  28.35 65.6491935483871  C 26.1290322580645 67.5  25.8459677419355 70.7879032258065  27.675 73.0088709677419  C 34.2072580645161 80.8475806451613  43.8096774193548 85.333064516129  54 85.333064516129  C 64.1903225806452 85.333064516129  73.7927419354839 80.8475806451613  80.325 73.0088709677419  C 82.1758064516129 70.7879032258065  81.8709677419355 67.5  79.65 65.6491935483871  Z " fill-rule="nonzero" fill="#333333" stroke="none" transform="matrix(1 0 0 1 650 414 )" />
  </g>
</svg>