<?xml version="1.0" encoding="utf-8"?>
<svg version="1.1" xmlns:xlink="http://www.w3.org/1999/xlink" width="51px" height="51px" xmlns="http://www.w3.org/2000/svg">
  <g transform="matrix(1 0 0 1 -783 -492 )">
    <path d="M 49.5955078125 7.3766081871345  C 51.4681640625 9.23567251461988  51.4681640625 12.2578947368421  49.5955078125 14.1269005847953  L 45.003515625 18.7099415204678  C 44.5353515625 19.1771929824561  43.7783203125 19.1771929824561  43.31015625 18.7099415204678  L 32.253515625 7.67485380116959  C 31.7853515625 7.20760233918128  31.7853515625 6.45204678362573  32.253515625 5.98479532163743  L 36.8455078125 1.40175438596491  C 38.708203125 -0.457309941520469  41.736328125 -0.457309941520469  43.608984375 1.40175438596491  L 49.5955078125 7.3766081871345  Z M 30.0123046875 9.92163742690058  C 29.5341796875 9.45438596491227  28.7771484375 9.45438596491227  28.308984375 9.92163742690058  L 2.1515625 36.0280701754386  L 0.03984375 48.1070175438596  C -0.2490234375 49.7374269005848  1.175390625 51.1491228070175  2.808984375 50.8707602339181  L 14.9115234375 48.753216374269  L 41.0689453125 22.646783625731  C 41.537109375 22.1795321637427  41.537109375 21.4239766081871  41.0689453125 20.9567251461988  L 30.0123046875 9.92163742690058  Z M 14.3337890625 33.7912280701754  C 13.7859375 34.3380116959064  12.909375 34.3380116959064  12.3615234375 33.7912280701754  C 11.813671875 33.2444444444444  11.813671875 32.3695906432749  12.3615234375 31.8228070175439  L 27.7013671875 16.512865497076  C 28.24921875 15.966081871345  29.12578125 15.966081871345  29.6736328125 16.512865497076  C 30.221484375 17.059649122807  30.221484375 17.9345029239766  29.6736328125 18.4812865497076  L 14.3337890625 33.7912280701754  Z M 8.765625 37.3801169590643  L 8.765625 42.1520467836257  L 13.546875 42.1520467836257  L 13.546875 45.7608187134503  L 7.1220703125 46.8842105263158  L 4.02421875 43.7923976608187  L 5.1498046875 37.3801169590643  L 8.765625 37.3801169590643  Z " fill-rule="nonzero" fill="#333333" stroke="none" transform="matrix(1 0 0 1 783 492 )" />
  </g>
</svg>