<?xml version="1.0" encoding="utf-8"?>
<svg version="1.1" xmlns:xlink="http://www.w3.org/1999/xlink" width="28px" height="28px" xmlns="http://www.w3.org/2000/svg">
  <g transform="matrix(1 0 0 1 -804 -837 )">
    <path d="M 26.89 16.49  L 25 14.76  C 25 14.51  25 14.26  25 14  C 25 13.74  25 13.49  25 13.23  L 26.92 11.55  C 27.650720724398 10.9059413027431  27.811187122194 9.82912731753332  27.3 9  L 24.94 5  C 24.5831009934858 4.38183192040053  23.9237983885137 4.00073214874033  23.21 4  C 22.9926500719256 3.9983348691798  22.7764821127586 4.03211111279964  22.57 4.1  L 20.14 4.92  C 19.7204600399069 4.64120738073412  19.2828257679369 4.39065340823221  18.83 4.17  L 18.32 1.65  C 18.1312630343659 0.699768453012978  17.2886160611205 0.0214376395504958  16.32 0.04  L 11.64 0.04  C 10.6713839388795 0.0214376395504967  9.82873696563414 0.699768453012977  9.64 1.65  L 9.13 4.17  C 8.6739330852244 4.39060003354957  8.23296907422096 4.64114776707425  7.81 4.92  L 5.43 4.06  C 5.2212971318415 4.00562356986882  5.00517297750829 3.98536193040008  4.79 4  C 4.07620161148632 4.00073214874033  3.41689900651418 4.38183192040053  3.06 5  L 0.7 9  C 0.218600476495459 9.82701355607679  0.390464243646287 10.8791551549758  1.11 11.51  L 3 13.24  C 3 13.49  3 13.74  3 14  C 3 14.26  3 14.51  3 14.77  L 1.11 16.45  C 0.369250676746907 17.0859910528004  0.19594560881947 18.1638640362515  0.7 19  L 3.06 23  C 3.41689900651418 23.6181680795995  4.07620161148631 23.9992678512597  4.79 24  C 5.00734992807435 24.0016651308202  5.22351788724136 23.9678888872004  5.43 23.9  L 7.86 23.08  C 8.27953996009317 23.3587926192659  8.71717423206313 23.6093465917678  9.17 23.83  L 9.68 26.35  C 9.86873696563414 27.300231546987  10.7113839388795 27.9785623604495  11.68 27.96  L 16.4 27.96  C 17.3686160611205 27.9785623604495  18.2112630343659 27.300231546987  18.4 26.35  L 18.91 23.83  C 19.3660669147756 23.6093999664504  19.8070309257791 23.3588522329257  20.23 23.08  L 22.65 23.9  C 22.8564821127586 23.9678888872004  23.0726500719256 24.0016651308202  23.29 24  C 24.0037983885137 23.9992678512597  24.6631009934858 23.6181680795995  25.02 23  L 27.3 19  C 27.7813995235045 18.1729864439232  27.6095357563537 17.1208448450242  26.89 16.49  Z M 25.57 18  L 23.21 22  L 19.78 20.84  C 18.9770646276978 21.5201080941671  18.0593968890858 22.0517458615548  17.07 22.41  L 16.36 26  L 11.64 26  L 10.93 22.45  C 9.94842163306008 22.0815777903128  9.03571787225391 21.5508574553255  8.23 20.88  L 4.79 22  L 2.43 18  L 5.15 15.6  C 4.96509689882292 14.5648589566407  4.96509689882292 13.5051410433593  5.15 12.47  L 2.43 10  L 4.79 6  L 8.22 7.16  C 9.02293537230224 6.47989190583294  9.94060311091424 5.94825413844518  10.93 5.59  L 11.64 2  L 16.36 2  L 17.07 5.55  C 18.0515783669399 5.91842220968717  18.9642821277461 6.44914254467446  19.77 7.12  L 23.21 6  L 25.57 10  L 22.85 12.4  C 23.0349031011771 13.4351410433593  23.0349031011771 14.4948589566407  22.85 15.53  L 25.57 18  Z " fill-rule="nonzero" fill="#ffffff" stroke="none" transform="matrix(1 0 0 1 804 837 )" />
  </g>
</svg>