<?xml version="1.0" encoding="utf-8"?>
<svg version="1.1" xmlns:xlink="http://www.w3.org/1999/xlink" width="152px" height="119px" xmlns="http://www.w3.org/2000/svg">
  <g transform="matrix(1 0 0 1 -628 -492 )">
    <path d="M 152 8.41481069042316  C 152 3.72106904231626  147.946666666667 0.00265033407572425  143.085833333333 0.278285077951001  C 128.624722222222 1.10253897550111  99.8819444444444 4.10271714922049  82.1380555555556 15.0114922048998  C 80.9136111111111 15.7641870824053  80.2195833333333 17.1026057906459  80 18.5019821826281  L 80 114.939688195991  C 80.2195833333333 118.000824053452  83.5525 119.935567928731  86.3629166666667 118.514988864143  C 104.61875 109.286525612472  131.020833333333 106.768708240535  144.075416666667 106.079621380846  C 148.5325 105.843741648107  151.997361111111 102.255189309577  152 97.953697104677  L 152 8.41481069042316  Z M 72 18.454276169265  C 71.7777777777778 17.0522494432071  71.0863888888889 15.7668374164811  69.8593055555556 15.0114922048998  C 52.1180555555556 4.10271714922049  23.3752777777778 1.10518930957684  8.91416666666667 0.278285077951001  C 4.05333333333333 0.00265033407572425  0 3.72106904231626  0 8.41481069042316  L 0 97.9563474387528  C 0 102.260489977728  3.46486111111111 105.849042316258  7.92194444444444 106.082271714922  C 20.9818055555556 106.77135857461  47.3970833333333 109.291826280624  65.6529166666667 118.525590200445  C 68.4554166666667 119.943518930958  71.7777777777778 118.011425389755  72 114.958240534521  L 72 18.454276169265  Z " fill-rule="nonzero" fill="#333333" stroke="none" transform="matrix(1 0 0 1 628 492 )" />
  </g>
</svg>