<?xml version="1.0" encoding="utf-8"?>
<svg version="1.1" xmlns:xlink="http://www.w3.org/1999/xlink" width="13px" height="13px" xmlns="http://www.w3.org/2000/svg">
  <g transform="matrix(1 0 0 1 -812 -845 )">
    <path d="M 6.06030613838787 12.0003061383879  C 6.04020370373972 12.0003061383879  6.02010139859985 12.0002040909437  6 12  C 2.68629150101524 12  0 9.31370849898476  0 6  C 0 2.68629150101524  2.68629150101524 0  6 0  C 9.31370849898476 0  12 2.68629150101524  12 6  C 12.0002040909437 6.02010139860002  12.0003061383879 6.04020370373955  12.0003061383879 6.06030613838787  C 12.0003061383879 9.34087755238279  9.34087755238279 12.0003061383879  6.06030613838787 12.0003061383879  Z M 6.09106050383989 1.99893949616011  C 6.0607039149343 1.99893949616011  6.03034835533038 1.99929302141161  6 2  C 5.96965164466967 1.99929302141161  5.93929608506565 1.99893949616011  5.90893949616011 1.99893949616011  C 3.74950612432171 1.99893949616011  1.99893949616011 3.74950612432171  1.99893949616011 5.90893949616011  C 1.99893949616011 5.9392960850657  1.99929302141161 5.96965164466962  2 6  C 1.99929302141161 6.03034835533033  1.99893949616011 6.06070391493435  1.99893949616011 6.09106050383989  C 1.99893949616011 8.25049387567829  3.74950612432171 10.0010605038399  5.90893949616011 10.0010605038399  C 5.9392960850657 10.0010605038399  5.96965164466962 10.0007069785884  6 10  C 6.03034835533033 10.0007069785884  6.06070391493435 10.0010605038399  6.09106050383989 10.0010605038399  C 8.25049387567829 10.0010605038399  10.0010605038399 8.25049387567829  10.0010605038399 6.09106050383989  C 10.0010605038399 6.0607039149343  10.0007069785884 6.03034835533038  10 6  C 10.0007069785884 5.96965164466967  10.0010605038399 5.93929608506565  10.0010605038399 5.90893949616011  C 10.0010605038399 3.74950612432171  8.25049387567829 1.99893949616011  6.09106050383989 1.99893949616011  Z " fill-rule="nonzero" fill="#ffffff" stroke="none" transform="matrix(1 0 0 1 812 845 )" />
  </g>
</svg>