<?xml version="1.0" encoding="utf-8"?>
<svg version="1.1" xmlns:xlink="http://www.w3.org/1999/xlink" width="25px" height="24px" xmlns="http://www.w3.org/2000/svg">
  <g transform="matrix(1 0 0 1 -347 -432 )">
    <path d="M 25 12  C 25 5.37  19.40625 0  12.5 0  C 5.59375 0  0 5.37  0 12  C 0 18.63  5.59375 24  12.5 24  C 19.40625 24  25 18.63  25 12  Z M 13.75 10.8  L 13.75 18  L 11.25 18  L 11.25 10.8  L 13.75 10.8  Z M 13.75 6  L 13.75 8.39999999999999  L 11.25 8.39999999999999  L 11.25 6  L 13.75 6  Z " fill-rule="nonzero" fill="#333333" stroke="none" transform="matrix(1 0 0 1 347 432 )" />
  </g>
</svg>