<?xml version="1.0" encoding="utf-8"?>
<svg version="1.1" xmlns:xlink="http://www.w3.org/1999/xlink" width="38px" height="38px" xmlns="http://www.w3.org/2000/svg">
  <g transform="matrix(1 0 0 1 -636 -605 )">
    <path d="M 654.890006424842 605.500326991716  C 654.926670176583 605.50010899991  654.963334863623 605.5  655 605.5  C 665.21726787187 605.5  673.5 613.78273212813  673.5 624  C 673.5 634.21726787187  665.21726787187 642.5  655 642.5  C 651.39554422859 642.5  647.873372610421 641.447135985585  644.864117618334 639.476239451739  L 655.410720029789 624.285147430517  A 0.5 0.5 0 0 0 655.499728171279 623.983515011966 L 654.890006424842 605.500326991716  Z " fill-rule="nonzero" fill="#0000ff" stroke="none" />
    <path d="M 654.890006424842 605.500326991716  C 654.926670176583 605.50010899991  654.963334863623 605.5  655 605.5  C 665.21726787187 605.5  673.5 613.78273212813  673.5 624  C 673.5 634.21726787187  665.21726787187 642.5  655 642.5  C 651.39554422859 642.5  647.873372610421 641.447135985585  644.864117618334 639.476239451739  L 655.410720029789 624.285147430517  A 0.5 0.5 0 0 0 655.499728171279 623.983515011966 L 654.890006424842 605.500326991716  Z " stroke-width="1" stroke="#333333" fill="none" />
  </g>
</svg>