<?xml version="1.0" encoding="utf-8"?>
<svg version="1.1" xmlns:xlink="http://www.w3.org/1999/xlink" width="130px" height="130px" xmlns="http://www.w3.org/2000/svg">
  <g transform="matrix(1 0 0 1 -277 -247 )">
    <path d="M 97.5 60.3450520833333  C 99.3055555555556 61.3606770833333  100.208333333333 62.9123263888889  100.208333333333 65  C 100.208333333333 67.0876736111111  99.3055555555556 68.6393229166667  97.5 69.6549479166667  L 51.4583333333333 96.73828125  C 50.6119791666667 97.24609375  49.7092013888889 97.5  48.75 97.5  C 47.8472222222222 97.5  46.9444444444445 97.2743055555555  46.0416666666667 96.8229166666667  C 44.2361111111111 95.7508680555555  43.3333333333333 94.1710069444444  44 92.0833333333333  L 44 37.9166666666667  C 43.3333333333333 35.8289930555556  44.2361111111111 34.2491319444444  46.0416666666667 33.1770833333333  C 47.9036458333333 32.1614583333333  49.7092013888889 32.1896701388889  51.4583333333333 33.26171875  L 97.5 60.3450520833333  Z M 104.86328125 88.10546875  C 108.982204861111 81.0525173611111  111.041666666667 73.3506944444445  111.041666666667 65  C 111.041666666667 56.6493055555556  108.982204861111 48.9474826388889  104.86328125 41.89453125  C 100.744357638889 34.8415798611111  95.1584201388889 29.2556423611111  88.10546875 25.13671875  C 81.0525173611111 21.0177951388889  73.3506944444445 18.9583333333333  65 18.9583333333333  C 56.6493055555556 18.9583333333333  48.9474826388889 21.0177951388889  41.89453125 25.13671875  C 34.8415798611111 29.2556423611111  29.2556423611111 34.8415798611111  25.13671875 41.89453125  C 21.0177951388889 48.9474826388889  18.9583333333333 56.6493055555556  18.9583333333333 65  C 18.9583333333333 73.3506944444445  21.0177951388889 81.0525173611111  25.13671875 88.10546875  C 29.2556423611111 95.1584201388889  34.8415798611111 100.744357638889  41.89453125 104.86328125  C 48.9474826388889 108.982204861111  56.6493055555556 111.041666666667  65 111.041666666667  C 73.3506944444445 111.041666666667  81.0525173611111 108.982204861111  88.10546875 104.86328125  C 95.1584201388889 100.744357638889  100.744357638889 95.1584201388889  104.86328125 88.10546875  Z M 121.282552083333 32.373046875  C 127.094184027778 42.3318142361111  130 53.2074652777778  130 65  C 130 76.7925347222222  127.094184027778 87.6681857638889  121.282552083333 97.626953125  C 115.470920138889 107.585720486111  107.585720486111 115.470920138889  97.626953125 121.282552083333  C 87.6681857638889 127.094184027778  76.7925347222222 130  65 130  C 53.2074652777778 130  42.3318142361111 127.094184027778  32.373046875 121.282552083333  C 22.4142795138889 115.470920138889  14.5290798611111 107.585720486111  8.71744791666667 97.626953125  C 2.90581597222222 87.6681857638889  0 76.7925347222222  0 65  C 0 53.2074652777778  2.90581597222222 42.3318142361111  8.71744791666667 32.373046875  C 14.5290798611111 22.4142795138889  22.4142795138889 14.5290798611111  32.373046875 8.71744791666666  C 42.3318142361111 2.90581597222221  53.2074652777778 0  65 0  C 76.7925347222222 0  87.6681857638889 2.90581597222221  97.626953125 8.71744791666666  C 107.585720486111 14.5290798611111  115.470920138889 22.4142795138889  121.282552083333 32.373046875  Z " fill-rule="nonzero" fill="#000000" stroke="none" transform="matrix(1 0 0 1 277 247 )" />
  </g>
</svg>