<?xml version="1.0" encoding="utf-8"?>
<svg version="1.1" xmlns:xlink="http://www.w3.org/1999/xlink" width="73px" height="73px" xmlns="http://www.w3.org/2000/svg">
  <g transform="matrix(1 0 0 1 -741 -45 )">
    <path d="M 777.5 45  C 797.94 45  814 61.06  814 81.5  C 814 101.94  797.94 118  777.5 118  C 757.06 118  741 101.94  741 81.5  C 741 61.06  757.06 45  777.5 45  Z " fill-rule="nonzero" fill="#ffffff" stroke="none" />
    <path d="M 777.5 45.5  C 797.66 45.5  813.5 61.34  813.5 81.5  C 813.5 101.66  797.66 117.5  777.5 117.5  C 757.34 117.5  741.5 101.66  741.5 81.5  C 741.5 61.34  757.34 45.5  777.5 45.5  Z " stroke-width="1" stroke="#797979" fill="none" />
  </g>
</svg>