<?xml version="1.0" encoding="utf-8"?>
<svg version="1.1" xmlns:xlink="http://www.w3.org/1999/xlink" width="44px" height="38px" xmlns="http://www.w3.org/2000/svg">
  <g transform="matrix(1 0 0 1 -1120 -8 )">
    <path d="M 44 17.8125  C 44 17.159375  43.45 16.625  42.7777777777778 16.625  L 40.5243055555556 16.625  C 39.8520833333333 15.140625  38.8743055555556 13.826953125  37.6673611111111 12.728515625  L 39.1111111111111 7.125  L 36.6666666666667 7.125  C 34.4208333333333 7.125  32.4347222222222 8.126953125  31.0902777777778 9.670703125  C 30.5097222222222 9.5890625  29.9368055555556 9.5  29.3333333333333 9.5  L 19.5555555555556 9.5  C 13.6430555555556 9.5  8.71597222222222 13.58203125  7.57777777777778 19  L 4.27777777777778 19  C 3.14722222222222 19  2.25347222222222 17.998046875  2.48263888888889 16.8625  C 2.65069444444444 16.01640625  3.46805555555556 15.4375  4.35416666666667 15.4375  L 4.43055555555556 15.4375  C 4.68263888888889 15.4375  4.88888888888889 15.237109375  4.88888888888889 14.9921875  L 4.88888888888889 13.5078125  C 4.88888888888889 13.262890625  4.68263888888889 13.0625  4.43055555555556 13.0625  C 2.25347222222222 13.0625  0.313194444444445 14.5765625  0.0381944444444444 16.66953125  C -0.297916666666667 19.2078125  1.73402777777778 21.375  4.27777777777778 21.375  L 7.33333333333333 21.375  C 7.33333333333333 25.24921875  9.27361111111111 28.655859375  12.2222222222222 30.823046875  L 12.2222222222222 36.8125  C 12.2222222222222 37.465625  12.7722222222222 38  13.4444444444444 38  L 18.3333333333333 38  C 19.0055555555556 38  19.5555555555556 37.465625  19.5555555555556 36.8125  L 19.5555555555556 33.25  L 29.3333333333333 33.25  L 29.3333333333333 36.8125  C 29.3333333333333 37.465625  29.8833333333333 38  30.5555555555556 38  L 35.4444444444444 38  C 36.1166666666667 38  36.6666666666667 37.465625  36.6666666666667 36.8125  L 36.6666666666667 30.823046875  C 37.5680555555556 30.1625  38.3701388888889 29.383203125  39.0576388888889 28.5  L 42.7777777777778 28.5  C 43.45 28.5  44 27.965625  44 27.3125  L 44 17.8125  Z M 34.2222222222222 20.1875  C 34.2222222222222 20.840625  33.6722222222222 21.375  33 21.375  C 32.3277777777778 21.375  31.7777777777778 20.840625  31.7777777777778 20.1875  C 31.7777777777778 19.534375  32.3277777777778 19  33 19  C 33.6722222222222 19  34.2222222222222 19.534375  34.2222222222222 20.1875  Z M 15.9347222222222 7.58515625  C 17.0958333333333 7.295703125  18.3027777777778 7.125  19.5555555555556 7.125  L 29.3333333333333 7.125  C 29.7458333333333 7.125  30.1506944444444 7.1546875  30.5479166666667 7.184375  C 30.5479166666667 7.162109375  30.5555555555556 7.147265625  30.5555555555556 7.125  C 30.5555555555556 3.19140625  27.2708333333333 0  23.2222222222222 0  C 19.1736111111111 0  15.8888888888889 3.19140625  15.8888888888889 7.125  C 15.8888888888889 7.280859375  15.9270833333333 7.429296875  15.9347222222222 7.58515625  Z " fill-rule="nonzero" fill="#333333" stroke="none" transform="matrix(1 0 0 1 1120 8 )" />
  </g>
</svg>