<?xml version="1.0" encoding="utf-8"?>
<svg version="1.1" xmlns:xlink="http://www.w3.org/1999/xlink" width="36px" height="36px" xmlns="http://www.w3.org/2000/svg">
  <g transform="matrix(1 0 0 1 -1257 -875 )">
    <path d="M 6.08316831683168 32.9584158415842  L 8.62574257425743 32.9584158415842  L 10.7881188118812 30.7960396039604  L 5.2039603960396 25.2118811881188  L 3.04158415841584 27.3742574257426  L 3.04158415841584 29.9168316831683  L 6.08316831683168 29.9168316831683  L 6.08316831683168 32.9584158415842  Z M 20.8871287128713 11.3108910891089  C 20.9980198019802 11.2  21.0534653465347 11.0653465346535  21.0534653465347 10.9069306930693  C 21.0534653465347 10.5584158415842  20.8792079207921 10.3841584158416  20.5306930693069 10.3841584158416  C 20.3722772277228 10.3841584158416  20.2376237623762 10.439603960396  20.1267326732673 10.550495049505  L 7.24752475247525 23.429702970297  C 7.13663366336634 23.5405940594059  7.08118811881188 23.6752475247525  7.08118811881188 23.8336633663366  C 7.08118811881188 24.1821782178218  7.25544554455446 24.3564356435644  7.6039603960396 24.3564356435644  C 7.76237623762376 24.3564356435644  7.8970297029703 24.3009900990099  8.00792079207921 24.190099009901  L 20.8871287128713 11.3108910891089  Z M 0 26.1148514851485  L 19.770297029703 6.34455445544555  L 29.6554455445545 16.229702970297  L 9.88514851485149 36  L 0 36  L 0 26.1148514851485  Z M 35.1207920792079 6.46336633663366  C 35.7069306930693 7.08118811881188  36 7.8019801980198  36 8.62574257425743  C 36 9.46534653465346  35.7069306930693 10.1782178217822  35.1207920792079 10.7643564356436  L 31.1762376237624 14.7089108910891  L 21.2910891089109 4.82376237623763  L 25.2356435643564 0.902970297029701  C 25.8059405940594 0.300990099009898  26.5188118811881 0  27.3742574257426 0  C 28.2138613861386 0  28.9346534653465 0.300990099009898  29.5366336633663 0.902970297029701  L 35.1207920792079 6.46336633663366  Z " fill-rule="nonzero" fill="#000000" stroke="none" transform="matrix(1 0 0 1 1257 875 )" />
  </g>
</svg>