<?xml version="1.0" encoding="utf-8"?>
<svg version="1.1" xmlns:xlink="http://www.w3.org/1999/xlink" width="18px" height="18px" xmlns="http://www.w3.org/2000/svg">
  <g transform="matrix(1 0 0 1 -1218 -81 )">
    <path d="M 18 9  C 18 3.98571428571428  14.0142857142857 0  9 0  C 3.98571428571428 0  0 3.98571428571428  0 9  C 0 14.0142857142857  3.98571428571428 18  9 18  C 14.0142857142857 18  18 14.0142857142857  18 9  Z M 13.5 12.4714285714286  L 12.4714285714286 13.5  L 9 10.0285714285714  L 5.52857142857143 13.5  L 4.5 12.4714285714286  L 7.97142857142857 9  L 4.5 5.52857142857143  L 5.52857142857143 4.5  L 9 7.97142857142857  L 12.4714285714286 4.5  L 13.5 5.52857142857143  L 10.0285714285714 9  L 13.5 12.4714285714286  Z " fill-rule="nonzero" fill="#7f7f7f" stroke="none" transform="matrix(1 0 0 1 1218 81 )" />
  </g>
</svg>