<?xml version="1.0" encoding="utf-8"?>
<svg version="1.1" xmlns:xlink="http://www.w3.org/1999/xlink" width="80px" height="80px" xmlns="http://www.w3.org/2000/svg">
  <g transform="matrix(1 0 0 1 -1235 -853 )">
    <path d="M 1275 853  C 1297.4 853  1315 870.6  1315 893  C 1315 915.4  1297.4 933  1275 933  C 1252.6 933  1235 915.4  1235 893  C 1235 870.6  1252.6 853  1275 853  Z " fill-rule="nonzero" fill="#ffffff" stroke="none" />
    <path d="M 1275 853.5  C 1297.12 853.5  1314.5 870.88  1314.5 893  C 1314.5 915.12  1297.12 932.5  1275 932.5  C 1252.88 932.5  1235.5 915.12  1235.5 893  C 1235.5 870.88  1252.88 853.5  1275 853.5  Z " stroke-width="1" stroke="#7f7f7f" fill="none" />
  </g>
</svg>