<?xml version="1.0" encoding="utf-8"?>
<svg version="1.1" xmlns:xlink="http://www.w3.org/1999/xlink" width="20px" height="20px" xmlns="http://www.w3.org/2000/svg">
  <g>
    <path d="M 0.399999999999999 10  C 0.399999999999999 4.69866666666667  4.69866666666667 0.399999999999999  10 0.4  C 15.3013333333333 0.4  19.6 4.69866666666667  19.6 10  C 19.6 15.3013333333333  15.3013333333333 19.6  10 19.6  C 4.69866666666667 19.6  0.399999999999999 15.3013333333333  0.399999999999999 10  Z M 9.11466666666666 13.6906666666667  L 14.0106666666667 7.89866666666667  C 14.1706666666667 7.71733333333333  14.256 7.472  14.256 7.22666666666667  C 14.256 6.90666666666667  14.128 6.59733333333333  13.872 6.39466666666667  C 13.6693333333333 6.23466666666667  13.4453333333333 6.16  13.1786666666667 6.16  C 12.8693333333333 6.16  12.5813333333333 6.288  12.3786666666667 6.53333333333333  L 8.38933333333333 11.2693333333333  L 7.504 10.0213333333333  C 7.30133333333333 9.744  6.992 9.57333333333333  6.64 9.57333333333333  C 6.416 9.57333333333333  6.21333333333333 9.63733333333333  6.032 9.75466666666667  C 5.73333333333333 9.94666666666667  5.57333333333333 10.2453333333333  5.57333333333333 10.6186666666667  C 5.57333333333333 10.8426666666667  5.63733333333333 11.056  5.76533333333333 11.248  L 7.41866666666667 13.6053333333333  C 7.632 13.904  7.94133333333333 14.0746666666667  8.304 14.0746666666667  C 8.61333333333333 14.0746666666667  8.912 13.936  9.11466666666666 13.6906666666667  Z " fill-rule="nonzero" fill="#c280ff" stroke="none" />
  </g>
</svg>