<?xml version="1.0" encoding="utf-8"?>
<svg version="1.1" xmlns:xlink="http://www.w3.org/1999/xlink" width="115px" height="88px" xmlns="http://www.w3.org/2000/svg">
  <g transform="matrix(1 0 0 1 -586 -359 )">
    <path d="M 5.75 38.5  C 2.56953125 38.5  0 40.9578125  0 44  L 0 66  C 0 69.0421875  2.56953125 71.5  5.75 71.5  L 12 71.5  L 12 38.5  L 5.75 38.5  Z M 97 30.25  C 97.75 22.653125  91.3171875 16.5  83.375 17  L 63 17  L 63 5.5  C 63.25 2.4578125  60.68046875 0  57.5 0  C 54.31953125 0  51.75 2.4578125  52 5.5  L 52 17  L 31.625 17  C 23.6828125 16.5  17.25 22.653125  18 30.25  L 18 77  C 17.25 83.0671875  22.40703125 88  28.75 88  L 86.25 88  C 92.59296875 88  97.75 83.0671875  97 77  L 97 30.25  Z M 46 66  L 46 71  L 34.5 71  L 34.5 66  L 46 66  Z M 47.4375 44  C 47.4375 47.7984375  44.22109375 50.875  40.25 50.875  C 36.27890625 50.875  33.0625 47.7984375  33.0625 44  C 33.0625 40.2015625  36.27890625 37.125  40.25 37.125  C 44.22109375 37.125  47.4375 40.2015625  47.4375 44  Z M 63.25 66  L 63.25 71  L 51.75 71  L 51.75 66  L 63.25 66  Z M 80.5 66  L 80.5 71  L 69 71  L 69 66  L 80.5 66  Z M 81.9375 44  C 81.9375 47.7984375  78.72109375 50.875  74.75 50.875  C 70.77890625 50.875  67.5625 47.7984375  67.5625 44  C 67.5625 40.2015625  70.77890625 37.125  74.75 37.125  C 78.72109375 37.125  81.9375 40.2015625  81.9375 44  Z M 115 44  C 115 40.9578125  112.43046875 38.5  109.25 38.5  L 103 38.5  L 103 71.5  L 109.25 71.5  C 112.43046875 71.5  115 69.0421875  115 66  L 115 44  Z " fill-rule="nonzero" fill="#333333" stroke="none" transform="matrix(1 0 0 1 586 359 )" />
  </g>
</svg>