<?xml version="1.0" encoding="utf-8"?>
<svg version="1.1" xmlns:xlink="http://www.w3.org/1999/xlink" width="86px" height="59px" xmlns="http://www.w3.org/2000/svg">
  <g transform="matrix(1 0 0 1 -706 -434 )">
    <path d="M 13.2240028782895 39.6335336538462  C 5.18316200657894 41.8079176682692  1.85959087171052 48.6554987980769  1.0078125 57  L 85.8762335526316 57  C 85.1300986842105 48.6554987980769  81.5757915296053 41.8079176682692  73.5345086348684 39.6335336538462  C 73.3373663651316 39.5807917668269  73.0394428453947 39.4456129807692  72.8418585526316 39.3937575120192  C 67.5358141447368 37.8762094350962  63.5540707236842 36.0018780048077  63.5540707236842 30.1834284855769  L 63.5540707236842 21.0555363581731  C 63.5540707236842 9.73774789663462  54.4819901315789 0.567307692307692  43.2165912828947 0.567307692307692  C 31.9600328947368 0.567307692307692  22.8879523026316 9.73774789663462  22.8879523026316 21.0555363581731  L 22.8879523026316 30.1834284855769  C 22.8879523026316 36.0018780048077  19.0900904605263 37.7928861177885  13.7836040296053 39.3104341947115  C 13.5860197368421 39.3622896634615  13.4299856085526 39.5807917668269  13.2240028782895 39.6335336538462  Z M 37.3500616776316 21.0555363581731  C 37.3500616776316 17.6707481971154  40.0720394736842 14.9250676081731  43.4376027960526 14.9250676081731  C 46.8036081414474 14.9250676081731  49.5335423519737 17.6707481971154  49.5335423519737 21.0555363581731  C 49.5335423519737 24.4478590745192  46.8036081414474 27.1939828725962  43.4376027960526 27.1939828725962  C 40.0720394736842 27.1939828725962  37.3500616776316 24.4483022836538  37.3500616776316 21.0555363581731  Z " fill-rule="nonzero" fill="#333333" stroke="none" transform="matrix(1 0 0 1 706 434 )" />
  </g>
</svg>