<?xml version="1.0" encoding="utf-8"?>
<svg version="1.1" xmlns:xlink="http://www.w3.org/1999/xlink" width="159px" height="186px" xmlns="http://www.w3.org/2000/svg">
  <g transform="matrix(1 0 0 1 -670 -447 )">
    <path d="M 157 13.3505859375  C 157.802176339286 6.47615282012196  152.588981584821 0.912633384146341  145.87318359375 1  L 112.994698660714 1  L 112.994698660714 7.10967987804878  C 112.994698660714 11.798223132622  117.07306640625 15.5324885670732  121.648752790179 16  L 138.157424665179 16  C 141.115161830357 15.5324885670732  143.525005580357 17.9403344131098  143 20.9351895960366  L 143 165.848966272866  C 143.571143973214 168.698508955793  141.361381138393 170.964143483232  138.605943080357 171  L 21.2999665178571 171  C 18.5445284598214 170.977877286585  16.3538420758928 168.663509908537  17 165.814410251524  L 17 20.9387338033537  C 16.3156891741071 17.9434355945122  18.7716713169643 15.5324885670732  21.7209793526786 16  L 38.2380803571428 16  C 42.8133231026786 15.5324885670732  46.44849609375 11.798223132622  46.44849609375 7.10967987804879  L 46.44849609375 1  L 14.0047767857143 1  C 7.2978515625 0.912633384146341  1.64146205357143 6.47615282012196  2 13.3505859375  L 2 173.008265053354  C 1.64146205357143 179.876052782012  7.2978515625 185.654439786585  14.0052204241071 185  L 79.9392020089286 185  L 145.87318359375 185.654439786585  C 152.588981584821 185.654439786585  157.802176339286 179.876052782012  157 173.008265053354  L 157 13.3505859375  Z " fill-rule="nonzero" fill="#333333" stroke="none" transform="matrix(1 0 0 1 670 447 )" />
  </g>
</svg>