<?xml version="1.0" encoding="utf-8"?>
<svg version="1.1" xmlns:xlink="http://www.w3.org/1999/xlink" width="168px" height="128px" xmlns="http://www.w3.org/2000/svg">
  <g transform="matrix(1 0 0 1 -639 -344 )">
    <path d="M 8.4 56  C 3.75375 56  0 59.575  0 64  L 0 96  C 0 100.425  3.75375 104  8.4 104  L 17 104  L 17 56  L 8.4 56  Z M 142 44  C 142.8 32.95  133.4025 24  121.8 24  L 92 24  L 92 8  C 92.4 3.575  88.64625 0  84 0  C 79.35375 0  75.6 3.575  76 8  L 76 24  L 46.2 24  C 34.5975 24  25.2 32.95  26 44  L 26 112  C 25.2 120.825  32.73375 128  42 128  L 126 128  C 135.26625 128  142.8 120.825  142 112  L 142 44  Z M 67.2 96  L 67.2 104  L 50.4 104  L 50.4 96  L 67.2 96  Z M 69.3 64  C 69.3 69.525  64.60125 74  58.8 74  C 52.99875 74  48.3 69.525  48.3 64  C 48.3 58.475  52.99875 54  58.8 54  C 64.60125 54  69.3 58.475  69.3 64  Z M 92.4 96  L 92.4 104  L 75.6 104  L 75.6 96  L 92.4 96  Z M 117.6 96  L 117.6 104  L 100.8 104  L 100.8 96  L 117.6 96  Z M 119.7 64  C 119.7 69.525  115.00125 74  109.2 74  C 103.39875 74  98.7 69.525  98.7 64  C 98.7 58.475  103.39875 54  109.2 54  C 115.00125 54  119.7 58.475  119.7 64  Z M 168 64  C 168 59.575  164.24625 56  159.6 56  L 151 56  L 151 104  L 159.6 104  C 164.24625 104  168 100.425  168 96  L 168 64  Z " fill-rule="nonzero" fill="#333333" stroke="none" transform="matrix(1 0 0 1 639 344 )" />
  </g>
</svg>