<?xml version="1.0" encoding="utf-8"?>
<svg version="1.1" xmlns:xlink="http://www.w3.org/1999/xlink" width="213px" height="162px" xmlns="http://www.w3.org/2000/svg">
  <g transform="matrix(1 0 0 1 -617 -461 )">
    <path d="M 213 11.4554565701559  C 213 5.0656570155902  207.32 0.0036080178173725  200.5084375 0.378841870824052  C 180.243854166667 1.50093541202672  139.966145833333 5.58521158129176  115.101354166667 20.4358129175947  C 113.385520833333 21.4604899777283  112.41296875 23.2825389755011  112 25.1875723830735  L 112 156.472516703786  C 112.41296875 160.639777282851  117.0834375 163.273630289532  121.02171875 161.339732739421  C 146.60390625 148.776614699332  183.6015625 145.348997772829  201.89515625 144.410913140312  C 208.1409375 144.089799554566  212.996302083333 139.204543429844  213 133.348730512249  L 213 11.4554565701559  Z M 101 25.1226280623608  C 100.583333333333 23.213986636971  99.6144791666667 21.4640979955457  97.8949479166667 20.4358129175947  C 73.0338541666667 5.58521158129176  32.7561458333333 1.5045434298441  12.4915625 0.378841870824052  C 5.68 0.0036080178173725  0 5.0656570155902  0 11.4554565701559  L 0 133.352338530067  C 0 139.211759465479  4.85536458333333 144.0970155902  11.1011458333333 144.414521158129  C 29.4021354166667 145.352605790646  66.41828125 148.783830734967  92.00046875 161.35416481069  C 95.92765625 163.284454342984  100.583333333333 160.65420935412  101 156.497772828508  L 101 25.1226280623608  Z " fill-rule="nonzero" fill="#333333" stroke="none" transform="matrix(1 0 0 1 617 461 )" />
  </g>
</svg>