<?xml version="1.0" encoding="utf-8"?>
<svg version="1.1" xmlns:xlink="http://www.w3.org/1999/xlink" width="26px" height="22px" xmlns="http://www.w3.org/2000/svg">
  <g transform="matrix(1 0 0 1 -27 -33 )">
    <path d="M 22.2857142857143 11  C 22.2857142857143 9.98616666666667  22.1965714285714 9.16666666666666  21.1714285714286 9.16666666666666  L 10.4 9.16666666666666  C 9.37485714285715 9.16666666666666  9.28571428571429 9.98616666666667  9.28571428571429 11  C 9.28571428571429 12.0138333333333  9.37485714285715 12.8333333333333  10.4 12.8333333333333  L 21.1714285714286 12.8333333333333  C 22.1965714285714 12.8333333333333  22.2857142857143 12.0138333333333  22.2857142857143 11  Z M 26 20.1666666666667  C 26 19.1528333333333  25.9108571428571 18.3333333333333  24.8857142857143 18  L 10.4 18  C 9.37485714285715 18.3333333333333  9.28571428571429 19.1528333333333  9.28571428571429 20.1666666666667  C 9.28571428571429 21.1805  9.37485714285715 22  10.4 22  L 24.8857142857143 22  C 25.9108571428571 22  26 21.1805  26 20.1666666666667  Z M 9.28571428571429 1.83333333333333  C 9.28571428571429 2.84716666666667  9.37485714285715 3.66666666666666  10.4 4  L 24.8857142857143 4  C 25.9108571428571 3.66666666666666  26 2.84716666666667  26 1.83333333333333  C 26 0.819500000000009  25.9108571428571 0  24.8857142857143 0  L 10.4 0  C 9.37485714285715 0  9.28571428571429 0.819500000000009  9.28571428571429 1.83333333333333  Z M 5.57142857142857 11  C 5.57142857142857 9.98616666666667  5.48228571428571 9.16666666666666  4.45714285714285 9.16666666666666  L 1.11428571428571 9.16666666666666  C 0.0891428571428605 9.16666666666666  0 9.98616666666667  0 11  C 0 12.0138333333333  0.0891428571428605 12.8333333333333  1.11428571428571 12.8333333333333  L 4.45714285714285 12.8333333333333  C 5.48228571428571 12.8333333333333  5.57142857142857 12.0138333333333  5.57142857142857 11  Z M 5.57142857142857 20.1666666666667  C 5.57142857142857 19.1528333333333  5.48228571428571 18.3333333333333  4.45714285714285 18.3333333333333  L 1.11428571428571 18.3333333333333  C 0.0891428571428605 18.3333333333333  0 19.1528333333333  0 20.1666666666667  C 0 21.1805  0.0891428571428605 22  1.11428571428571 22  L 4.45714285714285 22  C 5.48228571428571 22  5.57142857142857 21.1805  5.57142857142857 20.1666666666667  Z M 5.57142857142857 1.83333333333333  C 5.57142857142857 0.819500000000009  5.48228571428571 0  4.45714285714285 0  L 1.11428571428571 0  C 0.0891428571428605 0  0 0.819500000000009  0 1.83333333333333  C 0 2.84716666666667  0.0891428571428605 3.66666666666666  1.11428571428571 3.66666666666666  L 4.45714285714285 3.66666666666666  C 5.48228571428571 3.66666666666666  5.57142857142857 2.84716666666667  5.57142857142857 1.83333333333333  Z " fill-rule="nonzero" fill="#6283ee" stroke="none" transform="matrix(1 0 0 1 27 33 )" />
  </g>
</svg>