<?xml version="1.0" encoding="utf-8"?>
<svg version="1.1" xmlns:xlink="http://www.w3.org/1999/xlink" width="29px" height="29px" xmlns="http://www.w3.org/2000/svg">
  <g transform="matrix(1 0 0 1 -26 -820 )">
    <path d="M 28.7136809928658 18.3135  L 25.569160217511 15.91375  C 25.6287719857641 15.44975  25.673480811954 14.9785  25.673480811954 14.5  C 25.673480811954 14.0215  25.6287719857641 13.55025  25.569160217511 13.08625  L 28.7211324638975 10.6865  C 29.0042883631 10.469  29.0862545444482 10.0775  28.899967768657 9.7585  L 25.9193793559984 4.73425  C 25.7330925802072 4.4225  25.3456160865616 4.292  25.0102998901375 4.4225  L 21.2994673163775 5.87975  C 20.5319658001179 5.307  19.6899495735418 4.82125  18.780870107681 4.4515  L 18.2220097803075 0.609  C 18.1549465410226 0.26825  17.8494362287251 0  17.4768626771428 0  L 11.5156858518255 0  C 11.1431123002432 0  10.8376019879457 0.26825  10.7779902196925 0.609  L 10.219129892319 4.4515  C 9.31005042645817 4.82125  8.4680341998821 5.29975  7.70053268362251 5.87975  L 3.98970010986251 4.4225  C 3.65438391343842 4.29925  3.2669074197928 4.4225  3.08062064400163 4.73425  L 0.100032231343004 9.7585  C -0.0862545444481601 10.07025  -0.00428836310004761 10.46175  0.278867536102522 10.6865  L 3.42338831145737 13.08625  C 3.3637765432042 13.55025  3.31906771701432 14.0215  3.31906771701432 14.5  C 3.31906771701432 14.9785  3.3637765432042 15.44975  3.42338831145737 15.91375  L 0.278867536102523 18.3135  C -0.00428836310004699 18.531  -0.0862545444481595 18.9225  0.100032231343005 19.2415  L 3.08062064400163 24.26575  C 3.2669074197928 24.5775  3.65438391343842 24.708  3.98970010986251 24.5775  L 7.70053268362251 23.12025  C 8.4680341998821 23.693  9.31005042645816 24.17875  10.219129892319 24.5485  L 10.7779902196925 28.391  C 10.8376019879457 28.73175  11.1431123002432 29  11.5156858518255 29  L 17.4768626771428 29  C 17.8494362287251 29  18.1549465410226 28.73175  18.2145583092758 28.391  L 18.7734186366493 24.5485  C 19.6824981025102 24.17875  20.5245143290862 23.70025  21.2920158453458 23.12025  L 25.0028484191058 24.5775  C 25.3381646155299 24.70075  25.7256411091755 24.5775  25.9119278849667 24.26575  L 28.8925162976253 19.2415  C 29.0788030734165 18.92975  28.9968368920684 18.53825  28.7136809928658 18.3135  Z M 19.7123039866368 14.5  C 19.7123039866368 17.30575  17.3799935537314 19.575  14.4962742644842 19.575  C 11.612554975237 19.575  9.28024454233158 17.30575  9.28024454233158 14.5  C 9.28024454233158 11.69425  11.612554975237 9.425  14.4962742644842 9.425  C 17.3799935537314 9.425  19.7123039866368 11.69425  19.7123039866368 14.5  Z " fill-rule="nonzero" fill="#333333" stroke="none" transform="matrix(1 0 0 1 26 820 )" />
  </g>
</svg>