<?xml version="1.0" encoding="utf-8"?>
<svg version="1.1" xmlns:xlink="http://www.w3.org/1999/xlink" width="41px" height="39px" xmlns="http://www.w3.org/2000/svg">
  <g transform="matrix(1 0 0 1 -15 -11 )">
    <path d="M 40.74375 4.87839130434783  C 40.923125 5.04626086956522  41 5.2514347826087  41 5.48204347826087  L 41 33.54  C 40.9982916666667 33.7790869565217  40.912875 33.9723913043478  40.74375 34.1266956521739  C 40.5712083333333 34.2860869565217  40.3662083333333 34.3606956521739  40.12875 34  L 25.507125 34  L 25.507125 30  L 37.4347083333333 30  L 37.4347083333333 28  L 25.496875 28  L 25.496875 26  L 37.4244583333333 26  L 37.4244583333333 24  L 25.5054166666667 24  L 25.5054166666667 22  L 37.4295833333333 22  L 37.4295833333333 20.8209130434783  L 25.5054166666667 20.8209130434783  L 25.5054166666667 19  L 37.4295833333333 19  L 37.4295833333333 17  L 25.5054166666667 17  L 25.5054166666667 15  L 37.4295833333333 15  L 37.4295833333333 13  L 25.5054166666667 13  L 25.5054166666667 11  L 37.4295833333333 11  L 37.4295833333333 9  L 25.5054166666667 9  L 25.5054166666667 5  L 40.1321666666667 5  C 40.3867083333333 4.62573913043478  40.5934166666667 4.70713043478261  40.74375 4.87839130434783  Z M 23.31875 0.232304347826087  L 23 0.239086956521739  L 23 38.7676956521739  L 0 34.7625652173913  L 0 4.35273913043478  L 23.31875 0.232304347826087  Z M 19.7995833333333 11.6101304347826  L 19.7995833333333 11.6135217391304  L 16.8800416666667 11.7915652173913  L 15.0077083333333 23.2965652173913  L 14.965 23.2965652173913  C 14.87275 22.7522608695652  14.529375 20.846347826087  13.914375 17.5873043478261  L 12.82275 12.0543913043478  L 10.0825833333333 12.1900434782609  L 8.98583333333333 17.5873043478261  C 8.34520833333333 20.7310434782609  7.98816666666667 22.560652173913  7.89420833333333 23.0744347826087  L 7.86858333333333 23.0744347826087  L 6.20295833333333 12.4766086956522  L 3.69170833333333 12.6088695652174  L 6.38233333333333 25.9756956521739  L 9.17375 26.1537391304348  L 10.224375 20.9514782608696  C 10.839375 17.8993043478261  11.198125 16.125652173913  11.275 15.6406956521739  L 11.351875 15.6406956521739  C 11.4560833333333 16.1578695652174  11.7892083333333 17.9705217391304  12.4025 21.0837391304348  L 13.453125 26.4386086956522  L 16.476875 26.616652173913  L 19.859375 11.6101304347826  L 19.7995833333333 11.6101304347826  Z " fill-rule="nonzero" fill="#2b579a" stroke="none" transform="matrix(1 0 0 1 15 11 )" />
  </g>
</svg>