<?xml version="1.0" encoding="utf-8"?>
<svg version="1.1" xmlns:xlink="http://www.w3.org/1999/xlink" width="380px" height="399px" xmlns="http://www.w3.org/2000/svg">
  <defs>
    <filter x="-30px" y="-20px" width="380px" height="399px" filterUnits="userSpaceOnUse" id="filter100">
      <feOffset dx="0" dy="10" in="SourceAlpha" result="shadowOffsetInner" />
      <feGaussianBlur stdDeviation="15" in="shadowOffsetInner" result="shadowGaussian" />
      <feComposite in2="shadowGaussian" operator="atop" in="SourceAlpha" result="shadowComposite" />
      <feColorMatrix type="matrix" values="0 0 0 0 0  0 0 0 0 0  0 0 0 0 0  0 0 0 0.298039215686275 0  " in="shadowComposite" />
    </filter>
    <g id="widget101">
      <path d="M 1 4  A 3 3 0 0 1 4 1 L 316 1  A 3 3 0 0 1 319 4 L 319 335  A 3 3 0 0 1 316 338 L 4 338  A 3 3 0 0 1 1 335 L 1 4  Z " fill-rule="nonzero" fill="#ffffff" stroke="none" />
      <path d="M 0.5 4  A 3.5 3.5 0 0 1 4 0.5 L 316 0.5  A 3.5 3.5 0 0 1 319.5 4 L 319.5 335  A 3.5 3.5 0 0 1 316 338.5 L 4 338.5  A 3.5 3.5 0 0 1 0.5 335 L 0.5 4  Z " stroke-width="1" stroke="#000000" fill="none" stroke-opacity="0.149019607843137" />
    </g>
  </defs>
  <g transform="matrix(1 0 0 1 30 20 )">
    <use xlink:href="#widget101" filter="url(#filter100)" />
    <use xlink:href="#widget101" />
  </g>
</svg>