<?xml version="1.0" encoding="utf-8"?>
<svg version="1.1" xmlns:xlink="http://www.w3.org/1999/xlink" width="23px" height="23px" xmlns="http://www.w3.org/2000/svg">
  <g transform="matrix(1 0 0 1 -1293 -227 )">
    <path d="M 21.8480833333333 9.58333333333334  C 22.908 9.58333333333334  23 10.4400833333333  23 11.5  C 23 12.5599166666667  22.908 13.4166666666667  21.8480833333333 13.4166666666667  L 13.4166666666667 13.4166666666667  L 13.4166666666667 21.8480833333333  C 13.4166666666667 22.9060833333333  12.5599166666667 23  11.5 23  C 10.4400833333333 23  9.58333333333334 22.9060833333333  9.58333333333334 21.8480833333333  L 9.58333333333334 13.4166666666667  L 1.15191666666666 13.4166666666667  C 0.0939166666666589 13.4166666666667  0 12.5599166666667  0 11.5  C 0 10.4400833333333  0.0939166666666589 9.58333333333334  1.15191666666666 9.58333333333334  L 9.58333333333334 9.58333333333334  L 9.58333333333334 1.15191666666666  C 9.58333333333334 0.0919999999999899  10.4400833333333 0  11.5 0  C 12.5599166666667 0  13.4166666666667 0.0919999999999899  13.4166666666667 1.15191666666666  L 13.4166666666667 9.58333333333334  L 21.8480833333333 9.58333333333334  Z " fill-rule="nonzero" fill="#ffffff" stroke="none" transform="matrix(1 0 0 1 1293 227 )" />
  </g>
</svg>