<?xml version="1.0" encoding="utf-8"?>
<svg version="1.1" xmlns:xlink="http://www.w3.org/1999/xlink" width="22px" height="22px" xmlns="http://www.w3.org/2000/svg">
  <g transform="matrix(1 0 0 1 -1227 -228 )">
    <path d="M 22 0  L 18.76875 3.23125  C 16.781875 1.2375  14.03875 0  11 0  C 4.9225 0  0.0137499999999997 4.9225  0.0137499999999997 11  C 0.0137499999999997 17.0775  4.9225 22  11 22  C 16.121875 22  20.411875 18.49375  21.62875 13.75  L 18.76875 13.75  C 17.634375 16.95375  14.595625 19.25  11 19.25  C 6.441875 19.25  2.75 15.558125  2.75 11  C 2.75 6.441875  6.441875 2.75  11 2.75  C 13.275625 2.75  15.3175 3.69875  16.809375 5.190625  L 12.375 9.625  L 22 9.625  L 22 0  Z " fill-rule="nonzero" fill="#ffffff" stroke="none" transform="matrix(1 0 0 1 1227 228 )" />
  </g>
</svg>