<?xml version="1.0" encoding="utf-8"?>
<svg version="1.1" xmlns:xlink="http://www.w3.org/1999/xlink" width="32px" height="28px" xmlns="http://www.w3.org/2000/svg">
  <g transform="matrix(1 0 0 1 -414 -74 )">
    <path d="M 22.2617076023392 24.0089086859688  L 31.1230253411306 15.149995545657  C 32.2923040935672 13.9810423162583  32.2923040935672 12.0857728285078  31.1230253411306 10.9168195991091  L 21.1425185185185 0.939091314031179  C 19.9732397660819 -0.229861915367485  18.0775048732943 -0.229924276169267  16.9081013645224 0.939091314031179  L 0.93929044834308 16.9034565701559  C -0.229988304093568 18.0724097995546  -0.229988304093568 19.9676792873051  0.93929044834308 21.1366325167038  L 6.92759454191033 27.1232694877506  C 7.48913458372049 27.6846185984775  8.25072123775944 27.9999849863636  9.0448343079922 28  L 31.2514619883041 28  C 31.6648421052632 28  32 27.6649354120267  32 27.2516703786192  L 32 24.7572383073497  C 32 24.3439732739421  31.6648421052632 24.0089086859688  31.2514619883041 24.0089086859688  L 22.2617076023392 24.0089086859688  Z M 4.46802339181286 19.0200445434298  L 12.2457076023392 11.2445256124722  L 20.814783625731 19.8112160356347  L 16.6158596491228 24.0089086859688  L 9.45827680311891 24.0089086859688  L 4.46802339181286 19.0200445434298  Z " fill-rule="nonzero" fill="#000000" stroke="none" transform="matrix(1 0 0 1 414 74 )" />
  </g>
</svg>