<?xml version="1.0" encoding="utf-8"?>
<svg version="1.1" xmlns:xlink="http://www.w3.org/1999/xlink" width="29px" height="29px" xmlns="http://www.w3.org/2000/svg">
  <g transform="matrix(1 0 0 1 -597 -74 )">
    <path d="M 611.5 76  C 618.5 76  624 81.5  624 88.5  C 624 95.5  618.5 101  611.5 101  C 604.5 101  599 95.5  599 88.5  C 599 81.5  604.5 76  611.5 76  Z " fill-rule="nonzero" fill="#0000ff" stroke="none" />
    <path d="M 611.5 75.5  C 618.78 75.5  624.5 81.22  624.5 88.5  C 624.5 95.78  618.78 101.5  611.5 101.5  C 604.22 101.5  598.5 95.78  598.5 88.5  C 598.5 81.22  604.22 75.5  611.5 75.5  Z " stroke-width="3" stroke="#333333" fill="none" />
  </g>
</svg>