<?xml version="1.0" encoding="utf-8"?>
<svg version="1.1" xmlns:xlink="http://www.w3.org/1999/xlink" width="24px" height="24px" xmlns="http://www.w3.org/2000/svg">
  <defs>
    <mask fill="white" id="clip320">
      <path d="M 24 2.1  L 21.9 0  L 12 9.9  L 2.1 0  L 0 2.1  L 9.9 12  L 0 21.9  L 2.1 24  L 12 14.1  L 21.9 24  L 24 21.9  L 14.1 12  L 24 2.1  Z " fill-rule="evenodd" />
    </mask>
  </defs>
  <g transform="matrix(1 0 0 1 -248 -9 )">
    <path d="M 24 2.1  L 21.9 0  L 12 9.9  L 2.1 0  L 0 2.1  L 9.9 12  L 0 21.9  L 2.1 24  L 12 14.1  L 21.9 24  L 24 21.9  L 14.1 12  L 24 2.1  Z " fill-rule="nonzero" fill="#ffffff" stroke="none" transform="matrix(1 0 0 1 248 9 )" />
    <path d="M 24 2.1  L 21.9 0  L 12 9.9  L 2.1 0  L 0 2.1  L 9.9 12  L 0 21.9  L 2.1 24  L 12 14.1  L 21.9 24  L 24 21.9  L 14.1 12  L 24 2.1  Z " stroke-width="4" stroke="#ffb9c1" fill="none" transform="matrix(1 0 0 1 248 9 )" mask="url(#clip320)" />
  </g>
</svg>