<?xml version="1.0" encoding="utf-8"?>
<svg version="1.1" xmlns:xlink="http://www.w3.org/1999/xlink" width="49px" height="49px" xmlns="http://www.w3.org/2000/svg">
  <defs>
    <filter x="648px" y="64px" width="49px" height="49px" filterUnits="userSpaceOnUse" id="filter9">
      <feOffset dx="0" dy="0" in="SourceAlpha" result="shadowOffsetInner" />
      <feGaussianBlur stdDeviation="5" in="shadowOffsetInner" result="shadowGaussian" />
      <feComposite in2="shadowGaussian" operator="atop" in="SourceAlpha" result="shadowComposite" />
      <feColorMatrix type="matrix" values="0 0 0 0 0.333333333333333  0 0 0 0 0.333333333333333  0 0 0 0 0.333333333333333  0 0 0 1 0  " in="shadowComposite" />
    </filter>
    <g id="widget10">
      <path d="M 672.5 76  C 679.5 76  685 81.5  685 88.5  C 685 95.5  679.5 101  672.5 101  C 665.5 101  660 95.5  660 88.5  C 660 81.5  665.5 76  672.5 76  Z " fill-rule="nonzero" fill="#333333" stroke="none" />
      <path d="M 672.5 75.5  C 679.78 75.5  685.5 81.22  685.5 88.5  C 685.5 95.78  679.78 101.5  672.5 101.5  C 665.22 101.5  659.5 95.78  659.5 88.5  C 659.5 81.22  665.22 75.5  672.5 75.5  Z " stroke-width="3" stroke="#333333" fill="none" />
    </g>
  </defs>
  <g transform="matrix(1 0 0 1 -648 -64 )">
    <use xlink:href="#widget10" filter="url(#filter9)" />
    <use xlink:href="#widget10" />
  </g>
</svg>