<?xml version="1.0" encoding="utf-8"?>
<svg version="1.1" xmlns:xlink="http://www.w3.org/1999/xlink" width="30px" height="28px" xmlns="http://www.w3.org/2000/svg">
  <g transform="matrix(1 0 0 1 -477 -74 )">
    <path d="M 3.76128440366972 22.4060038986355  L 0 26.2523196881092  L 5.50018348623853 28  L 7.45155963302752 26.0651072124756  L 3.76128440366972 22.4060038986355  Z M 9.14477064220184 11.2180116959064  L 6.85926605504587 13.1523586744639  C 6.26745170032726 13.6702625724771  6.03526546992961 14.4831977287301  6.26532110091743 15.2318908382066  L 6.98366972477064 17.5695906432749  L 4.18018348623853 20.3499415204678  L 9.47724770642202 25.602261208577  L 12.276880733945 22.8262768031189  L 14.6295412844037 23.5401949317739  C 15.3853211009174 23.7694346978558  16.2066055045872 23.539649122807  16.7295412844037 22.9518128654971  L 18.6864220183486 20.6790643274854  L 9.14477064220184 11.2180116959064  Z M 29.1891743119266 8.48187134502924  C 30.2449541284404 7.29528265107212  30.1882568807339 5.50011695906433  29.0598165137615 4.38120857699805  L 25.5809174311927 0.93169590643275  C 24.4530275229358 -0.186666666666665  22.6425688073394 -0.242884990253409  21.445871559633 0.803430799220275  L 10.4889908256881 10.08  L 19.834128440367 19.3467446393762  L 29.1891743119266 8.48187134502924  Z " fill-rule="nonzero" fill="#000000" stroke="none" transform="matrix(1 0 0 1 477 74 )" />
  </g>
</svg>