<?xml version="1.0" encoding="utf-8"?>
<svg version="1.1" xmlns:xlink="http://www.w3.org/1999/xlink" width="30px" height="30px" xmlns="http://www.w3.org/2000/svg">
  <g transform="matrix(1 0 0 1 -122 0 )">
    <path d="M 0.599999999999998 15  C 0.599999999999998 7.048  7.048 0.599999999999998  15 0.6  C 22.952 0.6  29.4 7.048  29.4 15  C 29.4 22.952  22.952 29.4  15 29.4  C 7.048 29.4  0.599999999999998 22.952  0.599999999999998 15  Z M 20.12 20.12  C 20.584 19.656  20.584 18.888  20.12 18.424  L 16.696 15  L 20.12 11.56  C 20.584 11.096  20.584 10.328  20.12 9.864  C 19.656 9.4  18.888 9.4  18.424 9.864  L 15 13.288  L 11.56 9.864  C 11.096 9.4  10.328 9.4  9.864 9.864  C 9.4 10.328  9.4 11.096  9.864 11.56  L 13.304 15  L 9.864 18.424  C 9.4 18.888  9.4 19.656  9.864 20.12  C 10.328 20.584  11.096 20.584  11.56 20.12  L 15 16.696  L 18.424 20.12  C 18.888 20.584  19.656 20.584  20.12 20.12  Z " fill-rule="nonzero" fill="#aaaaaa" stroke="none" transform="matrix(1 0 0 1 122 0 )" />
  </g>
</svg>