<?xml version="1.0" encoding="utf-8"?>
<svg version="1.1" xmlns:xlink="http://www.w3.org/1999/xlink" width="29px" height="29px" xmlns="http://www.w3.org/2000/svg">
  <g transform="matrix(1 0 0 1 -536 -74 )">
    <path d="M 550.5 76  C 557.5 76  563 81.5  563 88.5  C 563 95.5  557.5 101  550.5 101  C 543.5 101  538 95.5  538 88.5  C 538 81.5  543.5 76  550.5 76  Z " fill-rule="nonzero" fill="#ffffff" stroke="none" />
    <path d="M 550.5 75.5  C 557.78 75.5  563.5 81.22  563.5 88.5  C 563.5 95.78  557.78 101.5  550.5 101.5  C 543.22 101.5  537.5 95.78  537.5 88.5  C 537.5 81.22  543.22 75.5  550.5 75.5  Z " stroke-width="3" stroke="#333333" fill="none" />
  </g>
</svg>