<?xml version="1.0" encoding="utf-8"?>
<svg version="1.1" xmlns:xlink="http://www.w3.org/1999/xlink" width="29px" height="34px" xmlns="http://www.w3.org/2000/svg">
  <g transform="matrix(1 0 0 1 -10 -25 )">
    <path d="M 19.3333333333333 3.23809523809524  L 19.3333333333333 0  L 9.66666666666667 0  L 9.66666666666667 3.23809523809524  L 19.3333333333333 3.23809523809524  Z M 12.8888888888889 11.3333333333333  L 12.8888888888889 21.047619047619  L 16.1111111111111 21.047619047619  L 16.1111111111111 11.3333333333333  L 12.8888888888889 11.3333333333333  Z M 29 19.4285714285714  C 29 15.9880952380952  27.8077777777778 12.8309523809524  25.8180555555556 10.337619047619  L 28.1138888888889 8.03047619047619  C 27.4211111111111 7.19666666666667  26.6638888888889 6.43571428571429  25.8341666666667 5.73952380952381  L 23.5383333333333 8.04666666666667  C 21.0652777777778 6.0552380952381  17.9155555555556 4.85714285714286  14.4919444444444 4.85714285714286  C 6.47666666666667 4.85714285714286  0 11.3819047619048  0 19.4285714285714  C 0 27.4752380952381  6.47666666666667 34  14.4919444444444 34  C 22.5072222222222 34  29 27.4752380952381  29 19.4285714285714  Z M 25.7777777777778 19.4285714285714  C 25.7777777777778 25.6861904761905  20.7269444444444 30.7619047619048  14.5 30.7619047619048  C 8.27305555555555 30.7619047619048  3.22222222222222 25.6861904761905  3.22222222222222 19.4285714285714  C 3.22222222222222 13.1709523809524  8.27305555555555 8.09523809523809  14.5 8.09523809523809  C 20.7269444444444 8.09523809523809  25.7777777777778 13.1709523809524  25.7777777777778 19.4285714285714  Z " fill-rule="nonzero" fill="#ffffff" stroke="none" transform="matrix(1 0 0 1 10 25 )" />
  </g>
</svg>