<?xml version="1.0" encoding="utf-8"?>
<svg version="1.1" xmlns:xlink="http://www.w3.org/1999/xlink" width="89px" height="51px" xmlns="http://www.w3.org/2000/svg">
  <g transform="matrix(1 0 0 1 -456 -579 )">
    <path d="M 0.363674147963522 35.6134663341646  C 0.363674147963522 35.6134663341646  44.5241064006651 20.6508728179552  51.5378221113882 15.4139650872819  C 58.5515378221114 10.1770573566085  66.6043225270158 3.94264339152119  66.6043225270158 3.94264339152119  L 71.1533248320568 2.30500256170649  " stroke-width="4" stroke="#c280ff" fill="none" transform="matrix(1 0 0 1 458 591 )" />
    <path d="M 70.6828811270311 -2.02563770448427  C 68.1975997527925 -2.02563770448427  66.1828811270311 -0.0109190787228366  66.1828811270311 2.47436229551573  C 66.1828811270311 4.9596436697543  68.1975997527925 6.97436229551573  70.6828811270311 6.97436229551573  C 73.1681625012697 6.97436229551573  75.1828811270311 4.9596436697543  75.1828811270311 2.47436229551573  C 75.1828811270311 -0.0109190787228366  73.1681625012697 -2.02563770448427  70.6828811270311 -2.02563770448427  Z " fill-rule="nonzero" fill="#c280ff" stroke="none" transform="matrix(1 0 0 1 458 591 )" />
  </g>
</svg>